<svg width="256" height="256" viewBox="0 0 256 256" fill="none" xmlns="http://www.w3.org/2000/svg">
<g clip-path="url(#clip0_119_43)">
<path d="M2.8418 146.948C5.43824 164.086 11.4854 180.086 20.2357 194.24H235.479C244.229 180.086 250.276 164.086 252.873 146.948H2.8418Z" fill="#F3F4F5"/>
<path d="M197.089 233.65H58.623C78.515 246.694 102.29 254.306 127.856 254.306C153.421 254.306 177.197 246.694 197.089 233.65Z" fill="#F3F4F5"/>
<path d="M20.2363 194.24C29.9926 210.024 43.1266 223.486 58.6237 233.65H197.089C212.589 223.486 225.72 210.024 235.477 194.24H20.2363Z" fill="#DC3027"/>
<path d="M140.864 2.06965C136.587 1.63129 132.248 1.40649 127.856 1.40649C58.0193 1.40649 1.40625 58.0196 1.40625 127.856C1.40625 134.345 1.898 140.721 2.84216 146.948H140.864V2.06965Z" fill="#283991"/>
<path d="M39.8696 66.3007L35.9581 54.2907L46.1444 46.8864H33.5471L32.78 44.5344C28.7842 49.0894 25.1143 53.9311 21.7985 59.0284L19.4297 66.3007L29.6468 58.8739L39.8696 66.3007Z" fill="#F3F4F5"/>
<path d="M65.3141 28.5455L75.4863 35.9386L71.586 23.9624L81.7611 16.5271H69.1638L68.9784 15.9539C65.005 18.0501 61.1469 20.3318 57.4377 22.8215L59.0338 23.982L55.1953 35.9386L65.3141 28.5455Z" fill="#F3F4F5"/>
<path d="M23.3526 115.015L19.4467 127.013L29.647 119.595L39.8754 127.013L35.9695 115.015L46.1417 107.596H33.5529L29.647 95.6257L25.7411 107.596H13.1523L23.3526 115.015Z" fill="#F3F4F5"/>
<path d="M94.7257 115.015L90.8198 127.013L101.02 119.595L111.248 127.013L107.343 115.015L117.515 107.596H104.926L101.02 95.6257L97.1423 107.596H84.5254L94.7257 115.015Z" fill="#F3F4F5"/>
<path d="M94.7257 54.2906L90.8198 66.2893L101.02 58.8709L111.248 66.2893L107.343 54.2906L117.515 46.8722H104.926L101.02 34.9297L97.1423 46.8722H84.5254L94.7257 54.2906Z" fill="#F3F4F5"/>
<path d="M58.9554 84.6387L55.0495 96.6655L65.2779 89.2471L75.4782 96.6655L71.5723 84.6387L81.7726 77.2484H69.1557L65.2779 65.2778L61.372 77.2484H48.7832L58.9554 84.6387Z" fill="#F3F4F5"/>
<path d="M252.659 107.535H140.863V146.945H252.87C253.814 140.721 254.306 134.345 254.306 127.857C254.306 120.936 253.727 114.155 252.659 107.535Z" fill="#DC3027"/>
<path d="M140.863 107.534H252.659C249.883 90.3626 243.642 74.3596 234.689 60.2422H140.863V107.534Z" fill="#F3F4F5"/>
<path d="M140.863 60.2423H234.686C224.607 44.3489 211.091 30.8665 195.167 20.832H140.863V60.2423Z" fill="#DC3027"/>
<path d="M140.863 2.08081V20.8319H195.169C179.133 10.7244 160.679 4.11244 140.863 2.08081Z" fill="#F3F4F5"/>
<g filter="url(#filter0_f_119_43)">
<ellipse cx="88" cy="77.5" rx="55" ry="56.5" fill="white" fill-opacity="0.64"/>
</g>
</g>
<rect x="6.5" y="6.5" width="243" height="243" rx="121.5" stroke="#1E7470" stroke-width="13"/>
<defs>
<filter id="filter0_f_119_43" x="3.5" y="-8.5" width="169" height="172" filterUnits="userSpaceOnUse" color-interpolation-filters="sRGB">
<feFlood flood-opacity="0" result="BackgroundImageFix"/>
<feBlend mode="normal" in="SourceGraphic" in2="BackgroundImageFix" result="shape"/>
<feGaussianBlur stdDeviation="14.75" result="effect1_foregroundBlur_119_43"/>
</filter>
<clipPath id="clip0_119_43">
<rect width="256" height="256" rx="128" fill="white"/>
</clipPath>
</defs>
</svg>
