<svg width="256" height="256" viewBox="0 0 256 256" fill="none" xmlns="http://www.w3.org/2000/svg">
<g clip-path="url(#clip0_119_41)">
<rect width="256" height="256" rx="128" fill="white"/>
<path d="M168.6 7.22461V245.678C217.679 228.327 252.857 181.56 252.9 126.546V126.355C252.857 71.3432 217.679 24.5735 168.6 7.22461Z" fill="#BC0000"/>
<path d="M84.3 245.676V7.22461C35.1924 24.5876 0 71.3966 0 126.45C0 181.504 35.1924 228.313 84.3 245.676Z" fill="#0B7226"/>
<path d="M84.3008 245.675C97.4881 250.337 111.667 252.9 126.451 252.9C141.234 252.9 155.413 250.337 168.601 245.675V7.2217C155.413 2.55991 141.234 0 126.451 0C111.667 0 97.4853 2.56272 84.3008 7.22451V245.675Z" fill="#F3F4F5"/>
<path d="M134.635 129.864L130.111 132.126C127.865 133.25 126.449 135.543 126.449 138.053H130.543L134.635 129.864Z" fill="#FFD250"/>
<path d="M126.45 148.284C125.318 148.284 124.404 147.368 124.404 146.238V138.053C124.404 136.92 125.32 136.007 126.45 136.007C127.582 136.007 128.496 136.923 128.496 138.053V146.238C128.496 147.368 127.58 148.284 126.45 148.284Z" fill="#7A93A5"/>
<path d="M126.45 140.098C118.41 140.098 110.649 136.996 104.591 131.365C103.765 130.595 103.714 129.299 104.484 128.473C105.26 127.647 106.552 127.605 107.376 128.366C112.675 133.292 119.447 136.004 126.45 136.004C133.45 136.004 140.224 133.292 145.521 128.366C146.347 127.602 147.64 127.641 148.413 128.473C149.183 129.299 149.135 130.595 148.306 131.365C142.25 136.996 134.486 140.098 126.45 140.098Z" fill="#7A93A5"/>
<path d="M126.451 148.284C121.926 148.284 117.526 147.143 113.598 144.968C112.575 144.4 112.277 143.063 112.923 142.088L112.946 142.051C113.536 141.163 114.702 140.905 115.64 141.413C122.28 145.018 130.621 145.018 137.258 141.413C138.196 140.905 139.362 141.163 139.953 142.051L139.975 142.088C140.621 143.063 140.324 144.4 139.301 144.968C135.375 147.146 130.975 148.284 126.451 148.284Z" fill="#7A93A5"/>
<path d="M113.926 133.576C108.517 133.576 102.023 129.024 100.301 118.88L101.015 118.759C102.796 118.458 104.516 119.518 105.081 121.235C107.093 127.332 111.367 129.488 114.073 129.482C115.028 129.457 116.026 129.125 116.104 128.451C116.197 127.644 116.219 127.45 114.078 126.728C112.915 126.335 111.597 125.888 110.67 124.829C106.927 120.555 111.993 116.028 114.429 113.856C114.859 113.471 115.036 113.145 114.991 113.021C114.857 112.672 114.056 112.141 113.148 112.141C110.549 112.141 108.576 110.672 108.003 108.311C107.719 107.148 107.826 105.951 108.247 104.9C108.902 103.262 111.17 103.138 111.982 104.703C112.263 105.246 112.255 105.872 112.044 106.446C111.937 106.738 111.915 107.069 111.982 107.342C112.033 107.553 112.153 108.047 113.151 108.047C115.657 108.047 118.04 109.525 118.816 111.56C119.147 112.428 119.648 114.682 117.158 116.904C114.469 119.304 112.861 121.111 113.752 122.128C113.955 122.359 114.82 122.651 115.39 122.845C117.234 123.469 120.662 124.626 120.17 128.914C119.864 131.609 117.456 133.481 114.188 133.568C114.098 133.573 114.011 133.576 113.926 133.576Z" fill="#89C15D"/>
<path d="M118.264 102.59L117.064 103.79C115.212 105.645 114.17 108.157 114.17 110.779C114.17 110.779 119.04 108.309 120.681 107.525C121.827 106.974 121.619 105.676 120.962 105.049C120.447 104.56 118.264 102.59 118.264 102.59Z" fill="#FFD250"/>
<path d="M126.451 156.469C107.989 156.469 92.8402 142.017 91.7247 123.831C91.6516 122.662 92.6014 121.679 93.7731 121.679C94.855 121.679 95.743 122.525 95.8104 123.604C96.808 139.64 110.169 152.378 126.451 152.378C142.732 152.378 156.093 139.64 157.088 123.606C157.156 122.525 158.043 121.682 159.125 121.682C160.297 121.682 161.247 122.665 161.174 123.834C160.058 142.017 144.912 156.469 126.451 156.469Z" fill="#89C15D"/>
<path d="M95.9705 131.047C97.5048 131.047 98.7496 132.292 98.7496 133.826C98.7496 135.36 97.5048 136.605 95.9705 136.605C94.4362 136.605 93.1914 135.36 93.1914 133.826C93.1914 132.289 94.4362 131.047 95.9705 131.047Z" fill="#FFE15A"/>
<path d="M102.109 140.854C103.643 140.854 104.888 142.099 104.888 143.633C104.888 145.167 103.643 146.412 102.109 146.412C100.575 146.412 99.3301 145.167 99.3301 143.633C99.3301 142.096 100.575 140.854 102.109 140.854Z" fill="#FFE15A"/>
<path d="M112.088 153.842C113.623 153.842 114.867 152.598 114.867 151.063C114.867 149.528 113.623 148.284 112.088 148.284C110.553 148.284 109.309 149.528 109.309 151.063C109.309 152.598 110.553 153.842 112.088 153.842Z" fill="#FFE15A"/>
<path d="M157.219 131.047C158.753 131.047 159.998 132.292 159.998 133.826C159.998 135.36 158.753 136.605 157.219 136.605C155.684 136.605 154.439 135.36 154.439 133.826C154.439 132.289 155.684 131.047 157.219 131.047Z" fill="#FFE15A"/>
<path d="M151.08 140.854C152.614 140.854 153.859 142.099 153.859 143.633C153.859 145.167 152.614 146.412 151.08 146.412C149.546 146.412 148.301 145.167 148.301 143.633C148.301 142.096 149.546 140.854 151.08 140.854Z" fill="#FFE15A"/>
<path d="M141.101 148.272C142.636 148.272 143.88 149.517 143.88 151.052C143.88 152.586 142.636 153.831 141.101 153.831C139.567 153.831 138.322 152.586 138.322 151.052C138.322 149.517 139.567 148.272 141.101 148.272Z" fill="#FFE15A"/>
<path d="M128.495 150.329H124.401C122.142 150.329 120.307 148.497 120.307 146.235C120.307 143.976 122.139 142.141 124.401 142.141H128.495C130.754 142.141 132.589 143.973 132.589 146.235C132.589 148.497 130.757 150.329 128.495 150.329Z" fill="#EDA472"/>
<path d="M150.863 117.399C150.785 116.924 150.698 116.458 150.602 116.005C150.498 115.505 150.386 115.013 150.262 114.538C145.364 95.7929 124.385 96.4308 124.385 96.4308C133.599 98.5496 130.541 110.773 130.541 110.773V110.883C130.311 110.38 130.089 109.871 129.842 109.376C127.762 105.218 123.511 102.588 118.86 102.588H118.262C118.262 104.526 119.186 106.339 120.732 107.508C121.718 108.255 122.356 109.438 122.356 110.773L122.35 110.779C119.914 113.237 119.315 116.978 120.864 120.074L121.771 121.889C121.982 122.314 122.235 122.716 122.519 123.095L118.686 129.024C118.349 130.033 119.248 131.019 120.282 130.777L128.232 128.934L133.264 133.967C133.767 134.47 134.63 134.113 134.63 133.402V131.241L136.322 132.933C137.755 134.366 139.946 134.723 141.759 133.815L146.907 131.241L134.206 123.62C133.857 121.038 133.29 118.495 132.506 116.011L143.588 121.344C144.954 125.351 147.163 129.704 150.998 131.238L151.004 131.241C151.616 125.773 151.498 121.212 150.863 117.399Z" fill="#7C3D3D"/>
<g filter="url(#filter0_f_119_41)">
<ellipse cx="89" cy="80.5" rx="55" ry="56.5" fill="white" fill-opacity="0.64"/>
</g>
</g>
<rect x="6.5" y="6.5" width="243" height="243" rx="121.5" stroke="#2D837F" stroke-width="13"/>
<defs>
<filter id="filter0_f_119_41" x="4.5" y="-5.5" width="169" height="172" filterUnits="userSpaceOnUse" color-interpolation-filters="sRGB">
<feFlood flood-opacity="0" result="BackgroundImageFix"/>
<feBlend mode="normal" in="SourceGraphic" in2="BackgroundImageFix" result="shape"/>
<feGaussianBlur stdDeviation="14.75" result="effect1_foregroundBlur_119_41"/>
</filter>
<clipPath id="clip0_119_41">
<rect width="256" height="256" rx="128" fill="white"/>
</clipPath>
</defs>
</svg>
