<svg width="2593" height="364" viewBox="0 0 2593 364" fill="none" xmlns="http://www.w3.org/2000/svg">
<g id="dm_full">
<g id="imagotipo">
<ellipse id="Ellipse 3" cx="177.5" cy="181.369" rx="177.5" ry="178" fill="white"/>
<path id="Ellipse 1" d="M177.5 23.3691C264.432 23.3691 335 94.0551 335 181.369C335 268.683 264.432 339.369 177.5 339.369C90.5682 339.369 20 268.683 20 181.369C20 94.0551 90.5682 23.3691 177.5 23.3691Z" stroke="#6A9A4A" stroke-width="40"/>
<path id="d" d="M110.92 239.795C100.322 239.795 92.2422 236.468 86.6816 229.814C81.1686 223.113 78.4121 213.37 78.4121 200.586C78.4121 187.184 81.335 176.965 87.1807 169.932C93.0264 162.898 101.177 159.381 111.633 159.381C116.1 159.381 119.974 160.07 123.253 161.448C126.58 162.826 129.36 164.704 131.594 167.08C133.875 169.409 135.633 172.07 136.869 175.064H137.439C137.249 172.546 137.107 169.837 137.012 166.938C136.917 164.038 136.869 161.377 136.869 158.953V127.443H144.069V238.369H138.224L137.297 224.183H136.869C135.586 227.034 133.804 229.648 131.522 232.024C129.289 234.401 126.485 236.302 123.11 237.728C119.736 239.106 115.673 239.795 110.92 239.795ZM111.704 233.521C120.829 233.521 127.316 230.694 131.166 225.038C135.016 219.335 136.94 211.208 136.94 200.657V199.517C136.94 188.586 135.016 180.221 131.166 174.423C127.316 168.577 121.043 165.654 112.346 165.654C103.743 165.654 97.1611 168.648 92.5986 174.637C88.0837 180.625 85.8262 189.322 85.8262 200.729C85.8262 211.469 87.9411 219.62 92.1709 225.181C96.4482 230.741 102.959 233.521 111.704 233.521Z" fill="#6A9A4A"/>
<path id="Ellipse 2" d="M177.5 12.3691C270.536 12.3691 346 88.0091 346 181.369C346 274.729 270.536 350.369 177.5 350.369C84.4639 350.369 9 274.729 9 181.369C9 88.0091 84.4639 12.3691 177.5 12.3691Z" stroke="#1E7470" stroke-width="18"/>
<path id="M" d="M209.245 238.369L184.151 156.601H183.51C183.605 158.549 183.747 161.496 183.938 165.44C184.175 169.338 184.389 173.496 184.579 177.916C184.769 182.336 184.864 186.328 184.864 189.893V238.369H165.117V134.145H195.201L219.867 213.846H220.295L246.458 134.145H276.542V238.369H255.939V189.037C255.939 185.758 255.987 181.979 256.082 177.702C256.225 173.425 256.391 169.361 256.581 165.512C256.771 161.615 256.914 158.692 257.009 156.743H256.367L229.491 238.369H209.245Z" fill="#1B716F"/>
</g>
<g id="text">
<g id="data">
<path id="Vector" d="M1133.6 103.931C1161.16 103.931 1181.79 110.859 1195.5 124.717C1209.2 138.574 1216.05 160.669 1216.05 191.001V359.369H1198.04L1193.88 315.487H1192.49C1187.1 324.88 1180.56 333.271 1172.86 340.662C1165.16 347.898 1155.69 353.595 1144.45 357.752C1133.37 361.91 1119.82 363.988 1103.81 363.988C1087.64 363.988 1073.78 361.294 1062.23 355.905C1050.84 350.516 1041.99 342.663 1035.67 332.347C1029.51 322.031 1026.44 309.482 1026.44 294.701C1026.44 269.758 1036.75 250.819 1057.38 237.886C1078.02 224.798 1107.66 217.408 1146.3 215.714L1192.96 213.404V195.159C1192.96 169.445 1187.87 151.123 1177.71 140.191C1167.55 129.259 1152.54 123.793 1132.68 123.793C1119.74 123.793 1107.27 125.487 1095.26 128.874C1083.4 132.107 1071.32 136.804 1059 142.962L1051.61 123.562C1063.62 117.865 1076.48 113.169 1090.18 109.474C1104.04 105.778 1118.51 103.931 1133.6 103.931ZM1192.72 231.65L1148.84 233.498C1116.97 235.037 1092.72 240.734 1076.09 250.588C1059.46 260.443 1051.15 275.224 1051.15 294.932C1051.15 310.791 1056.08 322.955 1065.93 331.423C1075.94 339.892 1089.79 344.126 1107.5 344.126C1135.06 344.126 1156.08 336.273 1170.55 320.568C1185.18 304.863 1192.57 283.461 1192.72 256.362V231.65Z" fill="#6A9A4A"/>
<path id="Vector_2" d="M974.221 343.895C981.458 343.895 988.156 343.356 994.314 342.278C1000.63 341.201 1006.17 339.815 1010.94 338.121V357.521C1006.02 359.215 1000.24 360.678 993.622 361.91C987.001 363.295 979.687 363.988 971.681 363.988C957.515 363.988 945.737 361.371 936.344 356.136C926.952 350.747 919.869 342.663 915.096 331.885C910.323 320.953 907.937 307.096 907.937 290.313V127.719H870.521V113.862L907.706 106.702L915.789 47.5771H931.263V108.319H1009.56V127.719H931.263V288.927C931.263 306.942 934.574 320.645 941.194 330.038C947.969 339.276 958.978 343.895 974.221 343.895Z" fill="#6A9A4A"/>
<path id="Vector_3" d="M762.184 103.931C789.744 103.931 810.377 110.859 824.08 124.717C837.784 138.574 844.635 160.669 844.635 191.001V359.369H826.621L822.463 315.487H821.078C815.689 324.88 809.145 333.271 801.446 340.662C793.748 347.898 784.278 353.595 773.039 357.752C761.953 361.91 748.403 363.988 732.39 363.988C716.223 363.988 702.366 361.294 690.818 355.905C679.424 350.516 670.571 342.663 664.258 332.347C658.099 322.031 655.02 309.482 655.02 294.701C655.02 269.758 665.336 250.819 685.968 237.886C706.6 224.798 736.239 217.408 774.886 215.714L821.54 213.404V195.159C821.54 169.445 816.458 151.123 806.296 140.191C796.134 129.259 781.122 123.793 761.26 123.793C748.326 123.793 735.854 125.487 723.845 128.874C711.989 132.107 699.902 136.804 687.584 142.962L680.194 123.562C692.204 117.865 705.06 113.169 718.764 109.474C732.621 105.778 747.094 103.931 762.184 103.931ZM821.309 231.65L777.427 233.498C745.555 235.037 721.304 240.734 704.675 250.588C688.046 260.443 679.732 275.224 679.732 294.932C679.732 310.791 684.659 322.955 694.513 331.423C704.521 339.892 718.379 344.126 736.085 344.126C763.646 344.126 784.663 336.273 799.137 320.568C813.764 304.863 821.155 283.461 821.309 256.362V231.65Z" fill="#6A9A4A"/>
<path id="Vector_4" d="M502.57 363.988C468.235 363.988 442.06 353.21 424.045 331.654C406.184 309.944 397.254 278.38 397.254 236.962C397.254 193.542 406.723 160.438 425.662 137.65C444.6 114.863 471.006 103.469 504.88 103.469C519.353 103.469 531.902 105.701 542.526 110.167C553.304 114.632 562.311 120.714 569.548 128.412C576.938 135.957 582.635 144.579 586.639 154.279H588.486C587.87 146.119 587.409 137.342 587.101 127.95C586.793 118.558 586.639 109.936 586.639 102.083V0H609.965V359.369H591.027L588.024 313.409H586.639C582.481 322.647 576.708 331.115 569.317 338.814C562.08 346.513 552.996 352.671 542.064 357.291C531.132 361.756 517.967 363.988 502.57 363.988ZM505.111 343.664C534.673 343.664 555.69 334.503 568.162 316.18C580.634 297.704 586.87 271.375 586.87 237.193V233.498C586.87 198.084 580.634 170.985 568.162 152.201C555.69 133.262 535.366 123.793 507.189 123.793C479.321 123.793 457.996 133.493 443.214 152.894C428.587 172.294 421.273 200.471 421.273 237.424C421.273 272.221 428.125 298.627 441.829 316.642C455.686 334.657 476.78 343.664 505.111 343.664Z" fill="#6A9A4A"/>
</g>
<g id="Mares">
<path id="Vector_5" d="M2592.8 282.691C2592.8 300.244 2588.64 315.102 2580.33 327.266C2572.17 339.276 2559.93 348.437 2543.61 354.75C2527.29 360.909 2506.96 363.988 2482.63 363.988C2464.62 363.988 2449.15 362.833 2436.21 360.524C2423.43 358.214 2410.5 354.365 2397.41 348.976V290.775C2411.42 297.088 2426.43 302.323 2442.45 306.48C2458.61 310.483 2472.78 312.485 2484.94 312.485C2498.65 312.485 2508.42 310.483 2514.28 306.48C2520.28 302.323 2523.28 296.934 2523.28 290.313C2523.28 286.002 2522.05 282.153 2519.59 278.765C2517.28 275.224 2512.2 271.298 2504.34 266.986C2496.49 262.521 2484.17 256.747 2467.39 249.665C2451.22 242.89 2437.91 236.038 2427.44 229.109C2417.12 222.181 2409.42 214.02 2404.34 204.628C2399.41 195.082 2396.95 182.995 2396.95 168.368C2396.95 144.502 2406.19 126.564 2424.66 114.555C2443.29 102.391 2468.16 96.3091 2499.26 96.3091C2515.28 96.3091 2530.52 97.9258 2544.99 101.159C2559.62 104.393 2574.63 109.551 2590.03 116.633L2568.78 167.444C2556 161.901 2543.91 157.359 2532.52 153.817C2521.28 150.276 2509.81 148.505 2498.11 148.505C2487.79 148.505 2480.02 149.891 2474.78 152.663C2469.55 155.434 2466.93 159.668 2466.93 165.365C2466.93 169.522 2468.24 173.218 2470.86 176.451C2473.63 179.685 2478.86 183.303 2486.56 187.306C2494.41 191.155 2505.88 196.16 2520.97 202.318C2535.6 208.323 2548.3 214.636 2559.08 221.257C2569.86 227.724 2578.17 235.807 2584.02 245.507C2589.88 255.054 2592.8 267.448 2592.8 282.691Z" fill="#1E7470"/>
<path id="Vector_6" d="M2258.59 96.3091C2282.45 96.3091 2303.01 100.928 2320.25 110.167C2337.5 119.251 2350.82 132.492 2360.21 149.891C2369.6 167.29 2374.3 188.538 2374.3 213.635V247.817H2207.78C2208.55 267.679 2214.47 283.307 2225.56 294.701C2236.8 305.941 2252.35 311.561 2272.21 311.561C2288.69 311.561 2303.78 309.867 2317.48 306.48C2331.18 303.093 2345.27 298.012 2359.75 291.237V345.743C2346.97 352.056 2333.57 356.675 2319.56 359.6C2305.7 362.526 2288.84 363.988 2268.98 363.988C2243.11 363.988 2220.17 359.215 2200.15 349.669C2180.29 340.123 2164.66 325.572 2153.27 306.018C2142.03 286.464 2136.41 261.828 2136.41 232.112C2136.41 201.933 2141.49 176.836 2151.65 156.82C2161.97 136.65 2176.29 121.56 2194.61 111.552C2212.93 101.39 2234.26 96.3091 2258.59 96.3091ZM2259.05 146.427C2245.34 146.427 2233.95 150.815 2224.87 159.591C2215.94 168.368 2210.78 182.148 2209.39 200.933H2308.24C2308.09 190.463 2306.16 181.147 2302.47 172.987C2298.93 164.826 2293.54 158.36 2286.3 153.586C2279.22 148.813 2270.13 146.427 2259.05 146.427Z" fill="#1E7470"/>
<path id="Vector_7" d="M2100.36 96.3091C2103.9 96.3091 2107.98 96.54 2112.6 97.002C2117.38 97.3099 2121.23 97.7718 2124.15 98.3877L2118.84 164.441C2116.53 163.672 2113.22 163.133 2108.91 162.825C2104.75 162.363 2101.13 162.132 2098.05 162.132C2088.97 162.132 2080.12 163.287 2071.49 165.596C2063.03 167.906 2055.4 171.678 2048.63 176.913C2041.85 181.994 2036.47 188.769 2032.46 197.237C2028.61 205.552 2026.69 215.791 2026.69 227.955V359.369H1956.25V101.159H2009.6L2019.99 144.579H2023.45C2028.54 135.803 2034.85 127.796 2042.39 120.56C2050.09 113.169 2058.79 107.318 2068.49 103.007C2078.35 98.5417 2088.97 96.3091 2100.36 96.3091Z" fill="#1E7470"/>
<path id="Vector_8" d="M1795.02 95.8472C1829.67 95.8472 1856.23 103.392 1874.7 118.481C1893.18 133.57 1902.42 156.512 1902.42 187.306V359.369H1853.22L1839.6 324.264H1837.75C1830.36 333.502 1822.81 341.047 1815.11 346.897C1807.42 352.748 1798.56 357.06 1788.55 359.831C1778.55 362.603 1766.38 363.988 1752.06 363.988C1736.82 363.988 1723.12 361.063 1710.95 355.212C1698.94 349.361 1689.47 340.431 1682.55 328.421C1675.62 316.257 1672.15 300.86 1672.15 282.229C1672.15 254.823 1681.78 234.652 1701.02 221.719C1720.27 208.631 1749.14 201.395 1787.63 200.009L1832.44 198.623V187.306C1832.44 173.757 1828.9 163.826 1821.81 157.513C1814.73 151.2 1804.88 148.043 1792.25 148.043C1779.78 148.043 1767.54 149.814 1755.53 153.355C1743.52 156.897 1731.51 161.362 1719.5 166.751L1696.17 119.174C1709.88 111.937 1725.2 106.24 1742.13 102.083C1759.22 97.9258 1776.85 95.8472 1795.02 95.8472ZM1832.44 239.733L1805.18 240.657C1782.4 241.273 1766.54 245.353 1757.61 252.898C1748.83 260.443 1744.44 270.374 1744.44 282.691C1744.44 293.469 1747.6 301.168 1753.91 305.787C1760.22 310.252 1768.46 312.485 1778.62 312.485C1793.71 312.485 1806.42 308.02 1816.73 299.089C1827.2 290.159 1832.44 277.456 1832.44 260.981V239.733Z" fill="#1E7470"/>
<path id="Vector_9" d="M1410.46 359.369L1329.16 94.4614H1327.08C1327.39 100.774 1327.85 110.32 1328.47 123.1C1329.24 135.726 1329.93 149.198 1330.55 163.518C1331.16 177.837 1331.47 190.771 1331.47 202.318V359.369H1267.5V21.71H1364.96L1444.87 279.92H1446.26L1531.02 21.71H1628.48V359.369H1561.74V199.547C1561.74 188.923 1561.89 176.682 1562.2 162.825C1562.66 148.967 1563.2 135.803 1563.81 123.331C1564.43 110.705 1564.89 101.236 1565.2 94.9233H1563.12L1476.05 359.369H1410.46Z" fill="#1E7470"/>
</g>
</g>
</g>
</svg>
