<svg width="355" height="356" viewBox="0 0 355 356" fill="none" xmlns="http://www.w3.org/2000/svg">
<ellipse cx="177.5" cy="178" rx="177.5" ry="178" fill="white"/>
<path d="M177.5 20C264.432 20 335 90.6859 335 178C335 265.314 264.432 336 177.5 336C90.5682 336 20 265.314 20 178C20 90.6859 90.5682 20 177.5 20Z" stroke="#6A9A4A" stroke-width="40"/>
<path d="M110.92 236.426C100.322 236.426 92.2422 233.099 86.6816 226.445C81.1686 219.744 78.4121 210.001 78.4121 197.217C78.4121 183.814 81.335 173.596 87.1807 166.562C93.0264 159.529 101.177 156.012 111.633 156.012C116.1 156.012 119.974 156.701 123.253 158.079C126.58 159.457 129.36 161.335 131.594 163.711C133.875 166.04 135.633 168.701 136.869 171.695H137.439C137.249 169.176 137.107 166.467 137.012 163.568C136.917 160.669 136.869 158.008 136.869 155.584V124.074H144.069V235H138.224L137.297 220.813H136.869C135.586 223.665 133.804 226.279 131.522 228.655C129.289 231.032 126.485 232.933 123.11 234.358C119.736 235.737 115.673 236.426 110.92 236.426ZM111.704 230.152C120.829 230.152 127.316 227.325 131.166 221.669C135.016 215.966 136.94 207.839 136.94 197.288V196.147C136.94 185.216 135.016 176.852 131.166 171.054C127.316 165.208 121.043 162.285 112.346 162.285C103.743 162.285 97.1611 165.279 92.5986 171.268C88.0837 177.256 85.8262 185.953 85.8262 197.359C85.8262 208.1 87.9411 216.251 92.1709 221.812C96.4482 227.372 102.959 230.152 111.704 230.152Z" fill="#6A9A4A"/>
<path d="M177.5 9C270.536 9 346 84.64 346 178C346 271.36 270.536 347 177.5 347C84.4639 347 9 271.36 9 178C9 84.64 84.4639 9 177.5 9Z" stroke="#1E7470" stroke-width="18"/>
<path d="M209.245 235L184.151 153.231H183.51C183.605 155.18 183.747 158.127 183.938 162.071C184.175 165.968 184.389 170.127 184.579 174.547C184.769 178.967 184.864 182.959 184.864 186.523V235H165.117V130.775H195.201L219.867 210.477H220.295L246.458 130.775H276.542V235H255.939V185.668C255.939 182.389 255.987 178.61 256.082 174.333C256.225 170.056 256.391 165.992 256.581 162.143C256.771 158.245 256.914 155.323 257.009 153.374H256.367L229.491 235H209.245Z" fill="#1B716F"/>
</svg>
