<?xml version="1.0" encoding="UTF-8"?>
<svg id="Capa_2" data-name="Capa 2" xmlns="http://www.w3.org/2000/svg" viewBox="0 0 274.12 55.17">
  <defs>
    <style>
      .cls-1 {
        fill: #1d1d1b;
      }

      .cls-2 {
        fill: #fff;
      }

      .cls-3 {
        fill: #20736f;
      }

      .cls-4 {
        fill: #6c9639;
      }
    </style>
  </defs>
  <g id="Capa_1-2" data-name="Capa 1">
    <g>
      <g>
        <g>
          <path class="cls-2" d="M54.94,11.43c2.01,0,3.74.37,5.21,1.1,1.46.73,2.77,1.98,3.93,3.75h.15c-.1-2.14-.15-4.24-.15-6.3V0h2.5v39.7h-1.66l-.64-4.24h-.2c-2.11,3.16-5.14,4.75-9.08,4.75s-6.75-1.19-8.78-3.57c-2.02-2.38-3.04-5.85-3.04-10.41,0-4.8,1-8.46,3.01-11,2.01-2.53,4.92-3.8,8.75-3.8ZM54.94,13.73c-3.03,0-5.3,1.06-6.83,3.19-1.52,2.13-2.28,5.21-2.28,9.26,0,7.86,3.05,11.79,9.16,11.79,3.13,0,5.43-.91,6.89-2.73,1.46-1.82,2.19-4.82,2.19-9.01v-.43c0-4.29-.72-7.37-2.16-9.25s-3.76-2.82-6.98-2.82Z"/>
          <path class="cls-2" d="M88.55,39.7l-.64-4.39h-.2c-1.4,1.79-2.83,3.05-4.3,3.79s-3.21,1.11-5.22,1.11c-2.72,0-4.84-.7-6.35-2.09-1.51-1.39-2.27-3.33-2.27-5.79,0-2.7,1.13-4.81,3.38-6.3,2.25-1.5,5.52-2.29,9.79-2.37l5.28-.15v-1.84c0-2.64-.54-4.63-1.61-5.97-1.07-1.34-2.8-2.02-5.18-2.02-2.57,0-5.23.71-7.99,2.14l-.94-2.19c3.04-1.43,6.06-2.14,9.03-2.14s5.32.79,6.83,2.37c1.51,1.58,2.26,4.05,2.26,7.4v18.45h-1.86ZM78.34,37.92c2.96,0,5.29-.85,7-2.54s2.56-4.04,2.56-7.06v-2.73l-4.85.2c-3.9.19-6.67.8-8.33,1.82-1.66,1.03-2.49,2.63-2.49,4.81,0,1.73.53,3.08,1.59,4.04s2.56,1.44,4.5,1.44Z"/>
          <path class="cls-2" d="M102.54,37.97c1.6,0,2.99-.14,4.18-.41v2.04c-1.22.41-2.64.61-4.24.61-2.45,0-4.26-.65-5.42-1.96-1.17-1.31-1.75-3.37-1.75-6.17V14.16h-4.11v-1.48l4.11-1.15,1.28-6.28h1.3v6.71h8.14v2.19h-8.14v17.55c0,2.13.37,3.7,1.12,4.72.75,1.02,1.92,1.53,3.52,1.53Z"/>
          <path class="cls-2" d="M125.38,39.7l-.64-4.39h-.2c-1.4,1.79-2.83,3.05-4.3,3.79s-3.21,1.11-5.22,1.11c-2.72,0-4.84-.7-6.35-2.09-1.51-1.39-2.27-3.33-2.27-5.79,0-2.7,1.13-4.81,3.38-6.3,2.25-1.5,5.52-2.29,9.79-2.37l5.28-.15v-1.84c0-2.64-.54-4.63-1.61-5.97-1.07-1.34-2.8-2.02-5.18-2.02-2.57,0-5.23.71-7.99,2.14l-.94-2.19c3.04-1.43,6.06-2.14,9.03-2.14s5.32.79,6.83,2.37c1.51,1.58,2.26,4.05,2.26,7.4v18.45h-1.86ZM115.17,37.92c2.96,0,5.29-.85,7-2.54s2.56-4.04,2.56-7.06v-2.73l-4.85.2c-3.9.19-6.67.8-8.33,1.82-1.66,1.03-2.49,2.63-2.49,4.81,0,1.73.53,3.08,1.59,4.04s2.56,1.44,4.5,1.44Z"/>
        </g>
        <g>
          <path class="cls-3" d="M158.16,14.01c0,4.02-1.25,7.08-3.76,9.21-2.51,2.13-6.08,3.19-10.7,3.19h-3.39v13.27h-7.91V2.38h11.92c4.53,0,7.96.97,10.32,2.92s3.53,4.85,3.53,8.71ZM140.29,19.93h2.6c2.43,0,4.25-.48,5.46-1.44,1.21-.96,1.81-2.36,1.81-4.2s-.51-3.22-1.52-4.11c-1.01-.88-2.6-1.33-4.76-1.33h-3.6v11.07Z"/>
          <path class="cls-3" d="M186.33,25.37c0,4.64-1.23,8.28-3.67,10.9s-5.86,3.93-10.23,3.93c-2.74,0-5.15-.6-7.25-1.8-2.09-1.2-3.7-2.92-4.82-5.17-1.12-2.25-1.68-4.86-1.68-7.86,0-4.66,1.22-8.28,3.65-10.87,2.43-2.59,5.85-3.88,10.26-3.88,2.74,0,5.15.6,7.25,1.79,2.09,1.19,3.7,2.9,4.82,5.13s1.68,4.84,1.68,7.83ZM166.61,25.37c0,2.82.46,4.96,1.39,6.4.93,1.45,2.44,2.17,4.53,2.17s3.57-.72,4.48-2.16c.91-1.44,1.37-3.58,1.37-6.42s-.46-4.94-1.38-6.35c-.92-1.41-2.42-2.12-4.52-2.12s-3.57.7-4.49,2.1c-.92,1.4-1.38,3.53-1.38,6.37Z"/>
          <path class="cls-3" d="M208.48,31.21c0,2.93-1.02,5.15-3.05,6.69-2.03,1.53-5.07,2.3-9.12,2.3-2.08,0-3.84-.14-5.31-.42-1.46-.28-2.83-.69-4.11-1.24v-6.43c1.45.68,3.07,1.25,4.89,1.71,1.81.46,3.41.69,4.78.69,2.82,0,4.24-.82,4.24-2.45,0-.61-.19-1.11-.56-1.49-.37-.38-1.02-.82-1.94-1.3-.92-.48-2.14-1.05-3.67-1.7-2.19-.92-3.81-1.77-4.83-2.55-1.03-.78-1.78-1.68-2.25-2.69s-.7-2.26-.7-3.74c0-2.53.98-4.49,2.95-5.88,1.96-1.39,4.75-2.08,8.36-2.08s6.78.75,10.03,2.25l-2.35,5.61c-1.43-.61-2.76-1.11-4.01-1.51-1.24-.39-2.51-.59-3.8-.59-2.3,0-3.44.62-3.44,1.86,0,.7.37,1.3,1.11,1.81s2.36,1.27,4.86,2.27c2.23.9,3.86,1.74,4.9,2.53,1.04.78,1.8,1.68,2.3,2.7.49,1.02.74,2.24.74,3.65Z"/>
          <path class="cls-3" d="M222.39,33.99c1.36,0,2.99-.3,4.9-.89v5.79c-1.94.87-4.32,1.3-7.14,1.3-3.11,0-5.38-.79-6.8-2.36-1.42-1.57-2.13-3.93-2.13-7.08v-13.75h-3.73v-3.29l4.29-2.6,2.25-6.02h4.98v6.07h7.99v5.84h-7.99v13.75c0,1.11.31,1.92.93,2.45.62.53,1.44.79,2.46.79Z"/>
          <path class="cls-3" d="M241.79,40.19c-4.59,0-8.18-1.27-10.77-3.8s-3.88-6.12-3.88-10.77,1.19-8.48,3.58-11.09c2.39-2.61,5.69-3.92,9.91-3.92s7.17,1.15,9.42,3.44c2.25,2.3,3.37,5.47,3.37,9.52v3.78h-18.4c.08,2.21.74,3.94,1.96,5.18,1.22,1.24,2.94,1.86,5.15,1.86,1.72,0,3.34-.18,4.87-.54,1.53-.36,3.13-.93,4.8-1.71v6.02c-1.36.68-2.82,1.19-4.36,1.52-1.55.33-3.44.5-5.67.5ZM240.69,16.16c-1.65,0-2.94.52-3.88,1.57-.94,1.05-1.47,2.53-1.61,4.45h10.92c-.03-1.92-.54-3.41-1.51-4.45-.97-1.05-2.28-1.57-3.93-1.57Z"/>
          <path class="cls-3" d="M271.49,10.62c1.05,0,1.93.08,2.63.23l-.59,7.3c-.63-.17-1.4-.26-2.3-.26-2.48,0-4.42.64-5.8,1.91-1.39,1.28-2.08,3.06-2.08,5.36v14.52h-7.78V11.16h5.89l1.15,4.8h.38c.88-1.6,2.08-2.89,3.58-3.87,1.5-.98,3.14-1.47,4.91-1.47Z"/>
        </g>
        <g>
          <circle class="cls-3" cx="18.85" cy="21.36" r="18.85"/>
          <g>
            <path class="cls-2" d="M12.37,30.97h3.18s.02-.02.02-.03c.16-.67.22-1.35.22-2.03,0-.49-.03-.98-.09-1.46-.08-.6-.22-1.19-.33-1.79-.01-.08-.04-.14-.15-.14-.24-.01-.47-.04-.71-.07-.61-.06-1.21-.02-1.81.08-.05,0-.12.06-.13.11-.27.98-.43,1.97-.43,2.98,0,.62.08,1.25.13,1.87.01.17.07.33.1.49ZM12.7,26.72c.03-.28.28-.47.55-.44.3.03.48.24.46.54-.02.23-.06.46-.08.69-.03.48-.06.96-.07,1.45,0,.33.03.65.04.98,0,.25-.17.47-.4.49-.32.04-.56-.1-.6-.39-.05-.42-.07-.85-.11-1.42.06-.55.13-1.23.2-1.91Z"/>
            <path class="cls-2" d="M14.71,37.07c.31,0,.62,0,.94,0,.15,0,.18-.05.19-.19.03-.46.08-.93.12-1.42h-.19c-1.67,0-3.34,0-5.01,0,1.22.7,2.55,1.24,3.94,1.61Z"/>
            <path class="cls-2" d="M16.86,37.06h3.98c-.05-.53-.1-1.06-.15-1.59h-3.69c-.05.53-.1,1.06-.15,1.59Z"/>
            <path class="cls-2" d="M13.11,23.76c-.07.22-.13.45-.19.66h2.1c-.07-.22-.13-.45-.21-.68-.01-.04-.07-.08-.11-.09-.49-.07-.98-.08-1.47.03-.05,0-.11.05-.12.08Z"/>
            <path class="cls-2" d="M4.67,26.14c0-1.68,0-3.37,0-5.05,0-.89,0-1.78,0-2.68.01-1.38.84-2.59,2.13-3.07.35-.13.71-.2,1.09-.2,1.13,0,2.25,0,3.38,0,.03,0,.06,0,.08,0,.05.02.13.03.14.06.01.05,0,.13-.04.16-.22.26-.46.5-.68.75-.16.17-.31.35-.47.52-.12.14-.28.19-.46.19-.41,0-.83-.02-1.24,0-.43.02-.87-.07-1.28.13-.61.3-.94.79-.94,1.47,0,2.99,0,5.98,0,8.96,0,1.11,0,2.22,0,3.33v.23h4.92c-.03-.2-.06-.4-.08-.59-.09-.69-.16-1.38-.1-2.08.04-.47.06-.95.15-1.42.12-.67.28-1.33.44-1.99.09-.38.21-.75.33-1.13.03-.1.03-.15-.08-.2-1.02-.52-1.76-1.29-2.1-2.4-.43-1.4-.15-2.68.75-3.81.45-.56.96-1.07,1.43-1.61.38-.44.7-.92.78-1.52.04-.27.04-.54.02-.81-.03-.4.12-.67.46-.7.11-.01.23.02.33.07.91.45,1.71,1.07,2.42,1.8.72.73,1.3,1.56,1.69,2.51.3.72.46,1.48.52,2.26.1,1.35-.37,2.47-1.28,3.43-.32.33-.7.6-1.13.8,1.11,3.52,1.15,5.14.78,7.4h3v-.22c0-4.37,0-8.74,0-13.11,0-.64.25-1.19.63-1.7.77-1,1.53-2.01,2.29-3.02.19-.26.61-.3.85,0,.56.72,1.14,1.42,1.72,2.13.29.36.59.71.87,1.08.36.47.52,1.01.52,1.6,0,3.24,0,6.48,0,9.71,0,1.17,0,2.34,0,3.52h4.81c0-.06,0-.12,0-.19,0-2.15,0-4.29,0-6.44,0-1.95,0-3.89,0-5.84,0-.84-.47-1.46-1.25-1.61-.32-.06-.67-.03-1-.03-.56,0-1.12,0-1.69,0-.24,0-.3-.04-.36-.26-.11-.43-.38-.76-.65-1.09-.04-.05-.09-.09-.12-.14-.02-.04-.04-.11-.03-.15.02-.04.09-.07.14-.07,1.24,0,2.49-.03,3.73.02.77.03,1.44.39,1.98.95.65.66.95,1.47.95,2.39,0,3.01,0,6.02,0,9.03,0,.59,0,1.18,0,1.76,1.32-2.35,2.08-5.05,2.08-7.94,0-8.98-7.28-16.25-16.25-16.25S2.59,12.38,2.59,21.36c0,2.89.76,5.59,2.08,7.94,0-1.05,0-2.11,0-3.16ZM10.42,23.35c.27,0,.52.24.53.52,0,.28-.32.61-.6.62-.27,0-.52-.23-.53-.51,0-.29.31-.62.6-.63ZM10.33,24.65c.28,0,.61.33.61.61,0,.27-.23.51-.5.52-.28.01-.62-.32-.62-.61,0-.28.23-.52.51-.53ZM9.64,23.96c0,.28-.24.52-.52.52-.29,0-.61-.33-.61-.62,0-.28.26-.52.53-.51.28,0,.61.34.6.61ZM7.04,18.03c.29,0,.61.32.61.6,0,.29-.23.52-.52.52-.3,0-.62-.33-.61-.62.01-.28.25-.5.52-.5ZM7.02,20.45c-.28,0-.51-.24-.51-.51,0-.29.33-.61.62-.6.28,0,.52.26.51.53-.01.3-.32.59-.62.58ZM8.44,18.03c.28,0,.51.23.51.51,0,.29-.31.61-.61.61-.29,0-.52-.23-.52-.51,0-.3.32-.61.62-.6ZM7.82,19.85c.02-.33.26-.53.53-.52.29,0,.6.32.6.61,0,.29-.24.51-.53.51-.3,0-.62-.31-.61-.59ZM9.04,25.79c-.28,0-.52-.24-.52-.52,0-.29.32-.62.61-.62.28,0,.52.25.52.52,0,.28-.31.6-.6.61ZM27.69,24.95c-.27,0-.52-.25-.51-.53,0-.3.32-.61.62-.6.27,0,.51.24.51.51,0,.29-.32.61-.62.61ZM28.01,20.81c-.2-.19-.19-.52.01-.73.11-.12.22-.24.34-.34.09-.07.21-.12.32-.18.24.04.41.13.49.33.09.2.06.39-.09.56-.11.12-.23.24-.35.35-.21.19-.53.19-.72,0ZM29.78,18.33c.11-.14.24-.26.37-.38.21-.19.55-.18.73.03.18.2.17.51-.03.72-.11.11-.21.23-.33.33-.1.08-.23.12-.29.16-.28-.02-.44-.11-.53-.31-.09-.2-.06-.38.08-.54ZM29.71,19.88c.09-.2.26-.27.47-.28.04,0,.09,0,.13.02.29.18.56.38.68.71.07.2-.03.43-.21.54-.19.12-.44.11-.6-.03-.14-.13-.28-.25-.4-.4-.14-.17-.16-.36-.07-.56ZM29.09,24.95c-.28,0-.6-.33-.6-.61,0-.27.24-.51.5-.52.3,0,.61.31.61.61,0,.28-.23.52-.52.52ZM29.6,23.05c-.02.3-.33.6-.61.59-.28,0-.52-.27-.5-.55.02-.29.35-.6.63-.58.29.02.51.26.49.54ZM27.97,18c.16-.2.47-.27.67-.11.19.14.35.32.51.5.06.07.07.18.08.23-.02.26-.11.42-.31.5-.2.09-.39.06-.55-.09-.13-.11-.25-.24-.36-.36-.17-.18-.18-.47-.03-.67ZM27.69,22.51c.28,0,.61.31.62.59,0,.28-.24.54-.52.54-.28,0-.6-.32-.61-.61,0-.28.23-.52.51-.53ZM28.24,12.05c.28,0,.51.24.51.52,0,.31-.29.6-.59.6-.29,0-.51-.22-.51-.52,0-.29.31-.61.59-.61ZM28.16,13.35c.3,0,.6.31.6.61,0,.3-.21.52-.51.52-.29,0-.6-.31-.6-.6,0-.29.23-.53.51-.53ZM26.85,14.48c-.29,0-.51-.23-.51-.52,0-.29.31-.61.6-.6.32,0,.53.3.51.53,0,.3-.3.6-.6.6ZM26.85,12.05c.3,0,.6.31.6.62,0,.29-.23.5-.52.51-.26,0-.61-.35-.59-.62.03-.28.23-.5.51-.51ZM18.89,10.47c.12-.14.25-.27.39-.39.19-.16.51-.15.69.02.19.18.23.47.06.68-.13.17-.3.32-.46.45-.07.06-.18.07-.27.1-.22-.01-.37-.11-.47-.29-.11-.21-.07-.4.07-.57ZM18.84,11.98c.13-.2.4-.31.61-.19.29.16.53.38.65.7.01.04.01.08.02.1-.01.22-.11.38-.3.48-.19.1-.41.06-.57-.09-.12-.11-.24-.23-.35-.36-.18-.19-.2-.43-.06-.64ZM18.71,15.15c.35,0,.69,0,1.04,0,.06,0,.14.02.16.05.02.05,0,.13-.03.18-.23.41-.49.8-.71,1.22-.15.29-.73.34-.9.03-.24-.42-.48-.84-.71-1.26-.08-.14-.04-.22.13-.22.35,0,.69,0,1.04,0h0ZM17.12,10.12c.2-.21.51-.21.74,0,.11.1.22.2.31.32.08.1.13.23.19.35-.03.24-.14.39-.33.48-.18.09-.42.04-.57-.1-.11-.1-.21-.21-.32-.32-.22-.22-.23-.53-.03-.74ZM17.04,12.34c.14-.19.32-.38.52-.51.34-.23.76.03.76.44,0,.02,0,.04,0,.07-.02.39-.68.87-1.02.75-.29-.11-.44-.49-.26-.74ZM10.86,14.31c-.28,0-.61-.33-.61-.62,0-.28.24-.51.53-.51.25,0,.62.33.59.62,0,.28-.23.51-.5.51ZM10.87,11.88c.28,0,.5.23.5.52,0,.31-.29.6-.59.6-.29,0-.52-.22-.52-.52,0-.3.31-.61.62-.61ZM9.46,11.88c.29,0,.6.3.6.6,0,.3-.21.52-.51.52-.3,0-.6-.3-.61-.59,0-.29.23-.52.51-.52ZM9.57,13.18c.29,0,.5.23.5.53,0,.3-.31.6-.6.6-.29,0-.52-.25-.51-.54,0-.29.32-.59.61-.59Z"/>
            <path class="cls-2" d="M12.83,16.99c-.33.32-.66.64-.95.98-.49.57-.74,1.24-.74,2.13,0,.37.12.84.36,1.28.16.28.44.37.7.22.26-.15.32-.42.17-.72-.22-.42-.28-.87-.19-1.34.1-.51.39-.9.73-1.26.22-.23.46-.44.68-.66.17-.17.18-.39.07-.58-.19-.32-.54-.35-.84-.06Z"/>
            <path class="cls-2" d="M19.61,33.48c.28,0,.51-.24.51-.52,0-.26-.24-.48-.52-.49-.25,0-.5,0-.75,0-.12,0-.25,0-.37,0-.13,0-.26,0-.38,0-.27,0-.51.22-.51.49,0,.26.23.51.51.52.51,0,1.01,0,1.52,0Z"/>
            <path class="cls-2" d="M21.94,35.46h-.22c.05.54.1,1.06.15,1.61h.17c.31,0,.63,0,.94,0,1.39-.37,2.71-.91,3.93-1.61-1.66,0-3.32,0-4.98,0Z"/>
            <path class="cls-2" d="M25.46,30.97v-11.63h-4.79v11.63h4.79ZM23.74,20.73c0-.35.13-.53.43-.6.3-.07.6.17.6.49,0,1.06,0,2.12,0,3.18,0,.39,0,.78,0,1.17,0,1.42,0,2.84,0,4.26,0,.36-.19.57-.5.57-.31,0-.53-.23-.52-.58,0-.94,0-1.88,0-2.83,0-1.89,0-3.78,0-5.67ZM21.94,20.11c.25,0,.53.16.53.56,0,1.43,0,2.86,0,4.29s0,2.86,0,4.29c0,.28-.18.5-.43.54-.28.04-.52-.12-.59-.39-.01-.05-.02-.11-.02-.16,0-2.86,0-5.72,0-8.57,0-.35.22-.55.51-.56Z"/>
            <path class="cls-2" d="M25.47,17.74c0-.37-.09-.7-.32-.99-.29-.37-.58-.73-.88-1.09-.03-.04-.11-.07-.17-.07-.72,0-1.45,0-2.17,0-.06,0-.14.05-.18.1-.27.35-.53.71-.8,1.06-.36.47-.29,1.01-.28,1.54h4.81c0-.19,0-.37,0-.55Z"/>
          </g>
        </g>
        <g>
          <g>
            <path class="cls-3" d="M111.37,50.56c-.13-.27-.34-.51-.61-.72-.28-.21-.71-.43-1.31-.67-.67-.27-1.1-.47-1.3-.61s-.3-.3-.3-.48c0-.33.31-.5.92-.5.35,0,.68.05,1.02.16.33.1.69.24,1.07.4l.63-1.5c-.87-.4-1.76-.6-2.68-.6-.96,0-1.71.19-2.23.56-.52.37-.79.89-.79,1.57,0,.4.06.73.19,1,.12.27.32.51.6.72.27.21.71.44,1.29.68.41.17.74.32.98.45.25.13.42.25.52.35.1.1.15.24.15.4,0,.44-.38.65-1.13.65-.37,0-.79-.06-1.28-.18-.48-.12-.92-.27-1.3-.46v1.72c.34.15.71.26,1.1.33.39.07.86.11,1.42.11,1.08,0,1.89-.2,2.44-.61.54-.41.81-1,.81-1.79,0-.38-.07-.7-.2-.97Z"/>
            <path class="cls-3" d="M96.29,46.42c-.4.26-.72.61-.96,1.03h-.1l-.31-1.28h-1.57v7.62h2.08v-3.88c0-.61.18-1.09.56-1.43.37-.34.89-.51,1.55-.51.24,0,.45.02.61.07l.16-1.95c-.19-.04-.42-.06-.7-.06-.47,0-.91.13-1.31.39Z"/>
            <path class="cls-3" d="M101.99,46.03c-1.13,0-2.01.35-2.65,1.05-.64.7-.96,1.68-.96,2.96s.35,2.2,1.04,2.88c.69.68,1.65,1.02,2.88,1.02.59,0,1.1-.04,1.51-.13.41-.09.8-.22,1.17-.41v-1.61c-.45.21-.87.36-1.28.46-.41.1-.84.14-1.3.14-.59,0-1.05-.17-1.38-.5-.33-.33-.5-.79-.52-1.38h4.91v-1.01c0-1.08-.3-1.93-.9-2.54-.6-.61-1.44-.92-2.51-.92ZM100.54,49.12c.04-.51.18-.91.43-1.19.25-.28.6-.42,1.04-.42s.79.14,1.05.42c.26.28.39.68.4,1.19h-2.92Z"/>
            <path class="cls-3" d="M79.71,51.45h-.04l-2.36-7.62h-2.88v9.96h1.89v-4.63c0-.53-.04-1.59-.13-3.18h.06l2.4,7.82h1.94l2.57-7.8h.06c-.05,1.25-.09,2.03-.09,2.32,0,.29-.01.55-.01.77v4.72h1.97v-9.96h-2.88l-2.5,7.62Z"/>
            <path class="cls-3" d="M91.79,46.69c-.55-.45-1.33-.67-2.35-.67s-2.04.23-2.92.69l.69,1.4c.82-.37,1.54-.55,2.15-.55.79,0,1.19.39,1.19,1.16v.33l-1.32.04c-1.14.04-1.99.25-2.56.64-.57.38-.85.98-.85,1.79s.21,1.37.63,1.79c.42.42,1,.63,1.73.63.6,0,1.08-.09,1.45-.26.37-.17.73-.48,1.08-.92h.05l.4,1.04h1.45v-5.08c0-.91-.27-1.59-.82-2.03ZM90.54,50.89c0,.46-.14.83-.43,1.1-.29.28-.67.42-1.15.42-.67,0-1.01-.29-1.01-.88,0-.41.15-.71.44-.91.3-.2.74-.31,1.35-.33l.8-.03v.63Z"/>
          </g>
          <g>
            <path class="cls-4" d="M65.05,52.92c-.2-.27-.3-.69-.3-1.26v-4.69h2.17v-.59h-2.17v-1.79h-.35l-.34,1.68-1.1.31v.4h1.1v4.78c0,.75.16,1.3.47,1.65.31.35.79.52,1.45.52.43,0,.8-.05,1.13-.16v-.55c-.32.07-.69.11-1.12.11s-.74-.14-.94-.41Z"/>
            <path class="cls-4" d="M60.04,46.26c-.8,0-1.6.19-2.41.57l.25.59c.74-.38,1.45-.57,2.13-.57.64,0,1.1.18,1.38.54.29.36.43.89.43,1.59v.49l-1.41.04c-1.14.02-2.01.23-2.61.63-.6.4-.9.96-.9,1.68,0,.66.2,1.17.61,1.55.4.37.97.56,1.7.56.54,0,1-.1,1.39-.3.39-.2.78-.53,1.15-1.01h.05l.17,1.17h.5v-4.93c0-.89-.2-1.55-.6-1.98-.4-.42-1.01-.63-1.82-.63ZM61.8,50.75c0,.8-.23,1.43-.68,1.88-.46.45-1.08.68-1.87.68-.52,0-.92-.13-1.2-.38-.28-.26-.43-.62-.43-1.08,0-.58.22-1.01.66-1.28.44-.27,1.18-.44,2.22-.49l1.29-.05v.73Z"/>
            <path class="cls-4" d="M55.44,45.86c0,.55.01,1.11.04,1.68h-.04c-.31-.47-.66-.81-1.05-1-.39-.2-.85-.29-1.39-.29-1.02,0-1.8.34-2.34,1.02-.54.68-.8,1.66-.8,2.94s.27,2.14.81,2.78c.54.64,1.32.95,2.34.95s1.86-.42,2.43-1.27h.05l.17,1.13h.44v-10.6h-.67v2.66ZM55.44,50.2c0,1.12-.2,1.92-.59,2.41-.39.49-1,.73-1.84.73-1.63,0-2.45-1.05-2.45-3.15,0-1.08.2-1.91.61-2.47.41-.57,1.01-.85,1.82-.85.86,0,1.48.25,1.86.75.38.5.58,1.33.58,2.47v.12Z"/>
            <path class="cls-4" d="M70.72,46.26c-.8,0-1.6.19-2.41.57l.25.59c.74-.38,1.45-.57,2.13-.57.64,0,1.1.18,1.38.54.29.36.43.89.43,1.59v.49l-1.41.04c-1.14.02-2.01.23-2.61.63-.6.4-.9.96-.9,1.68,0,.66.2,1.17.61,1.55.4.37.97.56,1.7.56.54,0,1-.1,1.39-.3.39-.2.78-.53,1.15-1.01h.05l.17,1.17h.5v-4.93c0-.89-.2-1.55-.6-1.98-.4-.42-1.01-.63-1.82-.63ZM72.47,50.75c0,.8-.23,1.43-.68,1.88-.46.45-1.08.68-1.87.68-.52,0-.92-.13-1.2-.38-.28-.26-.43-.62-.43-1.08,0-.58.22-1.01.66-1.28.44-.27,1.18-.44,2.22-.49l1.29-.05v.73Z"/>
          </g>
        </g>
        <path class="cls-1" d="M114.66,50.8c1.24,0,2.22.96,2.22,2.18s-.98,2.19-2.23,2.19-2.24-.97-2.24-2.19,1-2.18,2.24-2.18h.01ZM114.64,51.24c-.94,0-1.67.78-1.67,1.74s.73,1.74,1.7,1.74c.94.01,1.66-.77,1.66-1.73s-.72-1.75-1.67-1.75h-.01ZM114.3,54.11h-.5v-2.18c.2-.03.48-.07.84-.07.41,0,.6.07.74.17.13.09.22.25.22.46,0,.27-.2.44-.45.52v.03c.21.07.32.24.38.53.07.33.12.45.16.53h-.53c-.07-.08-.11-.27-.17-.53-.04-.23-.17-.33-.45-.33h-.24v.86ZM114.32,52.88h.24c.28,0,.5-.09.5-.32,0-.2-.15-.33-.46-.33-.13,0-.23.01-.28.03v.62Z"/>
      </g>
      <g>
        <path class="cls-3" d="M41.81,53.84c-.36,0-.64-.13-.84-.39h-.04c.03.25.04.4.04.44v1.23h-.83v-4.37h.67l.12.39h.04c.19-.3.48-.45.86-.45.36,0,.64.14.84.42s.3.66.3,1.15c0,.32-.05.61-.14.84-.09.24-.23.42-.41.55-.17.13-.38.19-.62.19ZM41.57,51.35c-.2,0-.35.06-.45.19-.09.13-.14.33-.15.62v.09c0,.33.05.56.14.7.1.14.25.21.46.21.37,0,.56-.31.56-.92,0-.3-.04-.52-.14-.67-.09-.15-.24-.22-.43-.22Z"/>
        <path class="cls-3" d="M45.97,52.26c0,.49-.13.88-.39,1.16s-.62.42-1.09.42c-.29,0-.55-.06-.77-.19-.22-.13-.39-.31-.51-.55-.12-.24-.18-.52-.18-.84,0-.5.13-.88.39-1.16.26-.28.62-.41,1.09-.41.29,0,.55.06.77.19s.39.31.51.55c.12.24.18.51.18.83ZM43.88,52.26c0,.3.05.53.15.68.1.15.26.23.48.23s.38-.08.48-.23c.1-.15.14-.38.14-.68s-.05-.53-.15-.68c-.1-.15-.26-.23-.48-.23s-.38.08-.48.22c-.1.15-.15.37-.15.68Z"/>
        <path class="cls-3" d="M47.91,50.69c.11,0,.21,0,.28.02l-.06.78c-.07-.02-.15-.03-.24-.03-.26,0-.47.07-.62.2s-.22.33-.22.57v1.54h-.83v-3.03h.63l.12.51h.04c.09-.17.22-.31.38-.41s.33-.16.52-.16Z"/>
      </g>
    </g>
  </g>
</svg>