<svg width="1200" height="169" viewBox="0 0 1200 169" fill="none" xmlns="http://www.w3.org/2000/svg">
<path d="M164.301 83.9413C164.301 129.44 127.521 166.323 82.1505 166.323C36.7801 166.323 0 129.44 0 83.9413C0 38.443 36.7801 1.55933 82.1505 1.55933C127.521 1.55933 164.301 38.443 164.301 83.9413Z" fill="white"/>
<path d="M145.788 83.9413C145.788 48.6182 117.248 20.0721 82.1505 20.0721C47.0535 20.0721 18.5128 48.6182 18.5128 83.9413C18.5128 119.264 47.0535 147.81 82.1505 147.81V166.323C36.7801 166.323 0 129.44 0 83.9413C0 38.443 36.7801 1.55933 82.1505 1.55933C127.521 1.55933 164.301 38.443 164.301 83.9413C164.301 129.44 127.521 166.323 82.1505 166.323V147.81C117.248 147.81 145.788 119.264 145.788 83.9413Z" fill="#6A9A4A"/>
<path d="M51.3363 110.982C46.4312 110.982 42.6919 109.442 40.1183 106.363C37.5668 103.261 36.291 98.7522 36.291 92.8352C36.291 86.6324 37.6438 81.9032 40.3493 78.6478C43.0548 75.3924 46.8271 73.7647 51.6662 73.7647C53.7338 73.7647 55.5265 74.0837 57.0442 74.7215C58.584 75.3594 59.8707 76.2283 60.9045 77.3281C61.9603 78.4059 62.7742 79.6376 63.3461 81.0234H63.61C63.5221 79.8576 63.4561 78.6038 63.4121 77.2621C63.3681 75.9203 63.3461 74.6885 63.3461 73.5667V58.9834H66.6785V110.322H63.973L63.5441 103.756H63.3461C62.7522 105.076 61.9274 106.286 60.8715 107.386C59.8377 108.485 58.54 109.365 56.9783 110.025C55.4165 110.663 53.5359 110.982 51.3363 110.982ZM51.6992 108.078C55.9224 108.078 58.9249 106.77 60.7066 104.152C62.4883 101.513 63.3791 97.7514 63.3791 92.8682V92.3403C63.3791 87.2813 62.4883 83.41 60.7066 80.7264C58.9249 78.0209 56.0214 76.6682 51.9962 76.6682C48.0149 76.6682 44.9684 78.0539 42.8568 80.8254C40.7672 83.5969 39.7224 87.6222 39.7224 92.9012C39.7224 97.8723 40.7012 101.645 42.6589 104.218C44.6385 106.792 47.6519 108.078 51.6992 108.078Z" fill="#6A9A4A"/>
<path d="M155.97 83.9413C155.97 43.0218 122.898 9.89009 82.1505 9.89009C41.4031 9.89009 8.33076 43.0218 8.33076 83.9413C8.33076 124.861 41.4031 157.992 82.1505 157.992V166.323C36.7801 166.323 0 129.44 0 83.9413C0 38.443 36.7801 1.55933 82.1505 1.55933C127.521 1.55933 164.301 38.443 164.301 83.9413C164.301 129.44 127.521 166.323 82.1505 166.323V157.992C122.898 157.992 155.97 124.861 155.97 83.9413Z" fill="#1E7470"/>
<path d="M96.8432 110.322L85.2293 72.4778H84.9324C84.9764 73.3797 85.0424 74.7434 85.1303 76.5691C85.2403 78.3728 85.3393 80.2974 85.4273 82.343C85.5153 84.3887 85.5593 86.2363 85.5593 87.886V110.322H76.4199V62.0847H90.3434L101.759 98.972H101.957L114.066 62.0847H127.99V110.322H118.454V87.4901C118.454 85.9724 118.476 84.2237 118.52 82.2441C118.586 80.2644 118.663 78.3838 118.751 76.6021C118.839 74.7984 118.905 73.4457 118.949 72.5438H118.652L106.214 110.322H96.8432Z" fill="#1B716F"/>
<path d="M524.652 48.1011C537.408 48.1011 546.957 51.3078 553.299 57.7213C559.642 64.1348 562.813 74.3608 562.813 88.3992V166.323H554.475L552.551 146.014H551.91C549.416 150.361 546.387 154.244 542.824 157.665C539.261 161.014 534.878 163.651 529.676 165.575C524.545 167.499 518.274 168.461 510.863 168.461C503.381 168.461 496.967 167.214 491.623 164.72C486.35 162.226 482.252 158.591 479.33 153.817C476.48 149.042 475.055 143.235 475.055 136.393C475.055 124.849 479.829 116.084 489.378 110.098C498.927 104.041 512.645 100.62 530.531 99.8366L552.123 98.7677V90.3232C552.123 78.4226 549.772 69.9426 545.069 64.883C540.365 59.8235 533.417 57.2937 524.225 57.2937C518.239 57.2937 512.467 58.0776 506.908 59.6454C501.421 61.1418 495.827 63.3153 490.126 66.1657L486.706 57.1869C492.264 54.5502 498.215 52.3767 504.557 50.6665C510.97 48.9562 517.669 48.1011 524.652 48.1011ZM552.017 107.212L531.707 108.067C516.956 108.78 505.733 111.416 498.036 115.977C490.34 120.538 486.492 127.379 486.492 136.5C486.492 143.84 488.772 149.47 493.333 153.389C497.965 157.309 504.379 159.268 512.574 159.268C525.329 159.268 535.056 155.634 541.755 148.365C548.525 141.097 551.945 131.191 552.017 118.649V107.212Z" fill="#6A9A4A"/>
<path d="M450.889 159.162C454.238 159.162 457.338 158.912 460.188 158.413C463.11 157.915 465.676 157.273 467.885 156.489V165.468C465.604 166.252 462.932 166.929 459.868 167.499C456.804 168.14 453.419 168.461 449.713 168.461C443.157 168.461 437.706 167.25 433.359 164.827C429.012 162.333 425.734 158.592 423.525 153.603C421.316 148.544 420.211 142.13 420.211 134.363V59.1111H402.895V52.6976L420.104 49.384L423.845 22.0198H431.007V50.1322H467.243V59.1111H431.007V133.721C431.007 142.059 432.539 148.401 435.603 152.748C438.739 157.024 443.834 159.162 450.889 159.162Z" fill="#6A9A4A"/>
<path d="M352.754 48.1011C365.51 48.1011 375.059 51.3078 381.401 57.7213C387.743 64.1348 390.914 74.3608 390.914 88.3992V166.323H382.577L380.653 146.014H380.011C377.517 150.361 374.489 154.244 370.925 157.665C367.362 161.014 362.98 163.651 357.778 165.575C352.647 167.499 346.376 168.461 338.965 168.461C331.483 168.461 325.069 167.214 319.724 164.72C314.451 162.226 310.354 158.591 307.432 153.817C304.581 149.042 303.156 143.235 303.156 136.393C303.156 124.849 307.931 116.084 317.48 110.098C327.029 104.041 340.746 100.62 358.633 99.8366L380.225 98.7677V90.3232C380.225 78.4226 377.873 69.9426 373.17 64.883C368.467 59.8235 361.519 57.2937 352.326 57.2937C346.34 57.2937 340.568 58.0776 335.01 59.6454C329.523 61.1418 323.929 63.3153 318.228 66.1657L314.807 57.1869C320.366 54.5502 326.316 52.3767 332.658 50.6665C339.072 48.9562 345.77 48.1011 352.754 48.1011ZM380.118 107.212L359.809 108.067C345.058 108.78 333.834 111.416 326.138 115.977C318.442 120.538 314.594 127.379 314.594 136.5C314.594 143.84 316.874 149.47 321.435 153.389C326.067 157.309 332.48 159.268 340.675 159.268C353.431 159.268 363.158 155.634 369.857 148.365C376.626 141.097 380.047 131.191 380.118 118.649V107.212Z" fill="#6A9A4A"/>
<path d="M232.6 168.461C216.709 168.461 204.594 163.473 196.257 153.496C187.991 143.448 183.857 128.84 183.857 109.671C183.857 89.5751 188.24 74.254 197.005 63.7073C205.77 53.1607 217.991 47.8874 233.669 47.8874C240.367 47.8874 246.175 48.9207 251.092 50.9873C256.08 53.0538 260.249 55.8686 263.599 59.4317C267.019 62.9235 269.656 66.9141 271.508 71.4035H272.364C272.079 67.6267 271.865 63.5648 271.722 59.2179C271.58 54.871 271.508 50.8804 271.508 47.2461V0H282.305V166.323H273.539L272.15 145.052H271.508C269.584 149.327 266.912 153.247 263.492 156.81C260.142 160.373 255.938 163.223 250.878 165.361C245.819 167.428 239.726 168.461 232.6 168.461ZM233.776 159.055C247.458 159.055 257.185 154.815 262.957 146.335C268.729 137.783 271.615 125.598 271.615 109.778V108.067C271.615 91.6773 268.729 79.1354 262.957 70.4415C257.185 61.6764 247.779 57.2939 234.738 57.2939C221.84 57.2939 211.97 61.7833 205.129 70.7622C198.359 79.7411 194.974 92.7818 194.974 109.884C194.974 125.989 198.145 138.211 204.487 146.548C210.901 154.886 220.664 159.055 233.776 159.055Z" fill="#6A9A4A"/>
<path d="M1200 130.835C1200 138.959 1198.08 145.836 1194.23 151.465C1190.45 157.024 1184.79 161.264 1177.23 164.185C1169.68 167.036 1160.27 168.461 1149.01 168.461C1140.67 168.461 1133.51 167.927 1127.53 166.858C1121.61 165.789 1115.63 164.007 1109.57 161.513V134.576C1116.05 137.498 1123 139.921 1130.41 141.845C1137.9 143.698 1144.45 144.624 1150.08 144.624C1156.42 144.624 1160.95 143.698 1163.66 141.845C1166.44 139.921 1167.83 137.427 1167.83 134.363C1167.83 132.367 1167.26 130.586 1166.11 129.018C1165.05 127.379 1162.69 125.562 1159.06 123.567C1155.43 121.5 1149.72 118.828 1141.96 115.55C1134.47 112.414 1128.31 109.243 1123.47 106.036C1118.69 102.83 1115.13 99.0528 1112.78 94.7059C1110.5 90.2877 1109.36 84.6937 1109.36 77.9239C1109.36 66.8784 1113.63 58.5765 1122.18 53.0182C1130.81 47.3885 1142.31 44.5737 1156.71 44.5737C1164.12 44.5737 1171.17 45.322 1177.87 46.8185C1184.64 48.3149 1191.59 50.7022 1198.72 53.9802L1188.88 77.4963C1182.97 74.9309 1177.37 72.8287 1172.1 71.1897C1166.9 69.5507 1161.59 68.7312 1156.17 68.7312C1151.4 68.7312 1147.8 69.3726 1145.38 70.6553C1142.96 71.938 1141.74 73.8976 1141.74 76.5343C1141.74 78.4583 1142.35 80.1686 1143.56 81.6651C1144.84 83.1616 1147.27 84.8362 1150.83 86.689C1154.46 88.4705 1159.77 90.7865 1166.76 93.6369C1173.53 96.4161 1179.41 99.3378 1184.39 102.402C1189.38 105.395 1193.23 109.136 1195.94 113.626C1198.65 118.044 1200 123.78 1200 130.835Z" fill="#1E7470"/>
<path d="M1045.32 44.5737C1056.36 44.5737 1065.88 46.7116 1073.86 50.9872C1081.84 55.1916 1088 61.3201 1092.35 69.3726C1096.7 77.4251 1098.87 87.2591 1098.87 98.8746V114.695H1021.8C1022.16 123.887 1024.9 131.12 1030.03 136.394C1035.24 141.596 1042.43 144.197 1051.63 144.197C1059.25 144.197 1066.23 143.413 1072.58 141.845C1078.92 140.277 1085.44 137.926 1092.14 134.79V160.017C1086.22 162.938 1080.02 165.076 1073.54 166.43C1067.12 167.784 1059.32 168.461 1050.13 168.461C1038.16 168.461 1027.54 166.252 1018.28 161.834C1009.08 157.416 1001.85 150.681 996.577 141.631C991.374 132.581 988.773 121.179 988.773 107.426C988.773 93.4588 991.125 81.8432 995.828 72.5793C1000.6 63.2441 1007.23 56.2605 1015.71 51.6286C1024.19 46.9253 1034.06 44.5737 1045.32 44.5737ZM1045.53 67.7692C1039.19 67.7692 1033.92 69.8001 1029.71 73.862C1025.58 77.9239 1023.19 84.3018 1022.55 92.9956H1068.3C1068.23 88.1498 1067.34 83.8386 1065.63 80.0617C1063.99 76.2849 1061.5 73.2919 1058.15 71.0828C1054.87 68.8737 1050.66 67.7692 1045.53 67.7692Z" fill="#1E7470"/>
<path d="M972.091 44.5737C973.73 44.5737 975.618 44.6806 977.756 44.8944C979.965 45.0369 981.747 45.2507 983.101 45.5358L980.642 76.1067C979.573 75.7504 978.041 75.501 976.046 75.3585C974.122 75.1447 972.447 75.0378 971.022 75.0378C966.818 75.0378 962.72 75.5723 958.729 76.6412C954.81 77.7101 951.283 79.456 948.147 81.8789C945.012 84.2305 942.518 87.366 940.665 91.2853C938.883 95.1334 937.993 99.8723 937.993 105.502V166.323H905.391V46.8185H930.083L934.893 66.9141H936.496C938.848 62.8522 941.769 59.1466 945.261 55.7973C948.824 52.3768 952.85 49.6689 957.34 47.6736C961.901 45.607 966.818 44.5737 972.091 44.5737Z" fill="#1E7470"/>
<path d="M830.773 44.3599C846.806 44.3599 859.099 47.8517 867.65 54.8352C876.201 61.8188 880.477 72.4367 880.477 86.6889V166.323H857.709L851.403 150.076H850.547C847.127 154.351 843.635 157.843 840.072 160.551C836.509 163.259 832.412 165.254 827.78 166.537C823.148 167.82 817.518 168.461 810.891 168.461C803.836 168.461 797.494 167.107 791.864 164.399C786.306 161.691 781.923 157.558 778.716 152C775.51 146.37 773.906 139.244 773.906 130.621C773.906 117.937 778.36 108.602 787.268 102.616C796.175 96.5586 809.537 93.2093 827.352 92.5679L848.089 91.9266V86.6889C848.089 80.4179 846.45 75.8216 843.172 72.8999C839.894 69.9782 835.333 68.5173 829.49 68.5173C823.718 68.5173 818.052 69.3369 812.494 70.9759C806.936 72.6149 801.377 74.6814 795.819 77.1756L785.023 55.1559C791.365 51.8066 798.456 49.17 806.294 47.2459C814.204 45.3219 822.364 44.3599 830.773 44.3599ZM848.089 110.953L835.476 111.381C824.929 111.666 817.589 113.554 813.456 117.046C809.394 120.538 807.363 125.134 807.363 130.835C807.363 135.823 808.824 139.386 811.746 141.524C814.668 143.591 818.48 144.624 823.183 144.624C830.167 144.624 836.046 142.558 840.82 138.424C845.666 134.291 848.089 128.412 848.089 120.787V110.953Z" fill="#1E7470"/>
<path d="M652.789 166.323L615.163 43.7187H614.201C614.344 46.6404 614.557 51.0586 614.842 56.9732C615.199 62.8166 615.519 69.052 615.804 75.6793C616.089 82.3065 616.232 88.2924 616.232 93.637V166.323H586.623V10.0479H631.731L668.716 129.553H669.357L708.586 10.0479H753.695V166.323H722.803V92.3543C722.803 87.4373 722.874 81.7721 723.017 75.3586C723.23 68.9451 723.48 62.8523 723.765 57.0801C724.05 51.2367 724.264 46.8542 724.406 43.9325H723.444L683.146 166.323H652.789Z" fill="#1E7470"/>
</svg>
