<?xml version="1.0" encoding="UTF-8"?>
<svg xmlns="http://www.w3.org/2000/svg" id="Layer_2" data-name="Layer 2" viewBox="0 0 1920 255.21">
  <defs>
    <style>
      .cls-1 {
        fill: #fdfdf9;
      }

      .cls-1, .cls-2, .cls-3, .cls-4, .cls-5, .cls-6, .cls-7, .cls-8, .cls-9, .cls-10, .cls-11, .cls-12, .cls-13, .cls-14, .cls-15, .cls-16, .cls-17, .cls-18, .cls-19, .cls-20, .cls-21, .cls-22, .cls-23, .cls-24, .cls-25, .cls-26, .cls-27, .cls-28, .cls-29, .cls-30, .cls-31 {
        stroke-width: 0px;
      }

      .cls-2 {
        fill: #fbfcf9;
      }

      .cls-3 {
        fill: #c5cf2d;
      }

      .cls-4 {
        fill: #879f9f;
      }

      .cls-5 {
        fill: none;
      }

      .cls-6 {
        fill: #fcfcfa;
      }

      .cls-7 {
        fill: #fdfefc;
      }

      .cls-8 {
        fill: #196663;
      }

      .cls-9 {
        fill: #186663;
      }

      .cls-10 {
        fill: #f9faf6;
      }

      .cls-11 {
        fill: #c6d030;
      }

      .cls-12 {
        fill: #fcfdf9;
      }

      .cls-13 {
        fill: #c5cf2e;
      }

      .cls-14 {
        fill: #fcfdfa;
      }

      .cls-15 {
        fill: #fafaf6;
      }

      .cls-16 {
        fill: #fbfcfa;
      }

      .cls-17 {
        fill: #859e9d;
      }

      .cls-18 {
        fill: #fdfdfb;
      }

      .cls-19 {
        fill: #fcfcfb;
      }

      .cls-20 {
        fill: #f8f9f4;
      }

      .cls-21 {
        fill: #fdfdfa;
      }

      .cls-22 {
        fill: #b8c4c5;
      }

      .cls-23 {
        fill: #176562;
      }

      .cls-24 {
        fill: #c6cf30;
      }

      .cls-25 {
        fill: #fbfbf9;
      }

      .cls-26 {
        fill: #bdc8c9;
      }

      .cls-27 {
        fill: #c6cf2f;
      }

      .cls-28 {
        fill: #fff;
      }

      .cls-29 {
        fill: #f9faf7;
      }

      .cls-30 {
        fill: #1a6663;
      }

      .cls-31 {
        fill: #fefefb;
      }
    </style>
  </defs>
  <g id="Layer_1-2" data-name="Layer 1">
    <path class="cls-5" d="M1745.24,255.21c-523.24,0-1046.49,0-1569.83-.16,1.98-.32,4.06-.48,6.14-.63,7.21-.54,14.03-2.62,20.47-5.76,7.11-3.46,13.41-8.09,18.4-14.34.78-.97,1.66-1.85,2.67-2.98,0,3.39-.33,6.48.07,9.47.9,6.92,7.2,12.04,13.96,12.03,10.37-.02,20.74-.12,31.11.03,7.96.11,14.85-6.66,14.74-14.57-.04-2.94.22-5.89.39-8.83.03-.47.31-.93.53-1.54.9,3.53,1.88,6.79,2.56,10.11,1.49,7.3,7.29,11.75,14.07,11.92,9.21.24,18.44.09,27.64-.39,5.94-.31,10.02-3.87,11.84-9.57,1.33-4.19,2.28-8.5,3.4-12.76.48,3.68.94,7.38.93,11.07-.03,7.94,6.79,14.61,14.57,14.54,10.76-.1,21.53-.01,32.3-.04,1.15,0,2.44.04,3.44-.43,2.69-1.27,5.23-1.1,7.88.02.86.36,1.9.41,2.85.41,27.81.02,55.61.02,83.42,0,1.09,0,2.25-.05,3.25-.42,2.08-.75,4.02-.9,6.13-.02,1.09.45,2.42.43,3.64.43,11.89.03,23.78-.12,35.66.06,8.28.13,14.98-6.99,14.95-15-.02-5.51,0-11.01,0-15.74,1.84,6.45,3.81,13.6,5.94,20.7,1.79,5.96,7.8,10.07,13.73,10.02,12.88-.1,25.76.03,38.64-.06,4.63-.03,8.25-2.32,11.04-5.93,2.72-3.52,3.03-7.61,2.82-11.91.12-.13.16-.19.31-.15.58.42,1.09.7,1.51,1.09,5.82,5.33,12.52,9.23,19.77,12.29,9.14,3.86,18.76,5.67,28.56,6.15,8.88.44,17.76.06,26.6-1.43,6.99-1.18,13.93-2.41,20.6-4.84,1.43-.52,2.23-.13,3.19.88,2.43,2.55,5.57,3.84,9.01,3.85,28.13.07,56.27.08,84.4-.04,2.07,0,4.3-.82,6.17-1.81,5.5-2.92,7.86-7.82,7.88-13.91.03-9.18.03-18.36,0-27.54,0-1.69-.18-3.38-.39-5.05-.88-6.94-7.27-12.35-14.18-12.27-9.97.12-19.94.03-29.92.03-.7,0-1.41,0-2.14,0v-19.42c8.82,0,17.53.02,26.23,0,8.09-.03,14.89-6.37,14.87-14.84-.02-9.84,0-19.68-.02-29.52,0-1.22-.15-2.46-.4-3.66-1.39-6.79-7.84-11.55-14.17-11.45-8.19.12-16.38.03-24.57.03h-1.95v-11.89c5.98,0,11.84-.03,17.71.01,3.63.03,7.24-.3,10.81,1.08,1.79.69,3.99.45,6,.47,5.06.05,10.12.02,15.29.02v2.57c0,44.18,0,88.36,0,132.55,0,8.2,6.82,14.76,14.59,14.7,12.22-.09,24.44,0,36.65-.03,7.61-.02,14.13-6.52,14.14-14.1.02-44.45.01-88.89.01-133.34v-2.2h10.3v2.53c0,43.19,0,86.38.02,129.57,0,1.88.1,3.79.41,5.65,1.13,6.67,7.02,11.84,13.73,11.86,28.07.1,56.14.04,84.2.04.53,0,1.07.06,1.58-.06,7.75-1.84,12.36-6.94,12.52-14.86.23-10.93-.06-21.87-.35-32.79-.18-6.9-6.97-13.03-13.87-12.95-10.24.11-20.47.03-30.71.03-.69,0-1.39,0-2.06,0v-19.42c.72,0,1.37,0,2.01,0,8.39,0,16.77,0,25.16,0,.59,0,1.21.06,1.77-.07,7.87-1.77,12.68-7.63,12.6-15.72-.09-9.58,0-19.15-.03-28.73-.03-8.15-6.41-15.05-14.96-14.95-8.19.09-16.38.02-24.57.02h-1.96v-11.73c.23-.07.35-.13.47-.13,5.61-.01,11.23.03,16.84-.03,4.59-.06,9.19-.17,13.77-.39,7.14-.34,12.96-7.87,12.84-14.61-.18-10.37-.05-20.74-.05-31.1,0-8.24-6.62-14.89-14.84-14.9-29.13-.03-58.26-.01-87.39-.01-61.22,0-122.44,0-183.66.01-.77,0-1.54.14-2.31.26-3.72.61-6.8,2.35-9.15,5.24-34.26-14.92-84.11-7.48-109.84,30.76-.27-.61-.54-1.23-.83-1.84-3.19-6.74-7.68-12.48-13.15-17.57-5.68-5.28-12.16-9.04-19.34-11.82-10.46-4.04-21.42-5.3-32.46-5.75-7.48-.3-15,.16-22.5.33-1.82.04-3.65.21-5.46.41-4.18.48-8.36.95-12.52,1.57-3.93.59-7.83,1.37-12,2.11-3.02-2.73-7.02-3.83-11.7-3.78,5.07-4.78,9.78-9.34,14.64-13.74,2.73-2.47,4.29-5.37,5.1-8.97,1.03-4.58-1.45-11.6-5.75-14.55C495.34,1.48,492.81.74,490.2,0h1429.8c0,61.7,0,123.41-.16,185.21-.32-2.25-.45-4.59-.64-6.93-.57-7.27-2.69-14.12-5.83-20.65-3.76-7.83-9.06-14.5-15.31-20.53-6.3-6.07-13.57-10.71-20.92-15.31-4.99-3.12-10.02-6.2-14.11-10.53-4.79-5.08-3.7-13,3.54-15.19,3.4-1.03,6.83-1.08,10.39-.63,4.94.63,9.46,2.09,13.77,4.61,4.92,2.88,12.34,2.06,14.85-4.23,1.99-4.99,2.63-10.54,3.7-15.88,1.22-6.12,2.15-12.3,3.39-18.42.74-3.67-.64-8.88-4.19-10.72-4.02-2.08-8.26-3.76-12.52-5.29-6.62-2.39-13.59-3.26-20.56-3.4-5.71-.11-11.46.54-17.16,1.12-6.56.67-12.81,2.7-18.79,5.42-7.91,3.6-14.9,8.46-20.67,15.07-4.64,5.3-8.26,11.16-10.93,17.66-2.37,5.79-3.68,11.85-4.44,17.6-2.33-.24-4.55-.66-6.77-.67-10.96-.07-21.93-.03-32.89-.03-.72,0-1.43,0-2.05,0v-8.71c10.59,0,21.15.01,31.71-.02,1.16,0,2.32-.2,3.47-.38,7.55-1.18,10.69-9.23,7.46-15.1-2.37-4.32-5.14-8.53-8.34-12.27-5.84-6.81-12.81-12.31-21.23-15.76-6-2.46-12.26-3.98-18.7-4.36-4.31-.25-8.66.09-12.98.35-6.77.4-13.14,2.45-19.2,5.33-6.84,3.25-12.84,7.76-18.09,13.26-.5.53-1.04,1.02-1.79,1.76,0-3.37.01-6.27-.01-9.18,0-.57-.08-1.17-.23-1.72-1.44-5.13-5.51-7.87-10.86-7.87-33.95-.04-67.89-.03-101.84,0-1.34,0-2.85.06-3.97.67-2.31,1.26-4.4,2.92-6.7,4.5-1.93-3.13-5.16-5.14-9.31-5.16-14.53-.08-29.06-.11-43.59.02-4.58.04-8.93,2.53-10.16,7.66-1.18,4.93-2.22,9.89-3.32,14.84-1.53,6.83-3.1,13.65-4.57,20.49-2.32,10.71-4.57,21.44-6.9,32.39-.3-.49-.57-.73-.62-1.02-.42-2.41-.83-4.83-1.2-7.25-1.4-9.08-4.28-17.72-8.21-25.96-4.33-9.09-10.26-17.01-17.96-23.65-6.84-5.89-14.45-10.26-22.94-13.21-10.13-3.52-20.65-4.71-31.26-5.07-5.97-.2-11.96.18-17.94.35-1.89.05-3.79.14-5.66.41-6.07.87-12.13,1.81-18.18,2.76-6.15.96-9.84,5.49-9.84,11.52.02,54.48.01,108.97.01,163.45,0,6.8-.05,13.6.02,20.41.05,5.27,4.17,9.81,8.77,10.29,3.94.42,7.87.82,11.81,1.18,2.28.21,4.56.32,6.84.44,4.9.26,9.79.57,14.69.72,2.08.06,4.17-.22,6.25-.36,3.9-.26,7.85-.27,11.7-.86,7.17-1.1,14.28-2.51,21.12-5.08,8.47-3.17,16.25-7.46,22.95-13.6,1.81-1.66,3.66-3.27,5.66-5.05-.75,3.55-1.37,6.89-2.16,10.19-1.66,6.96,3.52,13.24,10.35,13.22,11.82-.03,23.64-.05,35.46.01,4.3.02,8.87-2.92,9.97-7.14.65-2.48,1.09-5.02,1.6-7.53.87-4.22,1.76-8.43,2.58-12.66,1-5.15,1.95-10.32,2.9-15.41h16.1c.55,3.3,1.04,6.55,1.63,9.78,1.42,7.85,2.94,15.69,4.32,23.55,1.06,6.05,5.59,9.48,11.15,9.42,10.5-.11,21-.08,31.5,0,4.26.03,8.49.2,11.64-3.31,2.48,2.26,5.11,3.33,8.27,3.31,12.09-.06,24.17-.05,36.26,0,5.83.02,10.59-4.77,10.59-10.55-.02-47.09-.01-94.17-.01-141.26v-2.22h13.59c-1.25,6.25-2.71,12.38-3.66,18.59-1.05,6.85-2.05,13.75-2.3,20.66-.31,8.74.14,17.51.3,26.26.04,2.09.11,4.19.42,6.25.84,5.74,1.74,11.48,2.76,17.19,1.66,9.32,4.35,18.34,8.31,26.94,4.5,9.77,10.01,18.88,18.45,25.8,3.53,2.89,7.23,5.69,11.21,7.88,7.55,4.14,15.75,6.32,24.43,6.45.33,0,.66.25.98.38M1043.81,233.54c-.27,3.08-.54,6.16-.82,9.27h15.04c.29-3.87.6-7.63.83-11.4.3-5.09.55-10.18.8-15.28.27-5.49.57-10.98.78-16.47.19-4.92.28-9.85.41-14.77,0-.25.07-.5.1-.75-.1.04-.2.08-.31.12,4.29,19.01,8.58,38.02,12.88,57.08,4,0,7.76.05,11.51-.06.53-.02,1.35-.72,1.5-1.26.57-1.97.87-4.02,1.35-6.01,3.86-16.08,7.75-32.15,11.31-46.93.11,2.11.31,5.61.49,9.11.27,5.29.53,10.58.79,15.87.27,5.42.56,10.84.79,16.27.18,4.33.31,8.66.38,12.99.02,1.2.43,1.63,1.63,1.62,3.76-.05,7.53-.02,11.29-.02h3.15c-.34-4.37-.69-8.46-.97-12.56-.3-4.3-.54-8.6-.8-12.9-.4-6.78-.79-13.56-1.19-20.34-.25-4.17-.55-8.34-.78-12.51-.42-7.7-.79-15.41-1.21-23.12-.13-2.4-.37-4.79-.56-7.26h-18.39c-4.59,20.51-9.51,41-12.47,61.72-4.4-20.49-8.83-41.12-13.25-61.69h-18.55c-.2,1.27-.47,2.41-.56,3.56-.43,5.59-.81,11.18-1.2,16.78-.4,5.66-.82,11.31-1.18,16.97-.31,4.83-.53,9.66-.81,14.49-.11,2.02-.25,4.04-.4,6.05-.52,7.02-1.05,14.03-1.58,21.42M1209.06,73.91v-20.67h-15.06c0,14.64,0,29.13,0,43.63,0,.13,0,.26,0,.4.33,4.61.66,9.22.99,13.83-.44-.08-.54-.22-.6-.37-1.9-5.3-3.68-10.65-5.71-15.91-5.18-13.44-10.48-26.84-15.73-40.26-.39-.99-.94-1.52-2.18-1.49-4.49.1-8.98.03-13.47.05-.43,0-.87.09-1.21.13v88.54h15.49c-.22-19.36-.44-38.63-.66-57.77.23.76.47,1.67.79,2.56,3.91,10.64,7.77,21.29,11.78,31.89,2.74,7.25,5.68,14.42,8.59,21.6.28.69.95,1.71,1.47,1.72,5.12.13,10.25.08,15.48.08v-67.96M1346.97,127.01V53.23h-15.46c0,.85,0,1.57,0,2.29.13,10.93.24,21.86.41,32.8.05,3.54.25,7.07.38,10.61,0,.2,0,.4.02.59.31,3.98.62,7.97.92,11.95-2.54-6.02-4.65-12.11-6.96-18.12-2.89-7.53-5.94-15-8.9-22.51-2.14-5.42-4.23-10.86-6.39-16.27-.23-.57-.81-1.41-1.25-1.41-5.12-.1-10.25-.06-15.38-.06v88.64h15.34c0-.45,0-.77,0-1.09,0-12.02,0-24.03,0-36.05,0-.33,0-.66-.01-.99-.31-6.45-.62-12.9-.93-19.35,1.9,4.74,3.25,9.61,5.07,14.29,5.47,14.09,11.11,28.11,16.72,42.14.2.49.86,1.12,1.31,1.13,4.99.08,9.98.05,15.09.05v-14.86M1251.07,222.12v20.58c5.12.35,10.06.92,14.99.93,3.61.01,7.25-.53,10.82-1.14,10.17-1.74,17.82-7.06,22.56-16.35,3.61-7.08,5.07-14.75,5.45-22.55.43-8.92.31-17.87-2.29-26.58-1.59-5.32-3.93-10.23-7.84-14.24-6.24-6.41-14.24-8.57-22.83-8.98-3.39-.16-6.81.13-10.21.37-3.53.25-7.04.69-10.64,1.05v66.89M1227.27,223.79c-.52-2.58-.98-5.18-1.57-7.74-1.42-6.18-3.55-11.92-9.79-14.95.07-.1.09-.17.15-.2.32-.21.65-.41.98-.6,4.42-2.59,7.8-6.07,9.91-10.82,2.61-5.86,2.55-11.95,1.46-18-1.03-5.67-4.24-10.13-9.19-13.28-5.39-3.43-11.5-4-17.6-4.37-3.38-.21-6.81.12-10.21.36-3.99.27-7.97.7-11.95,1.06v87.57h17.4v-35.04c6.07-.77,9.25,1.41,10.6,6.96.99,4.05,1.57,8.2,2.42,12.29,1.01,4.9,2.11,9.79,3.17,14.68.21.99.82,1.27,1.82,1.25,2.9-.07,5.81-.02,8.71-.02h7.85c-1.41-6.4-2.77-12.59-4.16-19.13M1247.8,140.66c5.38,2.17,10.94,2.44,16.63,1.62,6.22-.89,11.02-3.83,14.59-9.07,4.52-6.64,5.91-14.19,6.04-21.85.3-18.75.1-37.5.09-56.26,0-.64-.05-1.27-.08-1.88h-17.35v2.29c0,18.36.06,36.71-.05,55.07-.02,3.41-.45,6.89-1.26,10.19-.47,1.9-1.72,4.02-3.27,5.17-4.53,3.36-9.02.17-10.36-3.84-.99-2.95-1.6-6.17-1.63-9.28-.14-19.15-.07-38.3-.07-57.45v-2.18h-17.44v2.24c0,18.03-.11,36.05.07,54.08.05,4.77.62,9.6,1.6,14.27,1.53,7.3,5.24,13.28,12.49,16.88M1137.34,230.51c.56-2.56,1.11-5.13,1.69-7.8h11.33c4.22,0,4.15.01,4.83,4.1.9,5.37,1.93,10.72,2.88,15.96h17.26c-.27-1.27-.52-2.4-.74-3.53-1.23-6.51-2.42-13.03-3.68-19.53-1.52-7.82-3.12-15.63-4.64-23.45-1.25-6.44-2.42-12.9-3.68-19.33-1.38-7.06-2.9-14.1-4.2-21.18-.24-1.31-.66-1.63-1.85-1.61-3.56.05-7.13.02-10.7.02-2.95,0-5.91,0-8.72,0-6.43,29.7-12.82,59.16-19.23,88.77,5.47,0,10.75.03,16.02-.05.46,0,1.24-.59,1.33-1.02.76-3.65,1.41-7.33,2.09-11.35M1336.87,154.15h-26.61v88.62h40.19v-15.33h-22.38v-23.43h19.56v-14.71h-19.58v-19.72h20.8v-15.43h-11.97M1116.93,141.87h32.95v-15.57h-22.36v-23.29h19.6v-14.71h-19.56v-20.26h20.77v-14.83h-38.63v88.66h7.22Z"></path>
    <path class="cls-8" d="M624.51,235.03c.29,4.23-.03,8.32-2.74,11.84-2.79,3.61-6.41,5.9-11.04,5.93-12.88.1-25.76-.04-38.64.06-5.93.05-11.93-4.06-13.73-10.02-2.14-7.1-4.1-14.25-5.94-20.7,0,4.73-.02,10.23,0,15.74.03,8.01-6.68,15.12-14.95,15-11.89-.18-23.78-.04-35.66-.06-1.22,0-2.55.02-3.64-.43-2.11-.88-4.05-.74-6.13.02-1,.36-2.16.42-3.25.42-27.81.02-55.61.02-83.42,0-.96,0-2-.05-2.85-.41-2.65-1.12-5.19-1.29-7.88-.02-1,.47-2.28.43-3.44.43-10.77.03-21.53-.06-32.3.04-7.78.07-14.6-6.6-14.57-14.54.01-3.69-.45-7.39-.93-11.07-1.12,4.26-2.07,8.57-3.4,12.76-1.82,5.7-5.9,9.26-11.84,9.57-9.2.48-18.43.63-27.64.39-6.78-.18-12.58-4.62-14.07-11.92-.68-3.32-1.65-6.58-2.56-10.11-.22.62-.5,1.07-.53,1.54-.17,2.94-.43,5.89-.39,8.83.11,7.91-6.78,14.68-14.74,14.57-10.37-.14-20.74-.05-31.11-.03-6.76.01-13.06-5.1-13.96-12.03-.39-2.99-.07-6.07-.07-9.47-1.02,1.13-1.9,2.01-2.67,2.98-4.99,6.25-11.29,10.88-18.4,14.34-6.44,3.13-13.26,5.22-20.47,5.76-2.08.16-4.16.32-6.32.63-2.06.16-4.05.16-6.3,0-3.2-.32-6.19-.21-9.07-.7-8.26-1.4-16.28-3.59-23.53-8.04-6.04-3.71-11.4-8.18-15.55-13.96-2.24-3.12-4.35-6.34-6.59-9.62-3.01,5.34-7.17,9.8-11.75,13.76-7.57,6.55-16.24,11.19-25.85,14.17-6.52,2.02-13.17,3.36-19.91,3.64-6.59.27-13.23-.25-19.83-.72-7.74-.55-15.24-2.4-22.48-5.16-3.53-1.35-7.03-2.81-9.9-5.51-2.37-2.23-3.35-5.07-4.46-7.92,0-1.73,0-3.45.15-5.43.97-5.28,1.78-10.31,2.63-15.33.91-5.4,1.69-10.83,2.81-16.18,1.83-8.75,11.9-14.09,20.06-10.39,5.07,2.3,10.19,4.22,15.66,5.15,4.86.83,9.75,1.58,14.65.17,1.88-.54,3.4-1.42,3.93-3.56.73-2.93-.14-5.52-2.17-7.37-3.49-3.17-7.25-6.06-11.05-8.87-6.06-4.47-12.63-8.34-18.3-13.26-8.84-7.66-16.12-16.66-20.88-27.57-3.49-8-5.22-16.34-5.41-24.96-.09-4.06.63-8.15,1.12-12.21.86-7.01,3.06-13.66,6.21-19.94,3.59-7.16,8.08-13.73,14.43-18.78,3.63-2.88,7.31-5.77,11.28-8.12,10.55-6.22,22.25-8.76,34.32-9.43,5.19-.29,10.46.29,15.67.73,7.8.67,15.24,2.85,22.41,5.89,3.85-3.86,7.25-5.23,13.53-5.16,10.3.11,20.61.01,30.91.05,1.88,0,3.79.1,5.64.4,6.32,1.02,11.61,7.09,11.62,13.36.02,38.97,0,77.93.03,116.9,0,3.8.19,7.61.41,11.4.1,1.73.43,3.46.78,5.17.34,1.62.84,3.2,1.34,5.09.33-.54.56-.74.59-.96.68-4.86,1.9-9.71,1.92-14.58.15-40.95.06-81.9.18-122.84,0-2.24.93-4.69,2.06-6.68,2.94-5.18,7.75-7.29,13.6-7.28,11.62.01,23.25-.02,34.87.03,1.39,0,2.81.33,4.18.67,3.75.95,6.27,3.64,8.67,6.51,2.91-4.56,7.05-7.08,12.24-7.16,12.94-.18,25.89-.18,38.83,0,6,.08,11.62,3.72,13.44,9.83,1.06,3.56,1.82,7.21,2.65,10.83,1.52,6.63,3.03,13.27,4.49,19.91,1.92,8.73,3.79,17.47,5.68,26.2,1.02-2.69,1.65-5.41,2.25-8.13,1.85-8.34,3.72-16.67,5.55-25.01,1.35-6.15,2.58-12.32,4.01-18.45.59-2.54,1.2-5.17,2.39-7.45,2.9-5.52,7.84-7.79,13.94-7.79,11.95,0,23.91,0,35.86,0,5.92,0,10.58,2.37,13.8,7.51,3.5-5.68,8.72-7.8,15.16-7.53,2.24.09,4.49-.04,6.74.04,1.03.04,1.56-.24,2.07-1.22.92-1.76,2.06-3.41,3.22-5.03,5.5-7.63,10.97-15.29,16.6-22.82,2.27-3.03,3.89-6.74,7.39-8.62,2.25-1.21,4.8-1.85,7.22-2.75,12.82,0,25.64,0,38.65,0,2.79.74,5.33,1.48,7.66,3.09,4.3,2.96,6.78,9.98,5.75,14.55-.81,3.61-2.37,6.5-5.1,8.97-4.86,4.4-9.57,8.96-14.64,13.74,4.69-.05,8.68,1.05,11.7,3.78,4.17-.74,8.07-1.52,12-2.11,4.16-.62,8.34-1.09,12.52-1.57,1.81-.21,3.64-.37,5.46-.41,7.5-.17,15.01-.63,22.5-.33,11.04.45,22.01,1.71,32.46,5.75,7.18,2.78,13.67,6.54,19.34,11.82,5.47,5.09,9.95,10.82,13.15,17.57.29.61.56,1.23.83,1.84,25.72-38.23,75.57-45.67,109.84-30.76,2.34-2.88,5.43-4.63,9.15-5.24.76-.12,1.54-.26,2.31-.26,61.22-.01,122.44-.01,183.66-.01,29.13,0,58.26-.02,87.39.01,8.21,0,14.84,6.66,14.84,14.9,0,10.37-.13,20.74.05,31.1.12,6.74-5.7,14.26-12.84,14.61-4.59.22-9.18.34-13.77.39-5.61.07-11.23.02-16.84.03-.12,0-.24.07-.47.13v11.73h1.96c8.19,0,16.38.07,24.57-.02,8.55-.1,14.93,6.8,14.96,14.95.04,9.58-.06,19.15.03,28.73.08,8.09-4.73,13.95-12.6,15.72-.57.13-1.18.07-1.77.07-8.39,0-16.77,0-25.16,0-.64,0-1.28,0-2.01,0v19.42c.67,0,1.36,0,2.06,0,10.24,0,20.47.08,30.71-.03,6.9-.07,13.69,6.06,13.87,12.95.29,10.93.57,21.87.35,32.79-.16,7.92-4.77,13.02-12.52,14.86-.5.12-1.05.06-1.58.06-28.07,0-56.14.06-84.2-.04-6.71-.02-12.61-5.19-13.73-11.86-.31-1.85-.41-3.76-.41-5.65-.02-43.19-.02-86.38-.02-129.57v-2.53h-10.3v2.2c0,44.45.01,88.89-.01,133.34,0,7.57-6.53,14.08-14.14,14.1-12.22.03-24.44-.06-36.65.03-7.77.06-14.59-6.5-14.59-14.7,0-44.18,0-88.36,0-132.55v-2.57c-5.17,0-10.24.04-15.29-.02-2.01-.02-4.21.22-6-.47-3.57-1.38-7.19-1.05-10.81-1.08-5.87-.05-11.73-.01-17.71-.01v11.89h1.95c8.19,0,16.38.09,24.57-.03,6.33-.1,12.78,4.67,14.17,11.45.25,1.2.39,2.44.4,3.66.03,9.84,0,19.68.02,29.52.02,8.47-6.77,14.81-14.87,14.84-8.71.03-17.41,0-26.23,0v19.42c.73,0,1.44,0,2.14,0,9.97,0,19.95.09,29.92-.03,6.91-.08,13.3,5.34,14.18,12.27.21,1.67.38,3.37.39,5.05.04,9.18.04,18.36,0,27.54-.02,6.09-2.38,11-7.88,13.91-1.86.99-4.1,1.8-6.17,1.81-28.13.12-56.27.11-84.4.04-3.44,0-6.58-1.3-9.01-3.85-.96-1.01-1.76-1.4-3.19-.88-6.67,2.44-13.61,3.66-20.6,4.84-8.84,1.49-17.72,1.87-26.6,1.43-9.81-.48-19.42-2.29-28.56-6.15-7.25-3.06-13.94-6.96-19.77-12.29-.42-.39-.94-.67-1.59-1.18-.31-.24-.44-.3-.58-.36.09.22.18.45.27.67M429.56,50.53s-.03.15-.39.18c-7.4,0-14.79,0-22.19.02-3.86,0-5.6,1.7-5.6,5.49,0,60.3,0,120.6,0,180.9,0,3.79,1.64,5.47,5.37,5.47,27.01,0,54.03,0,81.04,0,3.58,0,5.24-1.64,5.24-5.17,0-9.78,0-19.55,0-29.33,0-4.22-1.5-5.73-5.69-5.73-12.88,0-25.76,0-38.64,0h-2.33v-39.82c.82,0,1.52,0,2.23,0,11.16,0,22.32,0,33.49,0,3.8,0,5.62-1.79,5.63-5.54.02-9.31.02-18.63,0-27.94,0-3.7-1.8-5.47-5.45-5.47-11.23,0-22.46,0-33.68,0h-2.2v-32.52c.84,0,1.56,0,2.27,0,11.95,0,23.91,0,35.86,0,3.85,0,5.58-1.71,5.58-5.53,0-9.71,0-19.42,0-29.13,0-3.98-1.69-5.68-5.63-5.68-9.31-.01-18.62-.03-27.97-.2,0,0,.04-.15.31-.2.88-.55,1.88-.98,2.63-1.67,10.71-9.88,21.38-19.79,32.06-29.7,1.81-1.68,2.29-3.49,1.53-5.49-.77-2.02-2.34-3.06-4.81-3.07-11.74-.01-23.48,0-35.22-.01-1.85,0-3.31.66-4.41,2.17-7.27,10.03-14.57,20.04-21.82,30.09-2.29,3.17-1.04,6.52,2.77,7.88M606.19,124.2c.08.24.17.48.21,1.05-.17,1.24-.35,2.48-.5,3.73-1.58,12.75-1.78,25.52-.42,38.31,1.53,14.28,4.93,28.05,11.79,40.77,9.82,18.2,24.6,30,45.02,34.31,11.62,2.45,23.33,2.39,35.05.79,7.85-1.07,15.59-2.64,23.07-5.34,2.65-.96,3.91-2.75,3.91-5.51,0-1.45,0-2.91,0-4.36,0-30.18,0-60.36,0-90.53,0-5.11-1.46-6.55-6.61-6.55-15.45,0-30.9,0-46.36,0-3.85,0-5.59,1.72-5.59,5.53,0,9.11,0,18.23,0,27.34,0,3.81,1.74,5.53,5.57,5.54,3.61,0,7.22,0,10.92,0v35.29c-.49.06-.94.15-1.38.16-7.78.21-13.9-3.04-18.65-9.05-3.96-5-6.31-10.79-7.93-16.88-3.1-11.65-3.73-23.53-3.23-35.52.42-10.14,1.77-20.11,5.59-29.59,4.61-11.43,12.17-19.76,24.72-22.3,9.13-1.85,18.11-.96,26.78,2.58,3.66,1.5,6.45.01,7.19-3.82,1.73-8.93,3.46-17.86,5.21-26.79,1.31-6.69.9-7.61-5.61-9.89-12.7-4.44-25.78-5.33-39.04-3.59-20.71,2.72-37.7,12.17-50.61,28.67-8.26,10.57-13.36,22.65-16.85,35.6-.07,0-.15-.01-.2-.38.73-6.39.53-12.77-.31-19.14-1.8-13.7-8.05-24.84-19.21-33.08-9.15-6.76-19.75-9.62-30.82-10.75-18.82-1.93-37.55-.76-56.15,2.61-3.34.61-4.57,2.07-4.57,5.37,0,59.5,0,118.99,0,178.49,0,3.65,1.69,5.32,5.32,5.32,11.23,0,22.45,0,33.68,0,4.41,0,5.93-1.53,5.93-5.96,0-21.53,0-43.05,0-64.58v-2.11c5.98-.39,9.56,1.53,11.86,6.79,1.36,3.12,2.5,6.42,3.12,9.75,2.03,10.95,3.56,22,5.7,32.93,1.3,6.64,3.29,13.15,5.1,19.68.64,2.32,2.33,3.53,4.88,3.52,12.22-.04,24.43,0,36.65-.02,3.74,0,5.82-3.14,4.48-6.68-.44-1.17-.94-2.33-1.31-3.52-4.48-14.45-7.13-29.31-9.83-44.16-1.39-7.67-3.17-15.22-6.54-22.31-2.61-5.48-6.15-10.22-11.11-14.04,10.22-6.99,17.16-16.18,21.06-27.67M966.69,122.1v-31.04h2.36c11.95,0,23.91,0,35.86,0,3.98,0,5.67-1.68,5.68-5.63,0-9.58,0-19.15,0-28.73,0-4.4-1.56-5.98-5.93-5.98-25.56,0-51.12.01-76.68-.03-2.05,0-3.91.23-5.36,2-1.43-1.82-3.28-2-5.26-2-53.07.02-106.14.02-159.21.02-7.33,0-14.66,0-21.99,0-3.94,0-5.71,1.74-5.71,5.62,0,60.23,0,120.47,0,180.7,0,3.83,1.72,5.53,5.55,5.53,26.88,0,53.76,0,80.64,0,3.9,0,5.56-1.64,5.56-5.5,0-9.71,0-19.42,0-29.13,0-3.98-1.64-5.61-5.66-5.61-12.95,0-25.89,0-38.84,0-.71,0-1.41,0-2.17,0v-39.82c.8,0,1.51,0,2.21,0,11.23,0,22.46.01,33.68,0,3.56,0,5.36-1.82,5.37-5.36.01-9.38.01-18.76,0-28.14,0-3.74-1.71-5.45-5.42-5.45-11.23,0-22.46,0-33.68,0-.7,0-1.41,0-2.11,0v-32.52c12.82,0,25.49,0,38.17.02.47,0,.94.34,1.42.5,1.33.44,2.66,1.22,4,1.24,8.19.12,16.38.06,24.57.06h2.26c0,1.05,0,1.83,0,2.61,0,46.96,0,93.92,0,140.88,0,4.81,1.42,6.22,6.26,6.22,10.9,0,21.8,0,32.69,0,4.51,0,5.94-1.41,5.94-5.87,0-47.09,0-94.18,0-141.27,0-.77,0-1.55,0-2.56h2.31c8.06,0,16.12.02,24.17-.02,1.42,0,2.84-.28,4.36-.43v2.15c0,47.36,0,94.71,0,142.07,0,4.35,1.61,5.94,5.97,5.94,26.75,0,53.5,0,80.25,0,3.95,0,5.63-1.68,5.63-5.67,0-9.64,0-19.29,0-28.93,0-3.96-1.7-5.63-5.68-5.63-12.95,0-25.89,0-38.84,0-.76,0-1.52,0-2.27,0v-39.82h2.28c11.23,0,22.46.01,33.68,0,3.57,0,5.36-1.82,5.36-5.35,0-9.25,0-18.49,0-27.74,0-4.3-1.55-5.86-5.81-5.86-11.23,0-22.46,0-33.68-.02-.79,0-2.02.52-1.97-1.47M12.37,107.93c.18,7.62,1.87,14.89,5.14,21.78,5.95,12.54,15.45,21.89,26.75,29.6,5.01,3.42,10.12,6.7,15.04,10.26,3.86,2.79,7.5,5.96,9.41,10.49,3.54,8.42,2.19,20.01-11,23.04-2.23.51-4.57.81-6.86.8-9.88-.07-19.38-1.95-28.31-6.35-3.29-1.62-6.49-.11-7.1,3.39-1.74,10.07-3.43,20.15-5.11,30.24-.42,2.5.46,4.16,2.72,5.41.81.45,1.64.84,2.49,1.21,7.27,3.12,14.92,4.82,22.74,5.75,13.42,1.59,26.65.9,39.34-4.14,19.29-7.67,31.57-21.47,35.81-42.01.67-3.23.97-6.53,1.45-9.8.1.02.2.03.21.05.09.38.19.76.24,1.14,1.05,7.86,2.63,15.6,5.56,23,5.45,13.77,14.42,24.15,28.63,29.36,9.99,3.67,20.33,4.34,30.82,3.18,7.29-.81,14.21-2.9,20.53-6.69,12.2-7.32,19.21-18.52,23.47-31.71,4-12.38,5.16-25.16,5.18-38.08.03-37.18.02-74.36,0-111.55,0-3.82-1.79-5.57-5.58-5.57-11.16,0-22.32,0-33.48,0-4.26,0-5.82,1.57-5.82,5.84,0,38.24.01,76.48-.02,114.72,0,4.09-.1,8.19-.42,12.26-.42,5.27-1.12,10.51-3.65,15.28-3.71,6.98-12.25,7.41-16.51.74-1.19-1.86-2.03-4-2.7-6.11-1.94-6.17-2.22-12.59-2.23-18.99-.06-39.36-.03-78.72-.03-118.08,0-4.04-1.6-5.65-5.63-5.66-11.1,0-22.19,0-33.29,0-4.33,0-6.02,1.66-6.02,5.95,0,37.64,0,75.29,0,112.93,0,1.44,0,2.87,0,4.45-.16-.24-.27-.34-.29-.45-2.32-13.68-9.09-24.86-19.1-34.26-6.16-5.79-13.35-10.08-20.42-14.58-5.12-3.26-10.3-6.51-14.18-11.31-6.9-8.53-3.2-20.4,7.41-23.05,9.52-2.38,18.58-.49,27.06,4.32,3.63,2.05,6.94.56,7.69-3.5,1.67-8.94,3.34-17.89,5.02-26.83,1.19-6.38.67-7.37-5.3-9.94-.12-.05-.24-.1-.37-.15-13.89-5.5-28.18-6.51-42.77-3.72-12.81,2.45-23.99,8.02-32.66,17.96-9.74,11.16-13.68,24.44-13.85,39.4M387.08,95.85c-.23-3.62-.48-7.24-.7-10.86-.59-9.61-1.11-19.23-1.78-28.83-.29-4.18-1.79-5.43-5.92-5.43-11.69,0-23.38,0-35.07,0-3.85,0-5.19,1.09-6.01,4.84-1.88,8.56-3.85,17.11-5.65,25.68-5.05,24-10.05,48-15.06,72.01-.35,1.66-.66,3.32-1.08,5.42-4.56-21.02-8.99-41.51-13.46-61.99-3.04-13.91-6.14-27.81-9.23-41.71-.62-2.81-2.26-4.24-4.91-4.24-12.42-.02-24.83-.02-37.25,0-2.92,0-4.7,1.67-4.91,4.58-.94,12.69-1.86,25.39-2.76,38.09-.85,11.84-1.66,23.69-2.5,35.53-1.13,15.79-2.26,31.58-3.4,47.37-.75,10.46-1.52,20.92-2.27,31.38-.7,9.74-1.41,19.47-2.06,29.22-.25,3.78,1.6,5.68,5.35,5.68,9.71,0,19.42,0,29.13,0,3.45,0,5.09-1.54,5.27-5.01.99-18.84,1.98-37.67,2.94-56.51.45-8.86.86-17.72,1.29-26.59.4.52.57,1.07.7,1.62,6.2,26.44,12.4,52.88,18.61,79.31.73,3.11,2.24,4.24,5.49,4.25,7.79,0,15.59,0,23.38,0,3.3,0,4.83-1.21,5.61-4.4,5.49-22.48,10.99-44.95,16.47-67.43.93-3.81,1.82-7.63,2.73-11.44.9,11.61,1.54,23.18,2.15,34.75.81,15.48,1.58,30.96,2.38,46.44.18,3.47,1.82,5,5.28,5,10.17,0,20.34,0,30.51,0,3.68,0,5.49-1.89,5.28-5.53-.24-4.28-.51-8.56-.77-12.84-1.47-24.03-2.95-48.06-4.4-72.09-1.13-18.63-2.23-37.27-3.35-56.27M708.03,104.62c-3.93-1.13-7.79-2.7-11.79-3.27-4.07-.58-8.37-.72-12.41-.08-5.32.84-9.84,3.6-13.16,8.12-2.73,3.72-4.71,7.74-5.87,11.97,2.24-.3,4.39-.84,6.55-.85,15.51-.07,31.03-.04,46.54-.04h2.05v-18.77c-3.61,2.52-7.35,3.68-11.9,2.92M93.77,105.42c-1.08-.39-2.27-.6-3.21-1.2-5.33-3.36-11.13-4.82-17.39-4.32-1.56.13-3.15.58-4.6,1.2-1.63.69-2,2.29-1.43,3.81.46,1.23,1.18,2.58,2.18,3.36,4.14,3.18,8.3,6.34,12.69,9.15,6.03,3.86,12.14,7.58,17.49,12.4,1.36,1.22,2.78,2.38,4.24,3.62v-28.68c-3.21,1.1-6.38,1.5-9.98.66M487.03,189.2v-16.51h-30.39v19.38h30.39v-2.87M456.56,113.02c.62.1,1.24.29,1.87.3,5.28.02,10.57.01,15.85.01h12.62v-11.73h-30.37c0,3.78,0,7.41.04,11.42M670.49,189.28c.45.55.89,1.11,1.46,1.8v-11.33c-2.39-.31-4.61-.59-7.51-.97,2.09,3.65,3.99,6.95,6.05,10.5Z"></path>
    <path class="cls-30" d="M1745.42,255.21c-.51-.13-.84-.37-1.17-.38-8.68-.13-16.88-2.31-24.43-6.45-3.98-2.18-7.69-4.98-11.21-7.88-8.44-6.92-13.95-16.03-18.45-25.8-3.96-8.6-6.65-17.63-8.31-26.94-1.02-5.71-1.91-11.45-2.76-17.19-.3-2.06-.38-4.16-.42-6.25-.17-8.75-.62-17.52-.3-26.26.25-6.91,1.26-13.81,2.3-20.66.95-6.21,2.4-12.34,3.66-18.59h-13.59v2.22c0,47.09,0,94.17.01,141.26,0,5.78-4.76,10.57-10.59,10.55-12.09-.05-24.17-.05-36.26,0-3.16.01-5.79-1.05-8.27-3.31-3.14,3.51-7.37,3.34-11.64,3.31-10.5-.07-21-.1-31.5,0-5.56.06-10.09-3.37-11.15-9.42-1.38-7.86-2.9-15.69-4.32-23.55-.59-3.23-1.08-6.47-1.63-9.78h-16.1c-.96,5.09-1.9,10.25-2.9,15.41-.82,4.23-1.71,8.44-2.58,12.66-.52,2.52-.95,5.05-1.6,7.53-1.1,4.22-5.67,7.16-9.97,7.14-11.82-.07-23.64-.05-35.46-.01-6.83.02-12.01-6.26-10.35-13.22.79-3.3,1.41-6.64,2.16-10.19-2,1.78-3.85,3.39-5.66,5.05-6.7,6.14-14.48,10.42-22.95,13.6-6.84,2.56-13.95,3.98-21.12,5.08-3.85.59-7.8.6-11.7.86-2.08.14-4.17.43-6.25.36-4.9-.15-9.79-.46-14.69-.72-2.28-.12-4.57-.24-6.84-.44-3.94-.36-7.88-.76-11.81-1.18-4.59-.49-8.72-5.02-8.77-10.29-.06-6.8-.02-13.6-.02-20.41,0-54.48,0-108.97-.01-163.45,0-6.02,3.69-10.55,9.84-11.52,6.06-.95,12.12-1.89,18.18-2.76,1.87-.27,3.77-.36,5.66-.41,5.98-.17,11.97-.55,17.94-.35,10.61.36,21.13,1.55,31.26,5.07,8.49,2.95,16.1,7.32,22.94,13.21,7.7,6.64,13.64,14.56,17.96,23.65,3.92,8.25,6.8,16.89,8.21,25.96.37,2.42.78,4.84,1.2,7.25.05.28.31.53.62,1.02,2.33-10.96,4.58-21.68,6.9-32.39,1.48-6.84,3.05-13.66,4.57-20.49,1.1-4.95,2.14-9.91,3.32-14.84,1.23-5.13,5.59-7.62,10.16-7.66,14.53-.13,29.06-.09,43.59-.02,4.15.02,7.38,2.03,9.31,5.16,2.3-1.58,4.4-3.24,6.7-4.5,1.11-.61,2.63-.67,3.97-.67,33.94-.03,67.89-.05,101.84,0,5.36,0,9.42,2.75,10.86,7.87.15.55.23,1.14.23,1.72.02,2.91.01,5.81.01,9.18.75-.74,1.28-1.23,1.79-1.76,5.24-5.49,11.24-10,18.09-13.26,6.06-2.88,12.44-4.93,19.2-5.33,4.32-.26,8.68-.6,12.98-.35,6.44.38,12.7,1.89,18.7,4.36,8.41,3.46,15.39,8.95,21.23,15.76,3.2,3.74,5.96,7.95,8.34,12.27,3.23,5.87.09,13.92-7.46,15.1-1.15.18-2.31.37-3.47.38-10.56.03-21.12.02-31.71.02v8.71c.61,0,1.33,0,2.05,0,10.96,0,21.93-.04,32.89.03,2.22.01,4.43.43,6.77.67.76-5.75,2.06-11.81,4.44-17.6,2.66-6.5,6.29-12.36,10.93-17.66,5.78-6.6,12.77-11.47,20.67-15.07,5.98-2.72,12.23-4.75,18.79-5.42,5.7-.58,11.45-1.23,17.16-1.12,6.96.13,13.94,1.01,20.56,3.4,4.26,1.54,8.51,3.22,12.52,5.29,3.54,1.83,4.93,7.04,4.19,10.72-1.24,6.12-2.17,12.3-3.39,18.42-1.06,5.34-1.7,10.89-3.7,15.88-2.51,6.29-9.93,7.11-14.85,4.23-4.31-2.52-8.83-3.98-13.77-4.61-3.56-.45-6.99-.4-10.39.63-7.24,2.19-8.33,10.11-3.54,15.19,4.09,4.33,9.12,7.42,14.11,10.53,7.35,4.59,14.63,9.23,20.92,15.31,6.25,6.03,11.55,12.7,15.31,20.53,3.14,6.54,5.26,13.38,5.83,20.65.19,2.34.32,4.69.64,7.11.16,1.01.16,1.95,0,3.14-.15,8.09-1.53,15.67-4.21,23.03-2.91,7.98-7.25,15.1-13.09,21.25-6.32,6.65-13.75,11.68-22.21,15.3-9.01,3.86-18.41,5.85-28.13,6.25-4.58.19-9.19-.1-13.78-.38-3.62-.22-7.28-.48-10.81-1.24-6.82-1.47-13.62-3.12-19.96-6.23-5.44-2.68-7.65-6.78-6.85-12.42.71-5.03,1.8-10.01,2.67-15.02.96-5.59,1.68-11.22,2.84-16.77,1.5-7.17,9.33-9.88,15.01-7.12,10.13,4.91,20.75,7.17,31.97,5.67,3.28-.44,6.34-1.77,8.04-5.03,2.48-4.74,1.29-11.15-3.04-15.05-4.01-3.62-8.5-6.74-12.86-9.96-5.81-4.28-11.99-8.1-17.48-12.76-6.41-5.44-11.92-11.82-16.21-19.18-2.71-4.66-4.94-9.5-6.51-14.77-2.54,2.29-5.53,2.79-8.85,2.75-10.89-.13-21.79-.05-32.69-.05-.71,0-1.43,0-2,0v8.71c11.15,0,22.24-.02,33.33.02,1.62,0,3.25.16,4.85.39,4.89.72,8.55,5.52,8.38,9.71-.12,2.97-.11,5.95,0,8.91.19,5.16-5.39,9.98-9.98,9.94-11.56-.11-23.11-.04-34.67-.04h-1.91v8.71h2.05c11.42,0,22.85-.04,34.27.02,4.09.02,7.23,1.94,9,5.66.69,1.46,1.06,3.17,1.17,4.79.19,2.69-.03,5.41.07,8.12.21,5.38-4.53,10.29-10.39,10.32-10.57.06-21.13.02-31.7.02h-4.47v8.71h1.94c9.44,0,18.89.02,28.33,0,4.05-.01,7.25,1.75,9.06,5.19,1.94,3.7,2.18,7.72-.45,11.38-1.74,2.41-3.6,4.73-5.45,7.06-4.63,5.84-10.49,10.19-17.03,13.62-8.11,4.26-16.73,6.67-25.94,6.77-.33,0-.66.25-.98.38h-5.76M1726.48,182.94c-.04-.13-.11-.23-.34-.56-.27-.36-.48-.98-.81-1.05-1.37-.3-2.77-.53-4.17-.6-2.56-.14-4.75-1.64-4.79-3.75-.1-5.41-.1-10.83,0-16.24.04-2.11,1.61-3.37,3.76-3.41.86-.02,1.72.05,2.57-.01,1.92-.14,3.83-1.32,3.57-3.65-.27-2.41-.06-4.88-.06-7.32,0-2.03-1.16-3.25-3.2-3.33-.86-.04-1.72,0-2.57,0-2.43-.03-4.08-1.52-4.11-3.95-.06-5.28-.1-10.57.09-15.84.04-.98.98-2.4,1.86-2.78,1.43-.61,3.16-.61,4.77-.73,2.1-.16,3.19-1.26,3.17-3.32-.02-2.64-.06-5.28.02-7.92.05-1.51-.57-2.43-2-2.68-1.34-.23-2.7-.29-4.06-.36-2.37-.12-3.81-1.4-3.84-3.77-.07-5.21-.06-10.43,0-15.65.02-1.97,1.07-3.26,3.45-3.6,24.64,0,49.28.02,73.92.01.5,0,1-.19,1.79-.33,2.54-1.1,3.4-3.01,1.96-5.28-2.14-3.38-4.45-6.67-6.9-9.84-5.77-7.48-13.36-12.41-22.25-15.43-8.01-2.72-16.29-3.12-24.59-2.28-12.3,1.24-22.68,6.75-31.47,15.28-4.77,4.63-8.59,10.03-11.8,15.85-10.18,18.42-13.96,38.54-14.95,59.22-.71,14.91.24,29.81,3.04,44.53,2.54,13.37,6.46,26.25,13.87,37.82,10.13,15.82,24.31,25.01,43.38,25.75,20.39.79,36.66-6.89,48.25-23.93,1.62-2.38,1.24-4.05-1.28-5.66-.13,0-.26,0-.75-.05-23.77,0-47.54.02-71.52-.06-.08,0-.15.01-.53-.03-2.48-.37-3.6-1.52-3.62-3.98-.05-5.07-.05-10.14,0-15.21.02-2.42,1.54-3.79,4.02-3.8.66,0,1.32.04,1.97,0,1.68-.13,3.19-.6,4.06-2.46.09-.11.1-.22.13-.7-.02-2.89-.05-5.79-.03-8.87M1693.62,77.8c2.44-3.25,3.72-6.76,3.35-10.98-.34-3.87-.06-7.79-.08-11.68,0-2.93-1.15-4.08-4.06-4.08-33.88,0-67.76,0-101.63,0-3.03,0-4.13,1.11-4.13,4.2,0,10.63,0,21.26,0,31.9,0,3.21,1.08,4.29,4.26,4.29,8.92,0,17.83,0,26.75,0,.69,0,1.38.06,2.19.1v2.57c0,48.74,0,97.47,0,146.21,0,.66-.03,1.32.02,1.98.13,1.9,1.26,3.11,3.14,3.11,12.28.03,24.57.02,36.85,0,1.67,0,2.74-.89,3.04-2.55.16-.9.2-1.83.2-2.75,0-48.67,0-97.34,0-146.01v-2.67h20.78q3.38,0,4.52-3.53c1.55-3.31,3.1-6.62,4.79-10.12M1911.52,175.57c-2.06-11.12-7.06-20.78-14.6-29.16-6.29-7-13.91-12.26-21.81-17.27-5.55-3.52-10.97-7.35-16.03-11.55-5.69-4.71-7.54-11.16-5.49-18.24,1.96-6.76,7.27-10.03,13.92-11.03,9.38-1.41,18.24.37,26.49,5.09,2.94,1.69,5.2.64,5.8-2.66.6-3.31,1.22-6.61,1.83-9.92,1.22-6.55,2.46-13.09,3.66-19.64.56-3.04.08-4.03-2.65-5.4-1.41-.71-2.86-1.36-4.35-1.89-14.69-5.33-29.65-5.86-44.8-2.38-29.96,6.88-48.71,36.58-42.17,66.68,3.11,14.28,10.96,25.66,22.01,34.78,6.24,5.15,13.18,9.44,19.81,14.11,5.03,3.54,10.09,7.05,13.52,12.32,6.83,10.51,2.86,23.74-8.32,27.64-1.97.69-4.08,1.16-6.16,1.34-11.63.98-22.69-1.28-33.23-6.2-3.16-1.48-5.12-.6-5.71,2.82-1.69,9.75-3.34,19.5-4.98,29.26-.6,3.61-.23,4.47,3.28,5.9,19.33,7.87,39.16,9.56,59.24,3.6,18.05-5.35,31.11-16.69,37.89-34.54,4.1-10.79,4.7-21.98,2.83-33.67M1500.19,164.49c-.69,3.15-1.38,6.31-2.07,9.46-4.81,22.16-9.62,44.32-14.42,66.48-.78,3.58.45,5.01,4.16,5.01,11.16,0,22.32,0,33.48,0,2.89,0,3.78-.73,4.32-3.5,1.76-9.06,3.5-18.12,5.26-27.18.79-4.05,1.61-8.09,2.42-12.15h27.99c.14.55.29,1.05.39,1.56,2.28,12.59,4.56,25.17,6.84,37.76.5,2.76,1.42,3.51,4.3,3.51,11.36,0,22.72,0,34.08,0,3.32,0,4.57-1.45,3.93-4.76-4.39-22.65-8.81-45.3-13.22-67.95-3.78-19.41-7.54-38.83-11.31-58.24-3.89-20-7.77-39.99-11.67-59.98-.53-2.71-1.46-3.45-4.17-3.45-14.13,0-28.26,0-42.4,0-2.61,0-3.5.74-4.06,3.32-4.21,19.32-8.42,38.64-12.6,57.97-3.74,17.26-7.45,34.54-11.25,52.13M1485.91,87.96c-9.11-18.43-23.54-30.27-43.6-35.08-9.62-2.31-19.41-2.8-29.27-2.64-10.97.18-21.86,1.02-32.62,3.25-3.67.76-4.16,1.38-4.16,5.19,0,31.3,0,62.59,0,93.89,0,29.32,0,58.63,0,87.95,0,3.31.65,4.16,3.85,4.5,4.46.48,8.93.89,13.4,1.24,14.12,1.09,28.21,1.13,42.16-1.76,22.16-4.6,38.73-16.59,48.94-37.01,6.46-12.92,9.52-26.77,10.96-41.02,1.51-14.88,1.41-29.78-.37-44.64-1.4-11.64-4.07-22.96-9.27-33.88M1612.88,143.65v-44.86h-22.14c7.31,37.62,14.6,75.12,21.89,112.62.08-.01.17-.02.25-.03v-67.73M1800.65,144.66c-1.05-.55-2.1-1.59-3.15-1.59-22.05-.09-44.11-.08-66.16-.06-2.32,0-3.53,1.22-3.58,3.53-.04,2.05-.01,4.09,0,6.14,0,3.6.97,4.57,4.58,4.57,21.39,0,42.79,0,64.18,0,.46,0,.93.04,1.39-.01,1.71-.19,3.02-1.12,3.08-2.82.11-3.14-.11-6.3-.32-9.75M1786.65,119.68c3.5,0,7,0,10.49,0,2.64,0,3.89-1.2,3.96-3.82.05-1.98.02-3.96,0-5.94-.01-3.36-1.16-4.5-4.52-4.5-12.87,0-25.74,0-38.61,0-8.78,0-17.56-.01-26.33,0-2.66,0-3.87,1.23-3.9,3.86-.02,2.05,0,4.09,0,6.14,0,3.21,1.05,4.27,4.26,4.27,18.08,0,36.17,0,54.65,0M1736.72,194.72c20.06,0,40.11,0,60.17,0,3.04,0,4.19-1.14,4.22-4.16.02-1.91.02-3.83,0-5.74-.03-3.2-1.09-4.26-4.29-4.26-10.16,0-20.32,0-30.48,0-11.55,0-23.09,0-34.64,0-2.86,0-3.94,1.08-3.96,3.93-.02,2.24-.04,4.49,0,6.73.04,2.23,1.21,3.41,3.42,3.48,1.71.06,3.43.01,5.54.01M1720.15,212.71c5.43,5.24,11.72,3.92,16.15-3.37,2.48,5.11,6.54,7.32,11.38,6.19,4.15-.96,7.13-4.89,7.07-9.34-.06-4.45-3.18-8.15-7.65-9.07-4.52-.93-8.57,1.46-10.8,6.42-.19-.32-.37-.59-.51-.88-2.76-5.43-8.73-7.32-13.62-4.3-4.87,3.01-5.84,9.2-2.02,14.33M1719.95,162.78c-3.51,4.64-2.76,10.59,1.75,13.77,2.08,1.47,4.4,2.03,6.93,1.6,3.78-.64,6.14-3.01,7.64-6.51,2.21,5,6.17,7.35,10.68,6.48,4.44-.85,7.62-4.41,7.8-8.72.19-4.54-2.68-8.55-6.92-9.65-4.83-1.25-8.73.81-11.56,6.11-4.33-7.29-10.64-8.59-16.32-3.1M1726.15,140.69c4.95.33,8.16-2.12,10.14-6.59,2.23,5.04,6.32,7.42,10.9,6.47,4.33-.89,7.46-4.6,7.56-8.95.1-4.54-2.84-8.42-7.17-9.46-4.68-1.12-8.75,1.11-11.31,6.27-.34-.63-.63-1.22-.95-1.78-2.19-3.78-6.58-5.57-10.7-4.39-4.25,1.22-6.97,4.89-6.86,9.28.11,4.64,3,7.92,8.4,9.14M1754.22,97.02c1.19-4.48.11-8.21-3.09-10.66-5.18-3.97-11.87-1.92-14.83,4.53-3.12-5.36-6.67-7.35-11.22-6.28-4.17.98-7.05,4.33-7.31,8.52-.27,4.24,2.09,8.02,6.03,9.48,2.52.93,5.22,1.04,7.45-.44,2.03-1.35,3.62-3.34,5.3-4.94,1.5,3.56,4.36,5.91,8.74,5.92,4.18.02,7.12-2.01,8.93-6.14Z"></path>
    <path class="cls-5" d="M1751.37,255.21c.14-.13.47-.37.8-.38,9.21-.1,17.83-2.51,25.94-6.77,6.54-3.44,12.4-7.78,17.03-13.62,1.85-2.33,3.71-4.65,5.45-7.06,2.63-3.66,2.39-7.67.45-11.38-1.8-3.45-5.01-5.2-9.06-5.19-9.44.03-18.89,0-28.33,0h-1.94v-8.71h4.47c10.57,0,21.13.05,31.7-.02,5.86-.04,10.59-4.95,10.39-10.32-.1-2.7.12-5.42-.07-8.12-.11-1.62-.48-3.33-1.17-4.79-1.77-3.72-4.91-5.64-9-5.66-11.42-.06-22.85-.02-34.27-.02h-2.05v-8.71h1.91c11.56,0,23.11-.07,34.67.04,4.59.04,10.17-4.78,9.98-9.94-.11-2.97-.11-5.95,0-8.91.17-4.19-3.49-8.99-8.38-9.71-1.6-.23-3.23-.39-4.85-.39-11.09-.03-22.18-.02-33.33-.02v-8.71c.57,0,1.29,0,2,0,10.9,0,21.79-.08,32.69.05,3.32.04,6.31-.46,8.85-2.75,1.57,5.27,3.8,10.11,6.51,14.77,4.28,7.35,9.8,13.73,16.21,19.18,5.48,4.66,11.67,8.47,17.48,12.76,4.37,3.22,8.85,6.33,12.86,9.96,4.33,3.91,5.51,10.31,3.04,15.05-1.7,3.26-4.77,4.59-8.04,5.03-11.22,1.5-21.84-.76-31.97-5.67-5.68-2.76-13.51-.05-15.01,7.12-1.16,5.54-1.87,11.18-2.84,16.77-.86,5.01-1.95,9.99-2.67,15.02-.8,5.64,1.41,9.75,6.85,12.42,6.34,3.12,13.13,4.77,19.96,6.23,3.53.76,7.19,1.01,10.81,1.24,4.58.28,9.2.56,13.78.38,9.72-.4,19.12-2.39,28.13-6.25,8.45-3.62,15.89-8.65,22.21-15.3,5.84-6.16,10.18-13.27,13.09-21.25,2.68-7.36,4.06-14.94,4.21-22.85.16,22.1.16,44.28.16,66.5h-168.63Z"></path>
    <path class="cls-23" d="M1043.81,233.35c.53-7.2,1.06-14.22,1.58-21.24.15-2.02.28-4.04.4-6.05.27-4.83.5-9.66.81-14.49.36-5.66.78-11.32,1.18-16.97.39-5.59.78-11.19,1.2-16.78.09-1.15.36-2.29.56-3.56h18.55c4.42,20.57,8.85,41.2,13.25,61.69,2.95-20.72,7.87-41.21,12.47-61.72h18.39c.19,2.48.43,4.87.56,7.26.42,7.7.79,15.41,1.21,23.12.23,4.17.53,8.34.78,12.51.41,6.78.79,13.56,1.19,20.34.26,4.3.5,8.6.8,12.9.28,4.09.63,8.18.97,12.56h-3.15c-3.76,0-7.53-.03-11.29.02-1.2.02-1.61-.42-1.63-1.62-.07-4.33-.2-8.66-.38-12.99-.22-5.42-.52-10.85-.79-16.27-.26-5.29-.52-10.58-.79-15.87-.18-3.5-.37-7-.49-9.11-3.56,14.77-7.45,30.85-11.31,46.93-.48,2-.78,4.04-1.35,6.01-.15.54-.97,1.24-1.5,1.26-3.75.11-7.51.06-11.51.06-4.3-19.05-8.59-38.06-12.88-57.08.1-.04.2-.08.31-.12-.03.25-.09.5-.1.75-.14,4.92-.22,9.85-.41,14.77-.21,5.49-.51,10.98-.78,16.47-.25,5.09-.5,10.19-.8,15.28-.23,3.77-.54,7.53-.83,11.4h-15.04c.27-3.11.55-6.19.82-9.46Z"></path>
    <path class="cls-23" d="M1209.06,74.11v67.76c-5.24,0-10.36.05-15.48-.08-.51-.01-1.19-1.04-1.47-1.72-2.91-7.18-5.85-14.35-8.59-21.6-4.01-10.6-7.87-21.26-11.78-31.89-.32-.88-.56-1.8-.79-2.56.22,19.14.44,38.41.66,57.77h-15.49V53.24c.34-.04.77-.13,1.21-.13,4.49-.01,8.98.05,13.47-.05,1.24-.03,1.79.51,2.18,1.49,5.25,13.42,10.54,26.82,15.73,40.26,2.03,5.26,3.81,10.6,5.71,15.91.05.15.16.29.6.37-.33-4.61-.66-9.22-.99-13.83,0-.13,0-.26,0-.4,0-14.5,0-28.99,0-43.63h15.06v20.86Z"></path>
    <path class="cls-23" d="M1346.97,127.21v14.66c-5.1,0-10.09.03-15.09-.05-.45,0-1.12-.64-1.31-1.13-5.62-14.03-11.26-28.05-16.72-42.14-1.82-4.68-3.17-9.55-5.07-14.29.31,6.45.62,12.9.93,19.35.02.33.01.66.01.99,0,12.02,0,24.03,0,36.05,0,.32,0,.64,0,1.09h-15.34V53.11c5.13,0,10.25-.04,15.38.06.43,0,1.02.85,1.25,1.41,2.16,5.41,4.25,10.85,6.39,16.27,2.96,7.5,6.02,14.97,8.9,22.51,2.3,6.01,4.42,12.1,6.96,18.12-.31-3.98-.62-7.97-.92-11.95-.02-.2-.02-.4-.02-.59-.13-3.54-.33-7.07-.38-10.61-.17-10.93-.28-21.86-.41-32.8,0-.72,0-1.44,0-2.29h15.46v73.97Z"></path>
    <path class="cls-23" d="M1251.07,221.92v-66.69c3.59-.36,7.11-.8,10.64-1.05,3.4-.24,6.82-.53,10.21-.37,8.59.41,16.59,2.57,22.83,8.98,3.91,4.01,6.25,8.92,7.84,14.24,2.6,8.7,2.73,17.65,2.29,26.58-.38,7.8-1.83,15.47-5.45,22.55-4.74,9.28-12.39,14.61-22.56,16.35-3.57.61-7.21,1.15-10.82,1.14-4.93-.01-9.87-.59-14.99-.93v-20.78M1285.13,214.48c.4-2.35,1.03-4.68,1.16-7.05.28-4.91.67-9.86.34-14.75-.32-4.79-1.06-9.64-2.38-14.25-1.93-6.74-6.86-10.9-13.23-10.48-1.82.12-2.15.71-2.14,2.34.05,18.94.03,37.88.03,56.82v1.87c5.17.23,9.16-1.12,11.2-3.83,2.34-3.11,3.97-6.58,5.02-10.67Z"></path>
    <path class="cls-23" d="M1227.28,223.97c1.37,6.37,2.74,12.56,4.14,18.95h-7.85c-2.9,0-5.81-.04-8.71.02-1,.02-1.6-.26-1.82-1.25-1.06-4.89-2.16-9.78-3.17-14.68-.84-4.09-1.43-8.24-2.42-12.29-1.36-5.55-4.53-7.73-10.6-6.96v35.04h-17.4v-87.57c3.98-.36,7.96-.79,11.95-1.06,3.4-.23,6.82-.56,10.21-.36,6.1.37,12.21.94,17.6,4.37,4.95,3.15,8.16,7.61,9.19,13.28,1.09,6.05,1.15,12.14-1.46,18-2.12,4.75-5.5,8.23-9.91,10.82-.33.19-.66.4-.98.6-.05.03-.08.11-.15.2,6.24,3.03,8.38,8.77,9.79,14.95.59,2.57,1.05,5.16,1.58,7.92M1197.32,168c-.18.55-.52,1.1-.52,1.65-.03,7.71-.03,15.43-.02,23.14,0,.44.08.88.15,1.55,1.46-.2,2.79-.45,4.14-.54,5.08-.35,8.77-4.38,9.52-8.74.45-2.62.73-5.39.36-7.99-.62-4.41-2.53-8.2-7.54-9.04-1.89-.32-3.86-.18-6.09-.03Z"></path>
    <path class="cls-23" d="M1247.66,140.59c-7.12-3.52-10.83-9.5-12.36-16.8-.98-4.67-1.55-9.5-1.6-14.27-.18-18.02-.07-36.05-.07-54.08v-2.24h17.44v2.18c0,19.15-.07,38.3.07,57.45.02,3.11.64,6.33,1.63,9.28,1.34,4.01,5.83,7.19,10.36,3.84,1.55-1.15,2.8-3.27,3.27-5.17.81-3.3,1.24-6.78,1.26-10.19.11-18.36.05-36.71.05-55.07v-2.29h17.35c.03.61.08,1.24.08,1.88,0,18.75.21,37.51-.09,56.26-.12,7.66-1.52,15.22-6.04,21.85-3.57,5.24-8.37,8.18-14.59,9.07-5.69.81-11.24.55-16.76-1.7Z"></path>
    <path class="cls-23" d="M1137.34,230.69c-.68,3.84-1.32,7.52-2.08,11.17-.09.43-.86,1.01-1.33,1.02-5.27.07-10.55.05-16.02.05,6.41-29.61,12.8-59.07,19.23-88.77,2.81,0,5.76,0,8.72,0,3.57,0,7.13.03,10.7-.02,1.19-.02,1.61.3,1.85,1.61,1.3,7.08,2.81,14.12,4.2,21.18,1.26,6.44,2.42,12.89,3.68,19.33,1.52,7.82,3.12,15.63,4.64,23.45,1.26,6.5,2.45,13.02,3.68,19.53.21,1.13.47,2.26.74,3.53h-17.26c-.95-5.24-1.98-10.59-2.88-15.96-.68-4.09-.61-4.1-4.83-4.1h-11.33c-.58,2.67-1.14,5.23-1.69,7.97M1148.01,176.66c-.32-1.76-.65-3.53-.93-5.07-2.04,12.21-4.12,24.63-6.21,37.11h11.87c-.53-3.44-1.01-6.75-1.54-10.05-.61-3.81-1.32-7.61-1.89-11.43-.5-3.39-.86-6.8-1.3-10.56Z"></path>
    <path class="cls-23" d="M1337.06,154.15h11.77v15.43h-20.8v19.72h19.58v14.71h-19.56v23.43h22.38v15.33h-40.19v-88.62h26.81Z"></path>
    <path class="cls-23" d="M1116.73,141.87h-7.02V53.21h38.63v14.83h-20.77v20.26h19.56v14.71h-19.6v23.29h22.36v15.57h-33.15Z"></path>
    <path class="cls-21" d="M966.69,122.28c-.05,1.8,1.18,1.28,1.97,1.28,11.23.03,22.46.02,33.68.02,4.26,0,5.81,1.56,5.81,5.86,0,9.25,0,18.49,0,27.74,0,3.53-1.79,5.34-5.36,5.35-11.23.02-22.46,0-33.68,0h-2.28v39.82c.75,0,1.51,0,2.27,0,12.95,0,25.89,0,38.84,0,3.98,0,5.67,1.67,5.68,5.63,0,9.64,0,19.29,0,28.93,0,3.99-1.68,5.67-5.63,5.67-26.75,0-53.5,0-80.25,0-4.37,0-5.97-1.59-5.97-5.94,0-47.36,0-94.71,0-142.07v-2.15c-1.52.16-2.94.43-4.36.43-8.06.04-16.12.02-24.17.02h-2.31c0,1.01,0,1.79,0,2.56,0,47.09,0,94.18,0,141.27,0,4.46-1.43,5.87-5.94,5.87-10.9,0-21.8,0-32.69,0-4.84,0-6.26-1.41-6.26-6.22,0-46.96,0-93.92,0-140.88,0-.78,0-1.56,0-2.61h-2.26c-8.19,0-16.38.06-24.57-.06-1.34-.02-2.67-.8-4-1.24-.48-.16-.95-.5-1.42-.5-12.67-.03-25.35-.02-38.17-.02v32.52c.7,0,1.4,0,2.11,0,11.23,0,22.46,0,33.68,0,3.71,0,5.42,1.71,5.42,5.45,0,9.38.01,18.76,0,28.14,0,3.54-1.8,5.35-5.37,5.36-11.23.02-22.46,0-33.68,0-.71,0-1.41,0-2.21,0v39.82c.76,0,1.47,0,2.17,0,12.95,0,25.89,0,38.84,0,4.02,0,5.66,1.63,5.66,5.61,0,9.71,0,19.42,0,29.13,0,3.86-1.66,5.5-5.56,5.5-26.88,0-53.76,0-80.64,0-3.83,0-5.55-1.71-5.55-5.53,0-60.23,0-120.47,0-180.7,0-3.89,1.77-5.62,5.71-5.62,7.33,0,14.66,0,21.99,0,53.07,0,106.14,0,159.21-.02,1.99,0,3.83.18,5.26,2,1.45-1.78,3.31-2.01,5.36-2,25.56.04,51.12.03,76.68.03,4.37,0,5.93,1.57,5.93,5.98,0,9.58,0,19.15,0,28.73,0,3.95-1.7,5.63-5.68,5.63-11.95,0-23.91,0-35.86,0h-2.36c0,10.47,0,20.75,0,31.22M811.77,55.43h-76.52v182.37h82.16v-30.92h-46.59v-49.1h41.06v-29.63h-41.06v-41.8h43.57v-30.91c-.81,0-1.52,0-2.62,0M926.52,145.24v92.56h82.21v-30.88h-46.47v-49.2h41.06v-29.47h-41.08v-41.9h43.44v-30.77h-79.16v89.66M886.23,218.15V88.25h32.38v-32.69h-99.9v32.77h32.08v149.4h35.43c0-6.51,0-12.84,0-19.57Z"></path>
    <path class="cls-18" d="M12.37,107.75c.16-14.77,4.11-28.05,13.85-39.21,8.68-9.94,19.86-15.51,32.66-17.96,14.59-2.79,28.88-1.78,42.77,3.72.12.05.24.1.37.15,5.97,2.58,6.49,3.57,5.3,9.94-1.67,8.94-3.35,17.89-5.02,26.83-.76,4.06-4.07,5.55-7.69,3.5-8.48-4.8-17.54-6.7-27.06-4.32-10.61,2.65-14.31,14.52-7.41,23.05,3.88,4.8,9.06,8.05,14.18,11.31,7.07,4.5,14.26,8.79,20.42,14.58,10.02,9.4,16.78,20.58,19.1,34.26.02.11.13.21.29.45,0-1.58,0-3.01,0-4.45,0-37.64,0-75.29,0-112.93,0-4.29,1.68-5.95,6.02-5.95,11.1,0,22.19,0,33.29,0,4.02,0,5.63,1.61,5.63,5.66,0,39.36-.03,78.72.03,118.08,0,6.39.29,12.82,2.23,18.99.66,2.12,1.51,4.25,2.7,6.11,4.26,6.67,12.8,6.24,16.51-.74,2.54-4.77,3.24-10.02,3.65-15.28.32-4.07.41-8.17.42-12.26.03-38.24.02-76.48.02-114.72,0-4.27,1.57-5.84,5.82-5.84,11.16,0,22.32,0,33.48,0,3.79,0,5.58,1.75,5.58,5.57.01,37.18.03,74.36,0,111.55-.01,12.92-1.18,25.7-5.18,38.08-4.26,13.19-11.27,24.39-23.47,31.71-6.32,3.79-13.24,5.88-20.53,6.69-10.49,1.16-20.83.48-30.82-3.18-14.21-5.21-23.17-15.59-28.63-29.36-2.93-7.4-4.51-15.14-5.56-23-.05-.38-.15-.76-.24-1.14,0-.03-.11-.03-.21-.05-.47,3.27-.78,6.57-1.45,9.8-4.24,20.54-16.52,34.34-35.81,42.01-12.68,5.04-25.92,5.73-39.34,4.14-7.82-.93-15.46-2.62-22.74-5.75-.85-.36-1.68-.76-2.49-1.21-2.25-1.25-3.13-2.9-2.72-5.41,1.67-10.08,3.36-20.16,5.11-30.24.61-3.5,3.81-5,7.1-3.39,8.93,4.39,18.43,6.28,28.31,6.35,2.29.02,4.63-.29,6.86-.8,13.19-3.02,14.54-14.62,11-23.04-1.91-4.54-5.55-7.7-9.41-10.49-4.91-3.55-10.02-6.84-15.04-10.26-11.3-7.71-20.8-17.06-26.75-29.6-3.27-6.88-4.96-14.16-5.14-21.96M154.49,61.23v-5.67h-35.6v2.47c0,34.4-.02,68.81.02,103.21,0,6.46.05,12.94.42,19.39.58,9.98,2.22,19.78,5.85,29.17,4.35,11.24,11.3,20.22,22.43,25.49,6.35,3.01,13.13,4.32,20.1,4.71,10.04.56,19.78-.65,28.81-5.38,11.13-5.82,17.9-15.34,22.17-26.83,4.5-12.09,6-24.71,6.02-37.51.07-37.51.02-75.01.02-112.52v-2.17h-35.46c0,1.01,0,1.87,0,2.72,0,26.61.02,53.22,0,79.84-.02,13.93-.03,27.86-.23,41.78-.1,7.29-.94,14.51-4.36,21.13-3.3,6.4-9.75,9.23-16.68,7.36-5.12-1.38-7.98-5.15-9.89-9.78-2.93-7.08-3.62-14.56-3.63-22.12-.03-38.3-.01-76.6-.01-115.29M102.01,66.93c.2-1.03.43-2.06.61-3.1.64-3.8.65-3.84-2.92-5.22-15.11-5.86-30.51-6.37-46-1.91-32.81,9.45-41.3,42.72-34.38,64.58,4.06,12.82,12.3,22.64,22.83,30.6,6.1,4.61,12.65,8.61,18.88,13.06,4.92,3.51,9.43,7.48,11.97,13.18,3.72,8.36,3.02,20.97-7.22,26.87-4.97,2.86-10.43,3.77-16,3.67-7.89-.14-15.6-1.53-23.05-4.2-2.2-.79-4.33-1.76-6.52-2.65-.13.3-.25.47-.28.66-1.51,9.04-2.9,18.09-4.58,27.1-.44,2.36.26,3.28,2.28,4.05,16.27,6.19,32.94,7.71,49.95,3.94,12.13-2.69,22.58-8.51,30.55-18.2,8.88-10.79,12.25-23.39,11.82-37.21-.4-12.99-4.92-24.31-13.35-34.11-5.7-6.62-12.61-11.77-20.04-16.3-6.43-3.91-12.87-7.83-18.24-13.2-5.65-5.65-7.6-12.5-5.43-20.16,2.12-7.5,7.79-11.35,15.11-12.95,4.9-1.07,9.84-.79,14.75.04,5.18.87,10.03,2.68,14.83,5.54,1.49-8.07,2.93-15.89,4.44-24.05Z"></path>
    <path class="cls-21" d="M387.08,96.03c1.12,18.82,2.22,37.45,3.35,56.09,1.46,24.03,2.93,48.06,4.4,72.09.26,4.28.53,8.56.77,12.84.2,3.64-1.6,5.53-5.28,5.53-10.17,0-20.34,0-30.51,0-3.45,0-5.1-1.53-5.28-5-.8-15.48-1.57-30.96-2.38-46.44-.6-11.57-1.24-23.14-2.15-34.75-.91,3.81-1.8,7.63-2.73,11.44-5.48,22.48-10.98,44.95-16.47,67.43-.78,3.19-2.31,4.4-5.61,4.4-7.79,0-15.59,0-23.38,0-3.25,0-4.76-1.14-5.49-4.25-6.21-26.44-12.41-52.88-18.61-79.31-.13-.56-.3-1.11-.7-1.62-.43,8.86-.83,17.73-1.29,26.59-.97,18.84-1.95,37.67-2.94,56.51-.18,3.47-1.82,5-5.27,5.01-9.71,0-19.42,0-29.13,0-3.75,0-5.6-1.9-5.35-5.68.65-9.74,1.36-19.48,2.06-29.22.75-10.46,1.52-20.92,2.27-31.38,1.14-15.79,2.28-31.58,3.4-47.37.84-11.84,1.66-23.69,2.5-35.53.91-12.7,1.82-25.39,2.76-38.09.22-2.91,2-4.58,4.91-4.58,12.42-.02,24.83-.02,37.25,0,2.66,0,4.29,1.43,4.91,4.24,3.09,13.9,6.19,27.8,9.23,41.71,4.48,20.48,8.9,40.97,13.46,61.99.42-2.09.73-3.76,1.08-5.42,5.01-24,10.01-48.01,15.06-72.01,1.81-8.58,3.77-17.12,5.65-25.68.82-3.75,2.16-4.84,6.01-4.84,11.69,0,23.38,0,35.07,0,4.14,0,5.63,1.25,5.92,5.43.66,9.61,1.19,19.22,1.78,28.83.22,3.62.46,7.24.7,11.05M294.95,209.28c1.88,7.95,3.81,15.9,5.61,23.87.33,1.44.85,1.9,2.33,1.88,7.13-.08,14.27-.03,21.4-.04.58,0,1.15-.06,1.81-.1,9.36-40.36,20.73-80.13,27.66-120.93.19,2.05.15,4.07.2,6.08.18,7.78.28,15.57.61,23.34.58,13.58,1.3,27.14,1.96,40.72.85,17.26,1.74,34.52,2.52,51.78.08,1.73.69,2.06,2.24,2.05,9.18-.06,18.36-.03,27.54-.03.63,0,1.26-.07,2.13-.12-3.7-60.89-7.39-121.55-11.08-182.25h-37.45c-4.79,21.64-9.83,43.15-14.25,64.78-4.41,21.58-8.21,43.28-12.32,65.12-7.69-43.69-18.14-86.69-27.4-129.87h-37.77c-4.33,60.82-8.65,121.5-12.98,182.33,9.91,0,19.48-.01,29.05.02,1.38,0,1.42-.84,1.47-1.82.16-3.56.32-7.12.5-10.67.92-18.11,1.87-36.23,2.76-54.34.8-16.27,1.56-32.54,2.3-48.81.13-2.77.02-5.56.02-8.34.22,0,.44,0,.66-.01.08.36.17.72.24,1.08,2.57,13.53,4.87,27.13,7.79,40.59,3.88,17.84,8.24,35.58,12.48,53.68Z"></path>
    <path class="cls-19" d="M608.67,114.12c3.27-12.92,8.36-25,16.63-35.56,12.91-16.51,29.9-25.96,50.61-28.67,13.25-1.74,26.34-.84,39.04,3.59,6.51,2.27,6.92,3.2,5.61,9.89-1.75,8.93-3.48,17.86-5.21,26.79-.74,3.83-3.54,5.31-7.19,3.82-8.67-3.54-17.65-4.43-26.78-2.58-12.55,2.54-20.11,10.87-24.72,22.3-3.83,9.48-5.17,19.45-5.59,29.59-.5,11.99.13,23.87,3.23,35.52,1.62,6.1,3.98,11.88,7.93,16.88,4.75,6.01,10.87,9.26,18.65,9.05.44-.01.89-.1,1.38-.16v-35.29c-3.7,0-7.31,0-10.92,0-3.83,0-5.56-1.73-5.57-5.54,0-9.11,0-18.23,0-27.34,0-3.81,1.75-5.53,5.59-5.53,15.45,0,30.9,0,46.36,0,5.16,0,6.61,1.44,6.61,6.55,0,30.18,0,60.36,0,90.53,0,1.45,0,2.91,0,4.36,0,2.76-1.26,4.56-3.91,5.51-7.48,2.7-15.22,4.27-23.07,5.34-11.72,1.6-23.43,1.66-35.05-.79-20.42-4.3-35.21-16.11-45.02-34.31-6.86-12.72-10.26-26.49-11.79-40.77-1.37-12.78-1.16-25.55.42-38.31.15-1.24.34-2.48.62-4.01.41-2.36.7-4.42.99-6.48,0,.01-.02.03.12-.04.18-.56.23-1.06.28-1.55,0,0-.01.02.11-.06.3-.96.48-1.84.66-2.72M719.59,171.79v-36.12h-48.92v28.9h16.26c.04.79.09,1.44.09,2.08,0,13.21-.05,26.41.06,39.62.02,2.04-.84,2.68-2.55,2.9-8.62,1.13-16.22-1.06-22.59-7.08-7.09-6.7-10.54-15.33-12.83-24.55-2.69-10.86-3.08-21.92-2.81-33.03.26-10.47,1.56-20.78,5.17-30.68,3.43-9.41,8.66-17.49,17.52-22.72,9.6-5.67,20.01-6.17,30.66-4.43,3.66.6,7.22,1.84,10.95,2.82.11-.44.25-.93.35-1.43,1.64-8.41,3.26-16.83,4.92-25.23.74-3.74.81-3.79-2.84-5.03-12.17-4.16-24.67-4.89-37.31-3.15-19.26,2.66-35.02,11.61-46.9,27.05-11.34,14.72-16.45,31.83-18.52,50-1.36,11.97-1.39,23.97-.06,35.95,1.42,12.81,4.46,25.19,10.38,36.72,8.65,16.84,21.77,28.29,40.4,32.88,10.9,2.68,21.96,2.82,33.04,1.57,8-.9,15.89-2.42,23.56-4.98,1.49-.5,2.01-1.19,2-2.81-.06-19.61-.04-39.22-.04-59.23Z"></path>
    <path class="cls-12" d="M456.55,50.68c9.31.01,18.62.03,27.94.04,3.94,0,5.63,1.71,5.63,5.68,0,9.71,0,19.42,0,29.13,0,3.82-1.73,5.52-5.58,5.53-11.95,0-23.91,0-35.86,0-.72,0-1.44,0-2.27,0v32.52h2.2c11.23,0,22.46,0,33.68,0,3.66,0,5.45,1.77,5.45,5.47.02,9.31.02,18.63,0,27.94,0,3.75-1.83,5.54-5.63,5.54-11.16.01-22.32,0-33.49,0-.71,0-1.42,0-2.23,0v39.82h2.33c12.88,0,25.76,0,38.64,0,4.2,0,5.69,1.51,5.69,5.73,0,9.78,0,19.55,0,29.33,0,3.53-1.66,5.17-5.24,5.17-27.01,0-54.03,0-81.04,0-3.73,0-5.37-1.67-5.37-5.47,0-60.3,0-120.6,0-180.9,0-3.79,1.74-5.49,5.6-5.49,7.4,0,14.79-.01,22.56,0,9.25,0,18.13-.02,27.01-.04M488.36,216.97v-10.09h-46.72v-49.13h41.25v-29.51h-41.22v-41.92h43.64v-30.74h-79.1v182.15h82.15c0-6.91,0-13.63,0-20.76Z"></path>
    <path class="cls-7" d="M605.97,124.08c-3.68,11.6-10.62,20.8-20.84,27.79,4.95,3.82,8.5,8.56,11.11,14.04,3.37,7.09,5.15,14.64,6.54,22.31,2.69,14.85,5.34,29.71,9.83,44.16.37,1.19.86,2.35,1.31,3.52,1.34,3.54-.74,6.67-4.48,6.68-12.22.02-24.43-.01-36.65.02-2.55,0-4.24-1.2-4.88-3.52-1.81-6.53-3.81-13.04-5.1-19.68-2.14-10.93-3.67-21.98-5.7-32.93-.62-3.33-1.76-6.64-3.12-9.75-2.3-5.27-5.88-7.18-11.86-6.79v2.11c0,21.53,0,43.05,0,64.58,0,4.43-1.52,5.96-5.93,5.96-11.23,0-22.45,0-33.68,0-3.63,0-5.32-1.68-5.32-5.32,0-59.5,0-118.99,0-178.49,0-3.3,1.23-4.76,4.57-5.37,18.6-3.37,37.32-4.53,56.15-2.61,11.07,1.13,21.68,3.99,30.82,10.75,11.16,8.24,17.41,19.38,19.21,33.08.84,6.37,1.03,12.75.2,19.44-.15,1.15-.2,2-.24,2.85,0,0,.01-.02-.12.04-.18.55-.23,1.05-.28,1.55,0,0,.01-.02-.08.08-.54,1.9-.99,3.69-1.44,5.49M603.94,104.43c-.26-3.42-.33-6.86-.82-10.24-1.93-13.24-8.57-23.54-19.89-30.67-8.83-5.57-18.8-7.55-29-8.35-16.85-1.32-33.61-.26-50.27,2.56-1.73.29-2.23.86-2.23,2.61.05,58.44.04,116.88.04,175.32v2.1h35.63v-72.73c3.39.18,6.62.16,9.79.57,4.33.56,7.7,2.98,9.7,6.77,1.73,3.3,3.4,6.8,4.14,10.41,1.91,9.29,3.09,18.73,4.93,28.03,1.68,8.46,3.86,16.82,5.78,25.23.34,1.51,1.17,1.9,2.67,1.89,11.03-.06,22.06-.03,33.08-.04.63,0,1.26-.06,2.01-.09-4.17-11.66-6.44-23.57-8.89-35.44-1.79-8.71-3.28-17.5-5.49-26.11-2.06-8.04-5.82-15.32-12.72-20.45-2.03-1.51-4.3-2.67-6.61-4.08.54-.29.98-.55,1.43-.77,5.86-2.93,11.01-6.78,15.21-11.83,8.27-9.94,11.74-21.5,11.51-34.7Z"></path>
    <path class="cls-6" d="M429.54,50.38c-3.79-1.21-5.03-4.56-2.74-7.73,7.24-10.05,14.55-20.06,21.82-30.09,1.09-1.51,2.56-2.18,4.41-2.17,11.74.01,23.48,0,35.22.01,2.47,0,4.04,1.05,4.81,3.07.76,2,.27,3.82-1.53,5.49-10.68,9.91-21.35,19.82-32.06,29.7-.75.69-1.75,1.12-2.96,1.66-9.21.02-18.09.04-26.97.06M446.41,45.71c2.51,0,5.02.12,7.52-.06,1.07-.08,2.32-.52,3.1-1.23,8.48-7.73,16.89-15.54,25.31-23.33,2.05-1.89,4.06-3.82,6.31-5.94-.64-.05-.89-.08-1.14-.08-11.15,0-22.3-.03-33.46.05-.8,0-1.85.62-2.34,1.28-4.95,6.68-9.8,13.42-14.68,20.15-2.11,2.91-4.22,5.83-6.63,9.15,5.53,0,10.57,0,16.01,0Z"></path>
    <path class="cls-17" d="M429.55,50.45c8.87-.1,17.75-.12,26.81-.11.19.03.15.18.17.26-8.86.1-17.74.11-26.81.1-.19-.03-.16-.18-.17-.25Z"></path>
    <path class="cls-17" d="M606.08,124.14c.34-1.86.78-3.66,1.33-5.56-.19,1.96-.48,4.03-.87,6.22-.18-.12-.26-.35-.46-.65Z"></path>
    <path class="cls-17" d="M608.01,116.84c-.08-.76-.03-1.61.11-2.58.17-.11.25-.11.43-.12-.07.86-.25,1.74-.55,2.7Z"></path>
    <path class="cls-28" d="M624.59,234.95c-.16-.15-.25-.37-.34-.59.13.06.27.12.47.27.03.14-.01.2-.13.33Z"></path>
    <path class="cls-3" d="M1693.47,78c-1.55,3.31-3.1,6.62-4.94,10.02-9.64.09-18.99.09-28.54.09v153.97h-36.38V88.06h-33.1v-33.59h102.96v23.53Z"></path>
    <path class="cls-18" d="M1726.25,192.63c-.74,1.73-2.24,2.2-3.93,2.33-.65.05-1.32,0-1.97,0-2.48.01-4,1.37-4.02,3.8-.05,5.07-.05,10.14,0,15.21.02,2.46,1.14,3.61,3.81,4.08.31.07.43.05.56.03,23.77,0,47.54-.02,71.56.08.38.11.51.11.64.11,2.39,1.46,2.77,3.12,1.15,5.5-11.59,17.04-27.86,24.72-48.25,23.93-19.07-.74-33.25-9.93-43.38-25.75-7.41-11.57-11.32-24.45-13.87-37.82-2.8-14.72-3.76-29.62-3.04-44.53.99-20.68,4.77-40.79,14.95-59.22,3.22-5.82,7.04-11.22,11.8-15.85,8.78-8.54,19.17-14.05,31.47-15.28,8.3-.84,16.58-.44,24.59,2.28,8.89,3.02,16.48,7.96,22.25,15.43,2.45,3.17,4.76,6.45,6.9,9.84,1.44,2.28.58,4.18-2.29,5.27-24.91-.02-49.49-.03-74.07-.02-.56,0-1.13.19-1.69.29-2,.4-3.05,1.7-3.07,3.67-.06,5.21-.07,10.43,0,15.65.03,2.37,1.47,3.65,3.84,3.77,1.36.07,2.73.13,4.06.36,1.43.24,2.05,1.17,2,2.68-.08,2.64-.05,5.28-.02,7.92.02,2.06-1.07,3.16-3.17,3.32-1.61.12-3.34.12-4.77.73-.88.38-1.83,1.8-1.86,2.78-.19,5.27-.15,10.56-.09,15.84.03,2.43,1.68,3.92,4.11,3.95.86,0,1.72-.03,2.57,0,2.05.09,3.2,1.3,3.2,3.33,0,2.44-.21,4.91.06,7.32.26,2.33-1.65,3.51-3.57,3.65-.85.06-1.72,0-2.57.01-2.16.04-3.72,1.31-3.76,3.41-.1,5.41-.1,10.83,0,16.24.04,2.11,2.23,3.61,4.79,3.75,1.4.07,2.8.31,4.17.6.33.07.55.69.85,1.27.05.37.13.46.26.52.02,2.89.05,5.79-.05,8.91-.19.35-.2.47-.14.6M1716.1,220c-1.96-1.01-2.84-2.88-2.93-4.83-.24-5.4-.42-10.83-.19-16.22.22-5.04,3.15-7.45,8.26-7.54.57,0,1.13-.08,1.66-.11v-7.46c-.94,0-1.73.01-2.52,0-3.93-.06-7.07-2.6-7.24-6.54-.25-5.79-.18-11.6.05-17.39.12-3.08,2.95-5.59,5.8-5.75.92-.05,1.87.13,2.76-.04.48-.09,1.2-.68,1.23-1.07.12-2.21.06-4.44.06-6.79-1.1,0-1.94,0-2.79,0-3.89-.04-6.96-2.58-7.11-6.42-.22-5.66-.21-11.34,0-17.01.13-3.58,3.25-6.24,6.82-6.36,1.02-.03,2.04,0,2.97,0v-7.47c-.67,0-1.19.03-1.71,0-4.45-.3-8.02-2.39-8.2-7.48-.17-4.81.12-9.64-.06-14.45-.2-5.43,4.13-8.29,8.41-8.27,23.71.15,47.41.07,71.12.07.73,0,1.47,0,2.83,0-2.74-3.75-4.94-7.09-7.47-10.15-4.71-5.7-10.56-9.97-17.38-12.84-6.69-2.82-13.69-3.67-20.95-3.62-13.45.08-24.77,5.07-34.4,14.18-5.64,5.33-9.91,11.71-13.38,18.62-8.37,16.63-11.79,34.49-12.71,52.88-.57,11.34-.28,22.69,1.06,34,1.67,14.1,4.7,27.83,10.9,40.69,4.54,9.41,10.59,17.68,19.36,23.62,10.2,6.91,21.54,9.12,33.7,7.96,15.7-1.5,27.93-8.84,37-21.64.2-.28.28-.66.48-1.16h-2.56c-22.45,0-44.9.03-67.36-.05-1.76,0-3.51-.76-5.52-1.34Z"></path>
    <path class="cls-2" d="M1911.56,175.74c1.83,11.52,1.23,22.71-2.87,33.5-6.79,17.85-19.84,29.19-37.89,34.54-20.08,5.95-39.91,4.27-59.24-3.6-3.52-1.43-3.89-2.29-3.28-5.9,1.63-9.76,3.29-19.51,4.98-29.26.59-3.42,2.55-4.29,5.71-2.82,10.54,4.92,21.6,7.18,33.23,6.2,2.08-.18,4.19-.65,6.16-1.34,11.18-3.9,15.15-17.13,8.32-27.64-3.43-5.27-8.49-8.79-13.52-12.32-6.63-4.67-13.57-8.96-19.81-14.11-11.05-9.12-18.91-20.5-22.01-34.78-6.54-30.1,12.2-59.79,42.17-66.68,15.15-3.48,30.11-2.95,44.8,2.38,1.48.54,2.93,1.19,4.35,1.89,2.73,1.37,3.21,2.36,2.65,5.4-1.2,6.55-2.44,13.09-3.66,19.64-.62,3.31-1.23,6.61-1.83,9.92-.6,3.3-2.86,4.34-5.8,2.66-8.25-4.73-17.11-6.51-26.49-5.09-6.64,1-11.96,4.28-13.92,11.03-2.05,7.07-.19,13.52,5.49,18.24,5.06,4.19,10.47,8.02,16.03,11.55,7.89,5.01,15.52,10.27,21.81,17.27,7.53,8.38,12.54,18.03,14.64,29.33M1848.04,159.74c4.13,2.85,8.35,5.56,12.36,8.57,6.67,5.02,11.9,11.04,12.69,19.88.8,8.88-2.59,17.05-11.42,21.09-3.96,1.81-8.14,2.65-12.47,2.72-10.1.18-19.8-1.79-29.14-5.57-1.13-.46-2.22-1-3.46-1.56-1.63,9.77-3.12,19.35-4.9,28.87-.43,2.28.16,3.31,2.18,3.89.19.05.37.13.56.2,16.32,6.22,33.08,7.77,50.15,4.16,13.31-2.81,24.73-9.13,33.21-20.02,8.74-11.23,11.91-24.17,11.26-38.23-.65-14.23-6.17-26.29-15.91-36.53-5.87-6.18-12.83-10.93-20.06-15.36-6.53-3.99-13.01-8.09-18.27-13.79-8.8-9.54-7.45-28.07,9.74-32.55,7.38-1.93,14.69-1.13,21.86,1.01,3.37,1.01,6.56,2.6,9.92,3.96.05-.12.19-.34.24-.59,1.6-8.62,3.24-17.23,4.78-25.86.91-5.13.85-5.17-4.09-6.98-10.59-3.89-21.5-5.1-32.71-4.01-9.58.94-18.71,3.38-26.88,8.59-16.9,10.77-23.89,26.88-24.13,46.29-.12,9.29,2.76,17.92,7.61,25.86,6.66,10.9,15.96,19.05,26.89,25.93Z"></path>
    <path class="cls-14" d="M1500.23,164.32c3.76-17.43,7.47-34.7,11.21-51.97,4.19-19.33,8.4-38.65,12.6-57.97.56-2.59,1.45-3.32,4.06-3.32,14.13,0,28.26,0,42.4,0,2.72,0,3.64.74,4.17,3.45,3.9,19.99,7.78,39.99,11.67,59.98,3.77,19.41,7.54,38.83,11.31,58.24,4.4,22.65,8.83,45.29,13.22,67.95.64,3.3-.61,4.76-3.93,4.76-11.36,0-22.72,0-34.08,0-2.88,0-3.8-.75-4.3-3.51-2.28-12.59-4.56-25.17-6.84-37.76-.09-.51-.25-1.01-.39-1.56h-27.99c-.81,4.05-1.63,8.1-2.42,12.15-1.76,9.06-3.5,18.12-5.26,27.18-.54,2.77-1.43,3.49-4.32,3.5-11.16,0-22.32,0-33.48,0-3.72,0-4.94-1.43-4.16-5.01,4.79-22.16,9.61-44.32,14.42-66.48.68-3.16,1.38-6.31,2.11-9.63M1574.87,73.1c-1.21-6.25-2.43-12.5-3.63-18.69h-43.82c-13.55,62.56-27.08,125.03-40.63,187.56.39.09.64.2.89.2,11.09.01,22.19,0,33.28.04,1.19,0,1.4-.63,1.58-1.55,1.84-9.58,3.7-19.15,5.57-28.73.81-4.18,1.65-8.35,2.47-12.53h33.5c.13.35.3.65.35.96,2.41,13.23,4.84,26.45,7.17,39.69.28,1.58.71,2.19,2.45,2.18,10.56-.09,21.13-.04,31.69-.05.63,0,1.25-.06,1.88-.09,0-.32.02-.45,0-.58-3.97-20.51-7.94-41.03-11.92-61.53-4.16-21.41-8.34-42.83-12.51-64.24-2.75-14.1-5.5-28.2-8.3-42.64Z"></path>
    <path class="cls-25" d="M1693.54,77.9c-.07-7.69-.07-15.48-.07-23.44h-102.96v33.59h33.1v154.02h36.38V88.11c9.55,0,18.9,0,28.43,0q-.75,3.34-4.12,3.34h-18.62c-.65,0-1.29,0-2.16,0v2.67c0,48.67,0,97.34,0,146.01,0,.92-.04,1.85-.2,2.75-.3,1.65-1.38,2.54-3.04,2.55-12.28.02-24.57.03-36.85,0-1.88,0-3.01-1.21-3.14-3.11-.05-.66-.02-1.32-.02-1.98,0-48.74,0-97.47,0-146.21v-2.57c-.81-.04-1.5-.1-2.19-.1-8.92,0-17.83,0-26.75,0-3.17,0-4.25-1.09-4.26-4.29,0-10.63,0-21.26,0-31.9,0-3.1,1.1-4.2,4.13-4.2,33.88,0,67.76,0,101.63,0,2.91,0,4.05,1.15,4.06,4.08.01,3.9-.27,7.82.08,11.68.38,4.22-.9,7.73-3.42,11.08Z"></path>
    <path class="cls-18" d="M1485.97,88.09c5.14,10.79,7.8,22.1,9.2,33.75,1.79,14.86,1.88,29.76.37,44.64-1.44,14.24-4.5,28.09-10.96,41.02-10.21,20.41-26.78,32.41-48.94,37.01-13.95,2.89-28.04,2.85-42.16,1.76-4.47-.34-8.94-.76-13.4-1.24-3.19-.34-3.85-1.18-3.85-4.5,0-29.32,0-58.63,0-87.95,0-31.3,0-62.59,0-93.89,0-3.81.5-4.43,4.16-5.19,10.76-2.23,21.65-3.07,32.62-3.25,9.86-.16,19.65.33,29.27,2.64,20.06,4.81,34.49,16.65,43.67,35.21M1486.93,99.64c-.69-1.92-1.32-3.87-2.09-5.76-5.85-14.31-15.16-25.57-29.12-32.63-10.7-5.42-22.27-7.2-34.08-7.66-10.43-.41-20.84.22-31.19,1.55-3.68.47-7.33,1.25-10.87,1.87v184.76c5.41.44,10.72.89,16.04,1.29,13,.97,25.96.86,38.81-1.71,22.77-4.55,39.15-17.16,48.63-38.51,6.95-15.64,9.48-32.21,9.99-49.11.26-8.55-.14-17.15-.65-25.7-.57-9.57-2.36-18.96-5.47-28.39Z"></path>
    <path class="cls-5" d="M1612.88,143.85v67.53c-.08.01-.17.02-.25.03-7.29-37.5-14.58-75-21.89-112.62h22.14v45.06Z"></path>
    <path class="cls-15" d="M1800.71,144.81c.15,3.3.37,6.46.26,9.6-.06,1.7-1.37,2.63-3.08,2.82-.46.05-.92.01-1.39.01-21.39,0-42.79,0-64.18,0-3.61,0-4.57-.97-4.58-4.57,0-2.05-.03-4.09,0-6.14.05-2.31,1.26-3.52,3.58-3.53,22.05-.01,44.11-.03,66.16.06,1.05,0,2.1,1.04,3.22,1.74M1745.44,146.24h-14.28v7.52h66.39v-7.52c-17.32,0-34.52,0-52.12,0Z"></path>
    <path class="cls-1" d="M1786.45,119.68c-18.28,0-36.37,0-54.45,0-3.2,0-4.25-1.05-4.26-4.27,0-2.05-.02-4.09,0-6.14.03-2.63,1.24-3.85,3.9-3.86,8.78-.02,17.56,0,26.33,0,12.87,0,25.74,0,38.61,0,3.37,0,4.51,1.14,4.52,4.5,0,1.98.04,3.96,0,5.94-.07,2.62-1.32,3.81-3.96,3.82-3.5.01-7,0-10.69,0M1731.03,113.11v3.21h66.48v-7.3h-66.48c0,1.35,0,2.53,0,4.09Z"></path>
    <path class="cls-31" d="M1736.52,194.72c-1.91,0-3.63.04-5.34-.01-2.22-.07-3.38-1.26-3.42-3.48-.04-2.24-.02-4.49,0-6.73.02-2.85,1.1-3.93,3.96-3.93,11.55,0,23.09,0,34.64,0,10.16,0,20.32,0,30.48,0,3.2,0,4.26,1.06,4.29,4.26.02,1.91.02,3.83,0,5.74-.03,3.02-1.18,4.15-4.22,4.16-20.06,0-40.11,0-60.37,0M1735.93,183.82h-4.76v7.44h66.41v-7.44c-20.49,0-40.87,0-61.65,0Z"></path>
    <path class="cls-16" d="M1720.05,212.61c-3.73-5.03-2.76-11.21,2.12-14.23,4.89-3.02,10.86-1.14,13.62,4.3.15.29.33.56.51.88,2.23-4.96,6.28-7.35,10.8-6.42,4.47.92,7.59,4.61,7.65,9.07.06,4.44-2.92,8.37-7.07,9.34-4.84,1.12-8.91-1.09-11.38-6.19-4.43,7.29-10.72,8.61-16.24,3.26M1728.52,212.34c.55-.22,1.13-.39,1.64-.68,2.15-1.22,3.37-3.68,3.02-5.99-.39-2.59-1.8-4.38-4.32-5.11-2.56-.75-5.24.2-6.67,2.28-1.38,2.01-1.59,4.2-.44,6.36,1.36,2.57,3.62,3.51,6.78,3.14M1741.57,211.18c3.47,2.14,7.05,1.5,8.99-1.59,1.78-2.84.81-6.72-2.11-8.44-2.54-1.5-6.01-.86-7.87,1.45-1.98,2.46-1.68,5.71.98,8.58Z"></path>
    <path class="cls-16" d="M1720.04,162.67c5.58-5.38,11.89-4.08,16.23,3.21,2.84-5.3,6.73-7.36,11.56-6.11,4.24,1.1,7.11,5.1,6.92,9.65-.18,4.31-3.36,7.86-7.8,8.72-4.51.87-8.46-1.48-10.68-6.48-1.5,3.51-3.86,5.87-7.64,6.51-2.53.43-4.85-.13-6.93-1.6-4.51-3.18-5.26-9.13-1.66-13.88M1724.89,174.51c2.8.88,5.23.36,7.11-1.97,1.52-1.89,1.62-4.79.33-6.88-1.33-2.15-3.91-3.25-6.51-2.76-2.28.43-4.27,2.47-4.69,4.82-.5,2.76.7,5.07,3.77,6.79M1751.49,168.68c-.08-.39-.15-.78-.23-1.16-.58-2.56-2.71-4.46-5.22-4.68-2.9-.25-5.28,1.15-6.33,3.73-.99,2.44-.27,5.31,1.75,7,3.21,2.69,9.55,1.44,10.03-4.88Z"></path>
    <path class="cls-6" d="M1725.98,140.68c-5.23-1.22-8.12-4.49-8.23-9.13-.11-4.38,2.61-8.06,6.86-9.28,4.13-1.18,8.51.61,10.7,4.39.32.56.61,1.14.95,1.78,2.56-5.16,6.63-7.39,11.31-6.27,4.33,1.04,7.27,4.92,7.17,9.46-.09,4.35-3.23,8.06-7.56,8.95-4.57.94-8.66-1.43-10.9-6.47-1.98,4.47-5.19,6.92-10.32,6.58M1748.18,125.93c-.37-.14-.73-.32-1.1-.43-2.57-.75-5.31.24-6.78,2.42-1.46,2.17-1.34,5.2.3,7.21,1.71,2.1,4.44,2.85,6.96,1.87,2.31-.9,3.6-2.67,3.84-5.08.25-2.51-.84-4.47-3.21-5.99M1731.18,126.79c-2.01-1.71-4.25-2.05-6.63-.94-2.08.96-3.27,2.64-3.46,4.93-.23,2.81,1.4,5.38,3.89,6.26,2.7.95,5.66.02,7.18-2.26,1.66-2.48,1.39-5.25-.97-8Z"></path>
    <path class="cls-6" d="M1754.14,97.16c-1.73,3.99-4.68,6.01-8.86,6-4.39-.02-7.24-2.37-8.74-5.92-1.68,1.61-3.27,3.6-5.3,4.94-2.23,1.48-4.93,1.37-7.45.44-3.94-1.45-6.3-5.24-6.03-9.48.26-4.18,3.14-7.53,7.31-8.52,4.54-1.07,8.1.92,11.22,6.28,2.96-6.46,9.65-8.5,14.83-4.53,3.2,2.45,4.28,6.18,3.01,10.79M1733.25,93.44c-.08-.39-.15-.77-.25-1.16-.72-2.75-3.18-4.68-5.9-4.63-2.87.05-5.32,2.07-5.94,4.87-.59,2.7.77,5.47,3.3,6.73,3.85,1.92,8.7-.68,8.79-5.82M1751.24,95.28c.54-2.96-.52-5.47-2.86-6.77-2.34-1.3-5.26-.97-7.16.81-1.81,1.7-2.43,4.25-1.58,6.53.91,2.45,3.02,3.97,5.58,4.01,2.82.05,4.74-1.32,6.03-4.58Z"></path>
    <path class="cls-4" d="M1719.6,82.37c.38-.13.94-.32,1.5-.32,24.58,0,49.16,0,73.93.04-.32.14-.82.33-1.32.33-24.64,0-49.28,0-74.11-.04Z"></path>
    <path class="cls-22" d="M1726.31,192.57c-.13-.06-.12-.18.03-.36.13.07.12.19-.03.36Z"></path>
    <path class="cls-22" d="M1726.46,183.03c-.15.04-.23-.06-.22-.29.13-.03.21.07.22.29Z"></path>
    <path class="cls-26" d="M1720.59,218.04c-.02.07-.14.09-.3.04.04-.07.11-.08.3-.04Z"></path>
    <path class="cls-26" d="M1792.82,218.19c-.06.08-.19.08-.39,0,.07-.08.19-.08.39,0Z"></path>
    <path class="cls-5" d="M1285.05,214.63c-.97,3.95-2.6,7.42-4.94,10.53-2.04,2.71-6.03,4.06-11.2,3.83v-1.87c0-18.94.02-37.88-.03-56.82,0-1.63.32-2.22,2.14-2.34,6.37-.42,11.3,3.74,13.23,10.48,1.32,4.61,2.06,9.46,2.38,14.25.33,4.89-.06,9.84-.34,14.75-.14,2.36-.76,4.7-1.25,7.19Z"></path>
    <path class="cls-5" d="M1197.47,167.89c2.08-.04,4.05-.18,5.94.14,5.01.84,6.93,4.63,7.54,9.04.36,2.6.09,5.38-.36,7.99-.75,4.36-4.44,8.39-9.52,8.74-1.34.09-2.68.35-4.14.54-.07-.67-.15-1.11-.15-1.55,0-7.71-.02-15.43.02-23.14,0-.55.34-1.1.67-1.76Z"></path>
    <path class="cls-5" d="M1148.02,176.84c.43,3.58.79,6.99,1.29,10.38.56,3.82,1.27,7.62,1.89,11.43.53,3.3,1.02,6.61,1.54,10.05h-11.87c2.09-12.48,4.16-24.9,6.21-37.11.28,1.55.61,3.31.94,5.25Z"></path>
    <path class="cls-3" d="M811.96,55.43c.9,0,1.61,0,2.43,0v30.91h-43.57v41.8h41.06v29.63h-41.06v49.1h46.59v30.92h-82.16V55.43c25.48,0,51,0,76.71,0Z"></path>
    <path class="cls-3" d="M926.52,145.04V55.58h79.16v30.77h-43.44v41.9h41.08v29.47h-41.06v49.2h46.47v30.88h-82.21v-92.76Z"></path>
    <path class="cls-3" d="M886.23,218.35c0,6.53,0,12.86,0,19.37h-35.43V88.33h-32.08v-32.77h99.9v32.69h-32.38c0,43.44,0,86.67,0,130.1Z"></path>
    <path class="cls-3" d="M154.49,61.43c0,38.5-.01,76.8.01,115.1,0,7.56.7,15.04,3.63,22.12,1.91,4.63,4.77,8.4,9.89,9.78,6.93,1.87,13.38-.96,16.68-7.36,3.41-6.62,4.26-13.84,4.36-21.13.2-13.93.21-27.86.23-41.78.03-26.61,0-53.22,0-79.84,0-.85,0-1.71,0-2.72h35.46v2.17c0,37.51.04,75.01-.02,112.52-.02,12.8-1.53,25.42-6.02,37.51-4.28,11.49-11.04,21.01-22.17,26.83-9.03,4.73-18.77,5.94-28.81,5.38-6.97-.39-13.74-1.7-20.1-4.71-11.13-5.27-18.08-14.24-22.43-25.49-3.63-9.38-5.27-19.19-5.85-29.17-.37-6.45-.42-12.93-.42-19.39-.04-34.4-.02-68.81-.02-103.21v-2.47h35.6c0,1.89,0,3.78,0,5.87Z"></path>
    <path class="cls-13" d="M101.98,67.1c-1.48,7.99-2.92,15.81-4.41,23.88-4.8-2.85-9.65-4.67-14.83-5.54-4.92-.83-9.86-1.11-14.75-.04-7.32,1.6-12.98,5.46-15.11,12.95-2.17,7.66-.21,14.5,5.43,20.16,5.36,5.37,11.81,9.29,18.24,13.2,7.43,4.52,14.34,9.68,20.04,16.3,8.44,9.8,12.95,21.12,13.35,34.11.43,13.82-2.94,26.42-11.82,37.21-7.97,9.69-18.42,15.5-30.55,18.2-17.01,3.78-33.68,2.26-49.95-3.94-2.03-.77-2.73-1.69-2.28-4.05,1.69-9,3.07-18.06,4.58-27.1.03-.18.15-.35.28-.66,2.18.89,4.32,1.86,6.52,2.65,7.45,2.67,15.16,4.07,23.05,4.2,5.58.1,11.03-.81,16-3.67,10.24-5.89,10.94-18.51,7.22-26.87-2.54-5.7-7.05-9.68-11.97-13.18-6.23-4.44-12.78-8.45-18.88-13.06-10.53-7.96-18.77-17.78-22.83-30.6-6.93-21.87,1.57-55.14,34.38-64.58,15.5-4.46,30.89-3.95,46,1.91,3.57,1.39,3.56,1.43,2.92,5.22-.18,1.04-.4,2.07-.64,3.27Z"></path>
    <path class="cls-3" d="M294.91,209.12c-4.2-17.94-8.56-35.68-12.44-53.52-2.92-13.46-5.21-27.05-7.79-40.59-.07-.36-.16-.72-.24-1.08-.22,0-.44,0-.66.01,0,2.78.11,5.56-.02,8.34-.73,16.27-1.5,32.54-2.3,48.81-.89,18.12-1.84,36.23-2.76,54.34-.18,3.56-.34,7.12-.5,10.67-.04.98-.09,1.82-1.47,1.82-9.57-.03-19.14-.02-29.05-.02,4.33-60.83,8.65-121.52,12.98-182.33h37.77c9.26,43.18,19.71,86.17,27.4,129.87,4.1-21.84,7.9-43.55,12.32-65.12,4.42-21.63,9.46-43.14,14.25-64.78h37.45c3.69,60.7,7.38,121.36,11.08,182.25-.86.05-1.5.12-2.13.12-9.18,0-18.36-.02-27.54.03-1.55,0-2.16-.33-2.24-2.05-.78-17.26-1.67-34.52-2.52-51.78-.67-13.57-1.39-27.14-1.96-40.72-.33-7.78-.43-15.56-.61-23.34-.05-2.01,0-4.03-.2-6.08-6.93,40.8-18.29,80.57-27.66,120.93-.66.04-1.23.1-1.81.1-7.13,0-14.27-.04-21.4.04-1.48.02-2.01-.44-2.33-1.88-1.8-7.97-3.73-15.92-5.65-24.03Z"></path>
    <path class="cls-13" d="M719.59,171.99c0,19.81-.02,39.42.04,59.03,0,1.62-.51,2.31-2,2.81-7.67,2.56-15.56,4.08-23.56,4.98-11.08,1.24-22.14,1.11-33.04-1.57-18.63-4.59-31.75-16.03-40.4-32.88-5.92-11.53-8.96-23.91-10.38-36.72-1.33-11.98-1.3-23.98.06-35.95,2.06-18.17,7.18-35.28,18.52-50,11.89-15.44,27.64-24.39,46.9-27.05,12.65-1.74,25.14-1.01,37.31,3.15,3.65,1.25,3.58,1.29,2.84,5.03-1.67,8.41-3.28,16.82-4.92,25.23-.1.5-.24.99-.35,1.43-3.73-.98-7.29-2.22-10.95-2.82-10.65-1.74-21.06-1.24-30.66,4.43-8.86,5.23-14.08,13.31-17.52,22.72-3.61,9.9-4.92,20.21-5.17,30.68-.27,11.11.12,22.17,2.81,33.03,2.28,9.22,5.74,17.85,12.83,24.55,6.37,6.02,13.96,8.21,22.59,7.08,1.71-.22,2.57-.86,2.55-2.9-.11-13.21-.05-26.41-.06-39.62,0-.64-.06-1.29-.09-2.08h-16.26v-28.9h48.92c0,12.01,0,24.07,0,36.32Z"></path>
    <path class="cls-17" d="M607.63,118.44c-.09-.43-.04-.93.15-1.49.09.43.04.93-.15,1.49Z"></path>
    <path class="cls-3" d="M488.36,217.16c0,6.93,0,13.66,0,20.56h-82.15V55.58h79.1v30.74h-43.64v41.92h41.22v29.51h-41.25v49.13h46.72c0,3.53,0,6.81,0,10.28Z"></path>
    <path class="cls-13" d="M603.94,104.63c.23,13-3.24,24.56-11.51,34.5-4.2,5.05-9.35,8.9-15.21,11.83-.45.23-.89.48-1.43.77,2.3,1.41,4.58,2.58,6.61,4.08,6.9,5.13,10.66,12.41,12.72,20.45,2.2,8.61,3.69,17.4,5.49,26.11,2.45,11.87,4.72,23.78,8.89,35.44-.76.04-1.38.09-2.01.09-11.03,0-22.06-.02-33.08.04-1.49,0-2.32-.38-2.67-1.89-1.92-8.41-4.1-16.77-5.78-25.23-1.84-9.3-3.03-18.74-4.93-28.03-.74-3.61-2.41-7.12-4.14-10.41-1.99-3.8-5.37-6.21-9.7-6.77-3.17-.41-6.39-.39-9.79-.57v72.73h-35.63v-2.1c0-58.44,0-116.88-.04-175.32,0-1.75.5-2.32,2.23-2.61,16.66-2.82,33.42-3.88,50.27-2.56,10.2.8,20.17,2.78,29,8.35,11.32,7.14,17.96,17.43,19.89,30.67.49,3.38.56,6.83.82,10.44M546.33,137.56c7.82-.72,13.67-4.56,17.49-11.36,4.37-7.78,4.8-16.19,3.43-24.78-.92-5.75-2.99-10.97-7.77-14.67-6.04-4.68-12.98-4.95-20.17-3.93-1.55.22-1.98.92-1.98,2.47.06,16.83.04,33.66.04,50.49v1.8c2.98,0,5.8,0,8.97-.02Z"></path>
    <path class="cls-13" d="M446.22,45.71c-5.24,0-10.29,0-15.81,0,2.41-3.33,4.51-6.24,6.63-9.15,4.88-6.73,9.73-13.47,14.68-20.15.49-.66,1.54-1.28,2.34-1.28,11.15-.08,22.3-.06,33.46-.05.25,0,.5.03,1.14.08-2.25,2.12-4.27,4.04-6.31,5.94-8.42,7.8-16.82,15.61-25.31,23.33-.78.71-2.03,1.15-3.1,1.23-2.49.18-5.01.06-7.72.06Z"></path>
    <path class="cls-3" d="M1716.22,220.08c1.88.49,3.63,1.25,5.39,1.26,22.45.08,44.9.05,67.36.05h2.56c-.21.5-.28.87-.48,1.16-9.07,12.79-21.29,20.13-37,21.64-12.16,1.16-23.5-1.05-33.7-7.96-8.77-5.94-14.82-14.2-19.36-23.62-6.2-12.86-9.23-26.59-10.9-40.69-1.34-11.31-1.63-22.65-1.06-34,.92-18.4,4.34-36.25,12.71-52.88,3.48-6.91,7.74-13.29,13.38-18.62,9.63-9.1,20.95-14.1,34.4-14.18,7.25-.04,14.25.81,20.95,3.62,6.82,2.87,12.67,7.14,17.38,12.84,2.53,3.06,4.73,6.4,7.47,10.15-1.36,0-2.1,0-2.83,0-23.71,0-47.41.08-71.12-.07-4.28-.03-8.61,2.84-8.41,8.27.18,4.81-.11,9.64.06,14.45.18,5.09,3.75,7.17,8.2,7.48.52.04,1.05,0,1.71,0v7.47c-.93,0-1.95-.03-2.97,0-3.57.12-6.69,2.78-6.82,6.36-.21,5.66-.21,11.34,0,17.01.15,3.84,3.22,6.37,7.11,6.42.85,0,1.7,0,2.79,0,0,2.36.06,4.58-.06,6.79-.02.39-.75.98-1.23,1.07-.89.17-1.84-.01-2.76.04-2.85.16-5.68,2.68-5.8,5.75-.23,5.79-.3,11.61-.05,17.39.17,3.94,3.31,6.47,7.24,6.54.79.01,1.58,0,2.52,0v7.46c-.53.04-1.09.1-1.66.11-5.11.09-8.04,2.5-8.26,7.54-.23,5.4-.05,10.82.19,16.22.09,1.96.96,3.82,3.05,4.92Z"></path>
    <path class="cls-13" d="M1847.92,159.67c-10.81-6.8-20.12-14.95-26.77-25.86-4.85-7.95-7.73-16.57-7.61-25.86.25-19.4,7.24-35.52,24.13-46.29,8.17-5.21,17.3-7.66,26.88-8.59,11.2-1.1,22.12.12,32.71,4.01,4.94,1.81,5,1.85,4.09,6.98-1.54,8.63-3.17,17.24-4.78,25.86-.05.24-.19.47-.24.59-3.36-1.36-6.55-2.95-9.92-3.96-7.16-2.15-14.47-2.94-21.86-1.01-17.19,4.49-18.55,23.02-9.74,32.55,5.26,5.7,11.74,9.8,18.27,13.79,7.23,4.42,14.19,9.18,20.06,15.36,9.74,10.24,15.26,22.31,15.91,36.53.64,14.06-2.52,27-11.26,38.23-8.48,10.89-19.9,17.21-33.21,20.02-17.08,3.61-33.84,2.06-50.15-4.16-.18-.07-.37-.15-.56-.2-2.01-.58-2.6-1.61-2.18-3.89,1.78-9.52,3.27-19.1,4.9-28.87,1.24.56,2.33,1.11,3.46,1.56,9.34,3.78,19.04,5.74,29.14,5.57,4.33-.08,8.51-.91,12.47-2.72,8.83-4.04,12.21-12.21,11.42-21.09-.79-8.84-6.02-14.86-12.69-19.88-4-3.01-8.23-5.72-12.48-8.65Z"></path>
    <path class="cls-3" d="M1574.9,73.27c2.78,14.27,5.53,28.37,8.28,42.47,4.17,21.41,8.35,42.82,12.51,64.24,3.99,20.51,7.95,41.02,11.92,61.53.02.13,0,.26,0,.58-.63.03-1.26.08-1.88.09-10.56,0-21.13-.04-31.69.05-1.74.01-2.17-.6-2.45-2.18-2.33-13.24-4.76-26.46-7.17-39.69-.06-.31-.22-.61-.35-.96h-33.5c-.82,4.18-1.66,8.35-2.47,12.53-1.86,9.57-3.72,19.15-5.57,28.73-.18.92-.39,1.56-1.58,1.55-11.09-.04-22.19-.03-33.28-.04-.25,0-.49-.11-.89-.2,13.54-62.53,27.08-125,40.63-187.56h43.82c1.2,6.19,2.42,12.44,3.65,18.86M1548.62,89.33c-.11-.07-.23-.14-.64-.1-.68,4.02-1.36,8.05-2.03,12.07-3.27,19.49-6.55,38.99-9.82,58.48-.61,3.6-1.23,7.2-1.86,10.86h26.37c-4.02-27.13-8.02-54.11-12.02-81.31Z"></path>
    <path class="cls-3" d="M1486.98,99.79c3.05,9.28,4.84,18.68,5.42,28.25.51,8.55.91,17.15.65,25.7-.52,16.9-3.05,33.47-9.99,49.11-9.48,21.34-25.87,33.95-48.63,38.51-12.85,2.57-25.8,2.67-38.81,1.71-5.32-.4-10.63-.85-16.04-1.29V57.01c3.54-.62,7.19-1.4,10.87-1.87,10.35-1.33,20.76-1.96,31.19-1.55,11.81.46,23.37,2.24,34.08,7.66,13.96,7.07,23.26,18.33,29.12,32.63.77,1.89,1.4,3.84,2.14,5.91M1416.05,140.48c0,8.19,0,16.37,0,24.56,0,15.38,0,30.77-.01,46.15,0,1.2-.04,2.19,1.58,2.35,8.35.82,15.85-.82,21.96-7.06,4.83-4.94,7.81-10.91,9.97-17.34,3.59-10.65,4.95-21.71,5.45-32.86.52-11.41.5-22.83-1.11-34.18-1.18-8.32-3.03-16.47-7.02-23.98-6.51-12.24-16.29-16.54-28.51-15.05-1.78.22-2.37.89-2.36,2.75.07,18.09.04,36.18.04,54.67Z"></path>
    <path class="cls-3" d="M1745.63,146.24h51.92v7.52h-66.39v-7.52c4.82,0,9.55,0,14.47,0Z"></path>
    <path class="cls-11" d="M1731.03,112.92c0-1.37,0-2.55,0-3.9h66.48v7.3h-66.48v-3.4Z"></path>
    <path class="cls-3" d="M1736.13,183.82c20.58,0,40.96,0,61.45,0v7.44h-66.41v-7.44c1.63,0,3.2,0,4.96,0Z"></path>
    <path class="cls-24" d="M1728.35,212.37c-3,.35-5.26-.59-6.62-3.16-1.14-2.16-.94-4.35.44-6.36,1.43-2.09,4.12-3.03,6.67-2.28,2.52.74,3.93,2.52,4.32,5.11.35,2.31-.87,4.76-3.02,5.99-.51.29-1.09.45-1.8.7Z"></path>
    <path class="cls-27" d="M1741.45,211.09c-2.55-2.78-2.84-6.04-.87-8.49,1.86-2.31,5.34-2.95,7.87-1.45,2.91,1.73,3.88,5.61,2.11,8.44-1.94,3.09-5.53,3.73-9.11,1.5Z"></path>
    <path class="cls-11" d="M1724.74,174.45c-2.92-1.67-4.12-3.98-3.62-6.74.43-2.34,2.42-4.39,4.69-4.82,2.6-.49,5.18.61,6.51,2.76,1.29,2.09,1.19,4.98-.33,6.88-1.88,2.34-4.31,2.85-7.26,1.92Z"></path>
    <path class="cls-11" d="M1751.49,168.84c-.49,6.17-6.82,7.42-10.03,4.73-2.02-1.69-2.74-4.56-1.75-7,1.05-2.57,3.43-3.98,6.33-3.73,2.51.22,4.64,2.12,5.22,4.68.09.39.16.78.24,1.32Z"></path>
    <path class="cls-24" d="M1748.32,126c2.24,1.45,3.33,3.41,3.08,5.92-.24,2.42-1.53,4.18-3.84,5.08-2.52.98-5.25.23-6.96-1.87-1.63-2.01-1.76-5.04-.3-7.21,1.47-2.19,4.21-3.17,6.78-2.42.38.11.74.28,1.24.49Z"></path>
    <path class="cls-24" d="M1731.28,126.89c2.26,2.64,2.53,5.41.87,7.89-1.52,2.28-4.49,3.21-7.18,2.26-2.48-.88-4.12-3.46-3.89-6.26.19-2.29,1.38-3.97,3.46-4.93,2.39-1.1,4.62-.76,6.74,1.05Z"></path>
    <path class="cls-11" d="M1733.26,93.6c-.11,4.98-4.96,7.58-8.81,5.66-2.52-1.26-3.89-4.03-3.3-6.73.61-2.8,3.07-4.82,5.94-4.87,2.72-.05,5.18,1.88,5.9,4.63.1.38.17.77.26,1.31Z"></path>
    <path class="cls-11" d="M1751.21,95.43c-1.27,3.11-3.18,4.48-6,4.43-2.55-.04-4.67-1.56-5.58-4.01-.85-2.28-.23-4.83,1.58-6.53,1.9-1.78,4.83-2.11,7.16-.81,2.34,1.3,3.4,3.81,2.83,6.92Z"></path>
    <path class="cls-7" d="M546.15,137.57c-2.99,0-5.81,0-8.79,0v-1.8c0-16.83.02-33.66-.04-50.49,0-1.56.43-2.25,1.98-2.47,7.19-1.02,14.13-.75,20.17,3.93,4.77,3.7,6.85,8.92,7.77,14.67,1.37,8.6.94,17-3.43,24.78-3.82,6.8-9.66,10.64-17.66,11.37M545.65,132.96c6.75-.62,11.71-4.01,14.56-10.07,3.94-8.38,4.05-17.14,1.11-25.8-3.01-8.87-12.47-11.09-19.07-9.64v45.55c1.1,0,2.08,0,3.41-.04Z"></path>
    <path class="cls-29" d="M1548.62,89.55c4,26.98,8,53.97,12.02,81.09h-26.37c.62-3.65,1.25-7.25,1.86-10.86,3.28-19.49,6.55-38.99,9.82-58.48.68-4.02,1.35-8.05,2.21-12.04.24.15.34.23.46.28M1538.56,167.52h18.42c-.11-.58-.2-1.06-.34-1.86-1.53-9.91-3.07-19.81-4.6-29.72-1.3-8.4-2.6-16.79-3.97-25.6-.22,1.09-.39,1.79-.51,2.49-2.09,12.29-4.17,24.57-6.25,36.86-.99,5.85-1.96,11.7-2.75,17.82Z"></path>
    <path class="cls-10" d="M1548.62,89.44c-.12.06-.21-.03-.31-.23.08-.02.2.05.31.23Z"></path>
    <path class="cls-20" d="M1416.05,140.28c0-18.29.03-36.38-.04-54.47,0-1.86.59-2.53,2.36-2.75,12.22-1.49,22,2.81,28.51,15.05,3.99,7.51,5.84,15.66,7.02,23.98,1.61,11.35,1.63,22.77,1.11,34.18-.51,11.16-1.86,22.21-5.45,32.86-2.17,6.43-5.14,12.4-9.97,17.34-6.1,6.24-13.6,7.89-21.96,7.06-1.63-.16-1.59-1.15-1.58-2.35.02-15.38.01-30.77.01-46.15,0-8.19,0-16.37,0-24.76M1419.41,181.3v28.95c.51.05.82.09,1.14.11,9.18.54,15.81-3.7,20.63-11.18,4.32-6.71,6.59-14.21,8.01-21.96,3.4-18.64,3.71-37.38,1.14-56.14-1.12-8.2-3.17-16.18-7.55-23.36-2.67-4.38-6.14-7.91-10.97-9.9-3.98-1.64-8.1-1.97-12.38-1.41v94.89Z"></path>
    <path class="cls-9" d="M545.47,132.98c-1.15.02-2.13.02-3.23.02v-45.55c6.61-1.45,16.07.77,19.07,9.64,2.94,8.67,2.83,17.42-1.11,25.8-2.85,6.06-7.81,9.45-14.73,10.09Z"></path>
    <path class="cls-9" d="M1538.37,167.24c.98-5.85,1.96-11.7,2.95-17.55,2.08-12.29,4.16-24.58,6.25-36.86.12-.7.28-1.4.51-2.49,1.37,8.81,2.67,17.21,3.97,25.6,1.54,9.91,3.07,19.81,4.58,30.05-.6.63-1.18,1.2-1.77,1.21-5.49.07-10.99.05-16.48.05Z"></path>
    <path class="cls-4" d="M1538.46,167.38c5.4-.14,10.89-.12,16.39-.19.59,0,1.17-.57,1.8-1.05.14.31.23.79.34,1.37-6.28,0-12.35,0-18.52-.14Z"></path>
    <path class="cls-8" d="M1419.41,181.1v-94.69c4.29-.56,8.4-.23,12.38,1.41,4.83,1.99,8.31,5.53,10.97,9.9,4.37,7.18,6.42,15.16,7.55,23.36,2.57,18.76,2.26,37.5-1.14,56.14-1.41,7.76-3.68,15.26-8.01,21.96-4.82,7.48-11.44,11.71-20.63,11.18-.32-.02-.63-.06-1.14-.11v-29.15M1426.63,151.98v50.53c1.1-.59,2.1-1.03,2.99-1.63,4.88-3.35,7.32-8.4,9.29-13.72,3.68-9.91,5.09-20.32,5.43-30.75.37-11.7.71-23.45-1.4-35.1-1.24-6.81-2.76-13.48-6.27-19.5-2.23-3.83-5.28-6.82-10.03-8.02v58.19Z"></path>
    <path class="cls-5" d="M1426.63,151.78v-57.99c4.75,1.2,7.8,4.19,10.03,8.02,3.51,6.02,5.03,12.69,6.27,19.5,2.12,11.65,1.78,23.41,1.4,35.1-.33,10.43-1.75,20.84-5.43,30.75-1.97,5.32-4.41,10.36-9.29,13.72-.88.61-1.88,1.04-2.99,1.63v-50.73Z"></path>
  </g>
</svg>
